<?xml version="1.0" standalone="no"?>
<!DOCTYPE svg PUBLIC "-//W3C//DTD SVG 1.1//EN" "http://www.w3.org/Graphics/SVG/1.1/DTD/svg11.dtd">
<svg version="1.1" xmlns="http://www.w3.org/2000/svg" viewBox="0 0 1820 1220" width="1820" height="1220"><!-- svg-source:excalidraw --><metadata></metadata><defs><style class="style-fonts">
      </style></defs><rect x="0" y="0" width="1820" height="1220" fill="#F7F2E8"></rect><g stroke-linecap="round" transform="translate(10 10) rotate(0 900 600)"><path d="M0 0 L1800 0 L1800 1200 L0 1200" stroke="none" stroke-width="0" fill="#F7F2E8"></path><path d="M0 0 C475.02 0, 950.04 0, 1800 0 M0 0 C544.08 0, 1088.17 0, 1800 0 M1800 0 C1800 374.6, 1800 749.2, 1800 1200 M1800 0 C1800 294.11, 1800 588.21, 1800 1200 M1800 1200 C1126.46 1200, 452.92 1200, 0 1200 M1800 1200 C1393.25 1200, 986.49 1200, 0 1200 M0 1200 C0 955.33, 0 710.66, 0 0 M0 1200 C0 879.28, 0 558.55, 0 0" stroke="#F7F2E8" stroke-width="1" fill="none"></path></g><g transform="translate(130 79.87915892868) rotate(0 92.4 7.5)"><text x="0" y="10.740234375" font-family="Helvetica, sans-serif, Segoe UI Emoji" font-size="12px" fill="#000000" text-anchor="start" style="white-space: pre;" direction="ltr" dominant-baseline="alphabetic">EXECUTIVE BRIEF / SECTION 01</text></g><g transform="translate(130 114.87915892868) rotate(0 455.4000000000001 22.5)"><text x="0" y="32.220703125" font-family="Helvetica, sans-serif, Segoe UI Emoji" font-size="36px" fill="#000000" text-anchor="start" style="white-space: pre;" direction="ltr" dominant-baseline="alphabetic">Three analogies for the Model Context Protocol</text></g><g stroke-opacity="0.7" fill-opacity="0.7" transform="translate(130 174.87915892868) rotate(0 257.40000000000003 11.25)"><text x="0" y="16.1103515625" font-family="Helvetica, sans-serif, Segoe UI Emoji" font-size="18px" fill="#000000" text-anchor="start" style="white-space: pre;" direction="ltr" dominant-baseline="alphabetic">Three shapes of the same idea: a standard interface.</text></g><g stroke-linecap="round" transform="translate(1510 79.87915892868) rotate(0 90 22)"><path d="M0 0 L180 0 L180 44 L0 44" stroke="none" stroke-width="0" fill="#E03A2A"></path><path d="M0 0 C53.04 0, 106.07 0, 180 0 M0 0 C70.66 0, 141.32 0, 180 0 M180 0 C180 17.47, 180 34.94, 180 44 M180 0 C180 17.34, 180 34.67, 180 44 M180 44 C131.77 44, 83.54 44, 0 44 M180 44 C138.73 44, 97.47 44, 0 44 M0 44 C0 29.98, 0 15.97, 0 0 M0 44 C0 34.95, 0 25.91, 0 0" stroke="#E03A2A" stroke-width="1" fill="none"></path></g><g transform="translate(1565.35 93.12915892868) rotate(0 34.64999999999998 8.75)"><text x="0" y="12.5302734375" font-family="Helvetica, sans-serif, Segoe UI Emoji" font-size="14px" fill="#F7F2E8" text-anchor="start" style="white-space: pre;" direction="ltr" dominant-baseline="alphabetic">EXEC . 01</text></g><g stroke-linecap="round"><g transform="translate(130 224.87915892868) rotate(0 780 0)"><path d="M0 0 C502 0, 1004 0, 1560 0 M0 0 C419.27 0, 838.55 0, 1560 0" stroke="#000000" stroke-width="1" fill="none"></path></g></g><mask></mask><g stroke-linecap="round"><g stroke-opacity="0.5" fill-opacity="0.5" transform="translate(630 249.87915892868) rotate(0 0 385)"><path d="M0 0 C0 202.99, 0 405.99, 0 770 M0 0 C0 305.1, 0 610.19, 0 770" stroke="#000000" stroke-width="0.6" fill="none"></path></g></g><mask></mask><g stroke-linecap="round"><g stroke-opacity="0.5" fill-opacity="0.5" transform="translate(1170 249.87915892868) rotate(0 0 385)"><path d="M0 0 C0 271.67, 0 543.33, 0 770 M0 0 C0 223.93, 0 447.86, 0 770" stroke="#000000" stroke-width="0.6" fill="none"></path></g></g><mask></mask><g stroke-linecap="round" transform="translate(150 254.87915892868) rotate(0 220 14)"><path d="M0 0 L440 0 L440 28 L0 28" stroke="none" stroke-width="0" fill="#000000"></path><path d="M0 0 C97.44 0, 194.88 0, 440 0 M0 0 C174.23 0, 348.46 0, 440 0 M440 0 C440 8.3, 440 16.59, 440 28 M440 0 C440 8.99, 440 17.98, 440 28 M440 28 C290.72 28, 141.44 28, 0 28 M440 28 C313.18 28, 186.36 28, 0 28 M0 28 C0 18.22, 0 8.44, 0 0 M0 28 C0 19.54, 0 11.09, 0 0" stroke="#000000" stroke-width="1" fill="none"></path></g><g transform="translate(282.275 262.00415892868) rotate(0 94.84814453125 6.875)"><text x="0" y="9.84521484375" font-family="Helvetica, sans-serif, Segoe UI Emoji" font-size="11px" fill="#F7F2E8" text-anchor="start" style="white-space: pre;" direction="ltr" dominant-baseline="alphabetic">PANEL A — SHIPPING CONTAINERS</text></g><g stroke-linecap="round" transform="translate(160 329.87915892868) rotate(0 50 25)"><path d="M12.5 0 C30.12 0, 47.73 0, 87.5 0 M12.5 0 C30.83 0, 49.15 0, 87.5 0 M87.5 0 C95.83 0, 100 4.17, 100 12.5 M87.5 0 C95.83 0, 100 4.17, 100 12.5 M100 12.5 C100 19.68, 100 26.87, 100 37.5 M100 12.5 C100 19.45, 100 26.4, 100 37.5 M100 37.5 C100 45.83, 95.83 50, 87.5 50 M100 37.5 C100 45.83, 95.83 50, 87.5 50 M87.5 50 C58.78 50, 30.07 50, 12.5 50 M87.5 50 C57.54 50, 27.58 50, 12.5 50 M12.5 50 C4.17 50, 0 45.83, 0 37.5 M12.5 50 C4.17 50, 0 45.83, 0 37.5 M0 37.5 C0 29.71, 0 21.92, 0 12.5 M0 37.5 C0 31.93, 0 26.36, 0 12.5 M0 12.5 C0 4.17, 4.17 0, 12.5 0 M0 12.5 C0 4.17, 4.17 0, 12.5 0" stroke="#000000" stroke-width="1" fill="none"></path></g><g transform="translate(193.5 347.37915892868) rotate(0 16.5 7.5)"><text x="0" y="10.740234375" font-family="Helvetica, sans-serif, Segoe UI Emoji" font-size="12px" fill="#000000" text-anchor="start" style="white-space: pre;" direction="ltr" dominant-baseline="alphabetic">Sacks</text></g><g stroke-linecap="round" transform="translate(320 329.87915892868) rotate(0 50 25)"><path d="M12.5 0 C38.56 0, 64.61 0, 87.5 0 M12.5 0 C32.38 0, 52.26 0, 87.5 0 M87.5 0 C95.83 0, 100 4.17, 100 12.5 M87.5 0 C95.83 0, 100 4.17, 100 12.5 M100 12.5 C100 22.13, 100 31.75, 100 37.5 M100 12.5 C100 18.12, 100 23.74, 100 37.5 M100 37.5 C100 45.83, 95.83 50, 87.5 50 M100 37.5 C100 45.83, 95.83 50, 87.5 50 M87.5 50 C58.17 50, 28.85 50, 12.5 50 M87.5 50 C66.08 50, 44.66 50, 12.5 50 M12.5 50 C4.17 50, 0 45.83, 0 37.5 M12.5 50 C4.17 50, 0 45.83, 0 37.5 M0 37.5 C0 28.32, 0 19.15, 0 12.5 M0 37.5 C0 27.68, 0 17.85, 0 12.5 M0 12.5 C0 4.17, 4.17 0, 12.5 0 M0 12.5 C0 4.17, 4.17 0, 12.5 0" stroke="#000000" stroke-width="1" fill="none"></path></g><g transform="translate(346.9 347.37915892868) rotate(0 23.099999999999994 7.5)"><text x="0" y="10.740234375" font-family="Helvetica, sans-serif, Segoe UI Emoji" font-size="12px" fill="#000000" text-anchor="start" style="white-space: pre;" direction="ltr" dominant-baseline="alphabetic">Barrels</text></g><g stroke-linecap="round" transform="translate(480 329.87915892868) rotate(0 50 25)"><path d="M12.5 0 C39.77 0, 67.04 0, 87.5 0 M12.5 0 C27.76 0, 43.02 0, 87.5 0 M87.5 0 C95.83 0, 100 4.17, 100 12.5 M87.5 0 C95.83 0, 100 4.17, 100 12.5 M100 12.5 C100 17.73, 100 22.97, 100 37.5 M100 12.5 C100 21.61, 100 30.73, 100 37.5 M100 37.5 C100 45.83, 95.83 50, 87.5 50 M100 37.5 C100 45.83, 95.83 50, 87.5 50 M87.5 50 C62.18 50, 36.85 50, 12.5 50 M87.5 50 C64.48 50, 41.46 50, 12.5 50 M12.5 50 C4.17 50, 0 45.83, 0 37.5 M12.5 50 C4.17 50, 0 45.83, 0 37.5 M0 37.5 C0 31.57, 0 25.64, 0 12.5 M0 37.5 C0 30.69, 0 23.88, 0 12.5 M0 12.5 C0 4.17, 4.17 0, 12.5 0 M0 12.5 C0 4.17, 4.17 0, 12.5 0" stroke="#000000" stroke-width="1" fill="none"></path></g><g transform="translate(510.2 347.37915892868) rotate(0 19.799999999999983 7.5)"><text x="0" y="10.740234375" font-family="Helvetica, sans-serif, Segoe UI Emoji" font-size="12px" fill="#000000" text-anchor="start" style="white-space: pre;" direction="ltr" dominant-baseline="alphabetic">Crates</text></g><g stroke-linecap="round" transform="translate(160 489.87915892868) rotate(0 50 25)"><path d="M12.5 0 C33.54 0, 54.58 0, 87.5 0 M12.5 0 C38.95 0, 65.4 0, 87.5 0 M87.5 0 C95.83 0, 100 4.17, 100 12.5 M87.5 0 C95.83 0, 100 4.17, 100 12.5 M100 12.5 C100 21.38, 100 30.25, 100 37.5 M100 12.5 C100 20.39, 100 28.28, 100 37.5 M100 37.5 C100 45.83, 95.83 50, 87.5 50 M100 37.5 C100 45.83, 95.83 50, 87.5 50 M87.5 50 C58.91 50, 30.31 50, 12.5 50 M87.5 50 C60.83 50, 34.15 50, 12.5 50 M12.5 50 C4.17 50, 0 45.83, 0 37.5 M12.5 50 C4.17 50, 0 45.83, 0 37.5 M0 37.5 C0 27.74, 0 17.99, 0 12.5 M0 37.5 C0 30.59, 0 23.68, 0 12.5 M0 12.5 C0 4.17, 4.17 0, 12.5 0 M0 12.5 C0 4.17, 4.17 0, 12.5 0" stroke="#000000" stroke-width="1" fill="none"></path></g><g transform="translate(193.5 507.37915892868) rotate(0 16.5 7.5)"><text x="0" y="10.740234375" font-family="Helvetica, sans-serif, Segoe UI Emoji" font-size="12px" fill="#000000" text-anchor="start" style="white-space: pre;" direction="ltr" dominant-baseline="alphabetic">Truck</text></g><g stroke-linecap="round" transform="translate(320 489.87915892868) rotate(0 50 25)"><path d="M12.5 0 C35.9 0, 59.31 0, 87.5 0 M12.5 0 C35.55 0, 58.6 0, 87.5 0 M87.5 0 C95.83 0, 100 4.17, 100 12.5 M87.5 0 C95.83 0, 100 4.17, 100 12.5 M100 12.5 C100 19.52, 100 26.55, 100 37.5 M100 12.5 C100 21.55, 100 30.59, 100 37.5 M100 37.5 C100 45.83, 95.83 50, 87.5 50 M100 37.5 C100 45.83, 95.83 50, 87.5 50 M87.5 50 C65.62 50, 43.74 50, 12.5 50 M87.5 50 C61.7 50, 35.91 50, 12.5 50 M12.5 50 C4.17 50, 0 45.83, 0 37.5 M12.5 50 C4.17 50, 0 45.83, 0 37.5 M0 37.5 C0 30.28, 0 23.06, 0 12.5 M0 37.5 C0 29.54, 0 21.57, 0 12.5 M0 12.5 C0 4.17, 4.17 0, 12.5 0 M0 12.5 C0 4.17, 4.17 0, 12.5 0" stroke="#000000" stroke-width="1" fill="none"></path></g><g transform="translate(353.5 507.37915892868) rotate(0 16.5 7.5)"><text x="0" y="10.740234375" font-family="Helvetica, sans-serif, Segoe UI Emoji" font-size="12px" fill="#000000" text-anchor="start" style="white-space: pre;" direction="ltr" dominant-baseline="alphabetic">Train</text></g><g stroke-linecap="round" transform="translate(480 489.87915892868) rotate(0 50 25)"><path d="M12.5 0 C42.34 0, 72.17 0, 87.5 0 M12.5 0 C29.02 0, 45.53 0, 87.5 0 M87.5 0 C95.83 0, 100 4.17, 100 12.5 M87.5 0 C95.83 0, 100 4.17, 100 12.5 M100 12.5 C100 18.33, 100 24.16, 100 37.5 M100 12.5 C100 22.36, 100 32.22, 100 37.5 M100 37.5 C100 45.83, 95.83 50, 87.5 50 M100 37.5 C100 45.83, 95.83 50, 87.5 50 M87.5 50 C61.18 50, 34.86 50, 12.5 50 M87.5 50 C58.13 50, 28.77 50, 12.5 50 M12.5 50 C4.17 50, 0 45.83, 0 37.5 M12.5 50 C4.17 50, 0 45.83, 0 37.5 M0 37.5 C0 29, 0 20.5, 0 12.5 M0 37.5 C0 32.35, 0 27.2, 0 12.5 M0 12.5 C0 4.17, 4.17 0, 12.5 0 M0 12.5 C0 4.17, 4.17 0, 12.5 0" stroke="#000000" stroke-width="1" fill="none"></path></g><g transform="translate(516.8 507.37915892868) rotate(0 13.200000000000017 7.5)"><text x="0" y="10.740234375" font-family="Helvetica, sans-serif, Segoe UI Emoji" font-size="12px" fill="#000000" text-anchor="start" style="white-space: pre;" direction="ltr" dominant-baseline="alphabetic">Ship</text></g><g stroke-linecap="round"><g stroke-opacity="0.65" fill-opacity="0.65" transform="translate(210 379.87915892868) rotate(0 0 55)"><path d="M0 0 C0 26.58, 0 53.17, 0 110 M0 0 C0 31.33, 0 62.67, 0 110" stroke="#000000" stroke-width="1" fill="none"></path></g></g><mask></mask><g stroke-linecap="round"><g stroke-opacity="0.65" fill-opacity="0.65" transform="translate(210 379.87915892868) rotate(0 80 55)"><path d="M0 0 C53.5 36.78, 107 73.56, 160 110 M0 0 C37.78 25.98, 75.57 51.95, 160 110" stroke="#000000" stroke-width="1" fill="none"></path></g></g><mask></mask><g stroke-linecap="round"><g stroke-opacity="0.65" fill-opacity="0.65" transform="translate(210 379.87915892868) rotate(0 160 55)"><path d="M0 0 C100.9 34.69, 201.81 69.37, 320 110 M0 0 C91.43 31.43, 182.85 62.86, 320 110" stroke="#000000" stroke-width="1" fill="none"></path></g></g><mask></mask><g stroke-linecap="round"><g stroke-opacity="0.65" fill-opacity="0.65" transform="translate(370 379.87915892868) rotate(0 -80 55)"><path d="M0 0 C-46.01 31.63, -92.02 63.26, -160 110 M0 0 C-44.51 30.6, -89.02 61.2, -160 110" stroke="#000000" stroke-width="1" fill="none"></path></g></g><mask></mask><g stroke-linecap="round"><g stroke-opacity="0.65" fill-opacity="0.65" transform="translate(370 379.87915892868) rotate(0 0 55)"><path d="M0 0 C0 34.42, 0 68.84, 0 110 M0 0 C0 41.27, 0 82.54, 0 110" stroke="#000000" stroke-width="1" fill="none"></path></g></g><mask></mask><g stroke-linecap="round"><g stroke-opacity="0.65" fill-opacity="0.65" transform="translate(370 379.87915892868) rotate(0 80 55)"><path d="M0 0 C48.69 33.47, 97.37 66.94, 160 110 M0 0 C35.74 24.57, 71.49 49.15, 160 110" stroke="#000000" stroke-width="1" fill="none"></path></g></g><mask></mask><g stroke-linecap="round"><g stroke-opacity="0.65" fill-opacity="0.65" transform="translate(530 379.87915892868) rotate(0 -160 55)"><path d="M0 0 C-92.58 31.82, -185.16 63.65, -320 110 M0 0 C-119.01 40.91, -238.03 81.82, -320 110" stroke="#000000" stroke-width="1" fill="none"></path></g></g><mask></mask><g stroke-linecap="round"><g stroke-opacity="0.65" fill-opacity="0.65" transform="translate(530 379.87915892868) rotate(0 -80 55)"><path d="M0 0 C-32.18 22.12, -64.36 44.25, -160 110 M0 0 C-50.11 34.45, -100.22 68.9, -160 110" stroke="#000000" stroke-width="1" fill="none"></path></g></g><mask></mask><g stroke-linecap="round"><g stroke-opacity="0.65" fill-opacity="0.65" transform="translate(530 379.87915892868) rotate(0 0 55)"><path d="M0 0 C0 43.77, 0 87.53, 0 110 M0 0 C0 32.07, 0 64.14, 0 110" stroke="#000000" stroke-width="1" fill="none"></path></g></g><mask></mask><g stroke-opacity="0.85" fill-opacity="0.85" transform="translate(294.3188104015144 561.7512323726779) rotate(0 77.16856103481933 7.5)"><text x="0" y="10.740234375" font-family="Helvetica, sans-serif, Segoe UI Emoji" font-size="12px" fill="#000000" text-anchor="start" style="white-space: pre;" direction="ltr" dominant-baseline="alphabetic">9 bespoke handling methods</text></g><g stroke-linecap="round" transform="translate(160 629.87915892868) rotate(0 50 25)"><path d="M12.5 0 C32.64 0, 52.79 0, 87.5 0 M12.5 0 C32.76 0, 53.02 0, 87.5 0 M87.5 0 C95.83 0, 100 4.17, 100 12.5 M87.5 0 C95.83 0, 100 4.17, 100 12.5 M100 12.5 C100 18.2, 100 23.89, 100 37.5 M100 12.5 C100 22.03, 100 31.56, 100 37.5 M100 37.5 C100 45.83, 95.83 50, 87.5 50 M100 37.5 C100 45.83, 95.83 50, 87.5 50 M87.5 50 C58.74 50, 29.99 50, 12.5 50 M87.5 50 C61.03 50, 34.56 50, 12.5 50 M12.5 50 C4.17 50, 0 45.83, 0 37.5 M12.5 50 C4.17 50, 0 45.83, 0 37.5 M0 37.5 C0 30.48, 0 23.45, 0 12.5 M0 37.5 C0 28.74, 0 19.99, 0 12.5 M0 12.5 C0 4.17, 4.17 0, 12.5 0 M0 12.5 C0 4.17, 4.17 0, 12.5 0" stroke="#000000" stroke-width="1" fill="none"></path></g><g transform="translate(193.5 647.37915892868) rotate(0 16.5 7.5)"><text x="0" y="10.740234375" font-family="Helvetica, sans-serif, Segoe UI Emoji" font-size="12px" fill="#000000" text-anchor="start" style="white-space: pre;" direction="ltr" dominant-baseline="alphabetic">Sacks</text></g><g stroke-linecap="round" transform="translate(320 629.87915892868) rotate(0 50 25)"><path d="M12.5 0 C28.18 0, 43.87 0, 87.5 0 M12.5 0 C28.46 0, 44.41 0, 87.5 0 M87.5 0 C95.83 0, 100 4.17, 100 12.5 M87.5 0 C95.83 0, 100 4.17, 100 12.5 M100 12.5 C100 18.62, 100 24.73, 100 37.5 M100 12.5 C100 22.28, 100 32.07, 100 37.5 M100 37.5 C100 45.83, 95.83 50, 87.5 50 M100 37.5 C100 45.83, 95.83 50, 87.5 50 M87.5 50 C65.99 50, 44.48 50, 12.5 50 M87.5 50 C59.73 50, 31.95 50, 12.5 50 M12.5 50 C4.17 50, 0 45.83, 0 37.5 M12.5 50 C4.17 50, 0 45.83, 0 37.5 M0 37.5 C0 30.18, 0 22.87, 0 12.5 M0 37.5 C0 29.27, 0 21.03, 0 12.5 M0 12.5 C0 4.17, 4.17 0, 12.5 0 M0 12.5 C0 4.17, 4.17 0, 12.5 0" stroke="#000000" stroke-width="1" fill="none"></path></g><g transform="translate(346.9 647.37915892868) rotate(0 23.099999999999994 7.5)"><text x="0" y="10.740234375" font-family="Helvetica, sans-serif, Segoe UI Emoji" font-size="12px" fill="#000000" text-anchor="start" style="white-space: pre;" direction="ltr" dominant-baseline="alphabetic">Barrels</text></g><g stroke-linecap="round" transform="translate(480 629.87915892868) rotate(0 50 25)"><path d="M12.5 0 C39.22 0, 65.94 0, 87.5 0 M12.5 0 C30.81 0, 49.11 0, 87.5 0 M87.5 0 C95.83 0, 100 4.17, 100 12.5 M87.5 0 C95.83 0, 100 4.17, 100 12.5 M100 12.5 C100 22.17, 100 31.83, 100 37.5 M100 12.5 C100 20.05, 100 27.6, 100 37.5 M100 37.5 C100 45.83, 95.83 50, 87.5 50 M100 37.5 C100 45.83, 95.83 50, 87.5 50 M87.5 50 C58.99 50, 30.47 50, 12.5 50 M87.5 50 C57.53 50, 27.56 50, 12.5 50 M12.5 50 C4.17 50, 0 45.83, 0 37.5 M12.5 50 C4.17 50, 0 45.83, 0 37.5 M0 37.5 C0 29.23, 0 20.96, 0 12.5 M0 37.5 C0 29.42, 0 21.34, 0 12.5 M0 12.5 C0 4.17, 4.17 0, 12.5 0 M0 12.5 C0 4.17, 4.17 0, 12.5 0" stroke="#000000" stroke-width="1" fill="none"></path></g><g transform="translate(510.2 647.37915892868) rotate(0 19.799999999999983 7.5)"><text x="0" y="10.740234375" font-family="Helvetica, sans-serif, Segoe UI Emoji" font-size="12px" fill="#000000" text-anchor="start" style="white-space: pre;" direction="ltr" dominant-baseline="alphabetic">Crates</text></g><g stroke-linecap="round" transform="translate(150 709.87915892868) rotate(0 220 20)"><path d="M0 0 C138.96 0, 277.91 0, 440 0 M0 0 C130.59 0, 261.17 0, 440 0 M440 0 C440 13.24, 440 26.49, 440 40 M440 0 C440 10.22, 440 20.44, 440 40 M440 40 C294.39 40, 148.78 40, 0 40 M440 40 C306.99 40, 173.99 40, 0 40 M0 40 C0 30.67, 0 21.34, 0 0 M0 40 C0 24.12, 0 8.24, 0 0" stroke="#000000" stroke-width="1.4" fill="none"></path></g><g transform="translate(319.95 721.12915892868) rotate(0 54.71142578125 8.75)"><text x="0" y="12.5302734375" font-family="Helvetica, sans-serif, Segoe UI Emoji" font-size="14px" fill="#000000" text-anchor="start" style="white-space: pre;" direction="ltr" dominant-baseline="alphabetic">ISO CONTAINER</text></g><g stroke-linecap="round" transform="translate(160 809.87915892868) rotate(0 50 25)"><path d="M12.5 0 C34.41 0, 56.32 0, 87.5 0 M12.5 0 C28.12 0, 43.73 0, 87.5 0 M87.5 0 C95.83 0, 100 4.17, 100 12.5 M87.5 0 C95.83 0, 100 4.17, 100 12.5 M100 12.5 C100 18.54, 100 24.58, 100 37.5 M100 12.5 C100 21.88, 100 31.25, 100 37.5 M100 37.5 C100 45.83, 95.83 50, 87.5 50 M100 37.5 C100 45.83, 95.83 50, 87.5 50 M87.5 50 C70.43 50, 53.37 50, 12.5 50 M87.5 50 C64.85 50, 42.21 50, 12.5 50 M12.5 50 C4.17 50, 0 45.83, 0 37.5 M12.5 50 C4.17 50, 0 45.83, 0 37.5 M0 37.5 C0 27.76, 0 18.03, 0 12.5 M0 37.5 C0 31.95, 0 26.39, 0 12.5 M0 12.5 C0 4.17, 4.17 0, 12.5 0 M0 12.5 C0 4.17, 4.17 0, 12.5 0" stroke="#000000" stroke-width="1" fill="none"></path></g><g transform="translate(193.5 827.37915892868) rotate(0 16.5 7.5)"><text x="0" y="10.740234375" font-family="Helvetica, sans-serif, Segoe UI Emoji" font-size="12px" fill="#000000" text-anchor="start" style="white-space: pre;" direction="ltr" dominant-baseline="alphabetic">Truck</text></g><g stroke-linecap="round" transform="translate(320 809.87915892868) rotate(0 50 25)"><path d="M12.5 0 C28.98 0, 45.46 0, 87.5 0 M12.5 0 C37.02 0, 61.54 0, 87.5 0 M87.5 0 C95.83 0, 100 4.17, 100 12.5 M87.5 0 C95.83 0, 100 4.17, 100 12.5 M100 12.5 C100 17.79, 100 23.07, 100 37.5 M100 12.5 C100 20.14, 100 27.78, 100 37.5 M100 37.5 C100 45.83, 95.83 50, 87.5 50 M100 37.5 C100 45.83, 95.83 50, 87.5 50 M87.5 50 C69.34 50, 51.18 50, 12.5 50 M87.5 50 C59.71 50, 31.92 50, 12.5 50 M12.5 50 C4.17 50, 0 45.83, 0 37.5 M12.5 50 C4.17 50, 0 45.83, 0 37.5 M0 37.5 C0 31.58, 0 25.65, 0 12.5 M0 37.5 C0 31.22, 0 24.94, 0 12.5 M0 12.5 C0 4.17, 4.17 0, 12.5 0 M0 12.5 C0 4.17, 4.17 0, 12.5 0" stroke="#000000" stroke-width="1" fill="none"></path></g><g transform="translate(353.5 827.37915892868) rotate(0 16.5 7.5)"><text x="0" y="10.740234375" font-family="Helvetica, sans-serif, Segoe UI Emoji" font-size="12px" fill="#000000" text-anchor="start" style="white-space: pre;" direction="ltr" dominant-baseline="alphabetic">Train</text></g><g stroke-linecap="round" transform="translate(480 809.87915892868) rotate(0 50 25)"><path d="M12.5 0 C31.62 0, 50.74 0, 87.5 0 M12.5 0 C34.23 0, 55.97 0, 87.5 0 M87.5 0 C95.83 0, 100 4.17, 100 12.5 M87.5 0 C95.83 0, 100 4.17, 100 12.5 M100 12.5 C100 18.69, 100 24.88, 100 37.5 M100 12.5 C100 18.22, 100 23.95, 100 37.5 M100 37.5 C100 45.83, 95.83 50, 87.5 50 M100 37.5 C100 45.83, 95.83 50, 87.5 50 M87.5 50 C61.97 50, 36.43 50, 12.5 50 M87.5 50 C70.67 50, 53.84 50, 12.5 50 M12.5 50 C4.17 50, 0 45.83, 0 37.5 M12.5 50 C4.17 50, 0 45.83, 0 37.5 M0 37.5 C0 28.75, 0 19.99, 0 12.5 M0 37.5 C0 29.04, 0 20.58, 0 12.5 M0 12.5 C0 4.17, 4.17 0, 12.5 0 M0 12.5 C0 4.17, 4.17 0, 12.5 0" stroke="#000000" stroke-width="1" fill="none"></path></g><g transform="translate(516.8 827.37915892868) rotate(0 13.200000000000017 7.5)"><text x="0" y="10.740234375" font-family="Helvetica, sans-serif, Segoe UI Emoji" font-size="12px" fill="#000000" text-anchor="start" style="white-space: pre;" direction="ltr" dominant-baseline="alphabetic">Ship</text></g><g stroke-linecap="round"><g transform="translate(210 679.87915892868) rotate(0 0 15)"><path d="M0 0 C0 7.06, 0 14.13, 0 30 M0 0 C0 11.53, 0 23.06, 0 30" stroke="#000000" stroke-width="0.9" fill="none"></path></g></g><mask></mask><g stroke-linecap="round"><g transform="translate(370 679.87915892868) rotate(0 0 15)"><path d="M0 0 C0 11.52, 0 23.04, 0 30 M0 0 C0 9.14, 0 18.29, 0 30" stroke="#000000" stroke-width="0.9" fill="none"></path></g></g><mask></mask><g stroke-linecap="round"><g transform="translate(530 679.87915892868) rotate(0 0 15)"><path d="M0 0 C0 9.25, 0 18.49, 0 30 M0 0 C0 10.88, 0 21.76, 0 30" stroke="#000000" stroke-width="0.9" fill="none"></path></g></g><mask></mask><g stroke-linecap="round"><g transform="translate(210 749.87915892868) rotate(0 0 30)"><path d="M0 0 C0 14.76, 0 29.53, 0 60 M0 0 C0 19.09, 0 38.19, 0 60" stroke="#000000" stroke-width="0.9" fill="none"></path></g></g><mask></mask><g stroke-linecap="round"><g transform="translate(370 749.87915892868) rotate(0 0 30)"><path d="M0 0 C0 23.39, 0 46.79, 0 60 M0 0 C0 21.43, 0 42.85, 0 60" stroke="#000000" stroke-width="0.9" fill="none"></path></g></g><mask></mask><g stroke-linecap="round"><g transform="translate(530 749.87915892868) rotate(0 0 30)"><path d="M0 0 C0 16.2, 0 32.41, 0 60 M0 0 C0 19.78, 0 39.55, 0 60" stroke="#000000" stroke-width="0.9" fill="none"></path></g></g><mask></mask><g stroke-opacity="0.85" fill-opacity="0.85" transform="translate(283.02511737955933 882.066267684272) rotate(0 88.24956101791156 7.5)"><text x="0" y="10.740234375" font-family="Helvetica, sans-serif, Segoe UI Emoji" font-size="12px" fill="#000000" text-anchor="start" style="white-space: pre;" direction="ltr" dominant-baseline="alphabetic">1 standard module, any transport</text></g><g transform="translate(150 929.87915892868) rotate(0 160.875 8.125)"><text x="0" y="11.63525390625" font-family="Helvetica, sans-serif, Segoe UI Emoji" font-size="13px" fill="#000000" text-anchor="start" style="white-space: pre;" direction="ltr" dominant-baseline="alphabetic">The cargo doesn't change. The interface does.</text></g><g stroke-opacity="0.6" fill-opacity="0.6" transform="translate(480 979.87915892868) rotate(0 24.75 6.25)"><text x="0" y="8.9501953125" font-family="Helvetica, sans-serif, Segoe UI Emoji" font-size="10px" fill="#000000" text-anchor="start" style="white-space: pre;" direction="ltr" dominant-baseline="alphabetic">Detail A:</text></g><g stroke-opacity="0.6" fill-opacity="0.6" transform="translate(480 994.87915892868) rotate(0 52.25 6.25)"><text x="0" y="8.9501953125" font-family="Helvetica, sans-serif, Segoe UI Emoji" font-size="10px" fill="#000000" text-anchor="start" style="white-space: pre;" direction="ltr" dominant-baseline="alphabetic">Scale: illustrative</text></g><g stroke-linecap="round" transform="translate(690 254.87915892868) rotate(0 220 14)"><path d="M0 0 L440 0 L440 28 L0 28" stroke="none" stroke-width="0" fill="#000000"></path><path d="M0 0 C150.41 0, 300.82 0, 440 0 M0 0 C103.4 0, 206.79 0, 440 0 M440 0 C440 9.18, 440 18.35, 440 28 M440 0 C440 9.75, 440 19.51, 440 28 M440 28 C342.46 28, 244.91 28, 0 28 M440 28 C285 28, 130.01 28, 0 28 M0 28 C0 20.7, 0 13.41, 0 0 M0 28 C0 22.18, 0 16.35, 0 0" stroke="#000000" stroke-width="1" fill="none"></path></g><g transform="translate(837.4 262.00415892868) rotate(0 81.5009765625 6.875)"><text x="0" y="9.84521484375" font-family="Helvetica, sans-serif, Segoe UI Emoji" font-size="11px" fill="#F7F2E8" text-anchor="start" style="white-space: pre;" direction="ltr" dominant-baseline="alphabetic">PANEL B — A POWER SOCKET</text></g><g stroke-linecap="round" transform="translate(700 329.87915892868) rotate(0 50 25)"><path d="M12.5 0 C37.58 0, 62.67 0, 87.5 0 M12.5 0 C33.99 0, 55.49 0, 87.5 0 M87.5 0 C95.83 0, 100 4.17, 100 12.5 M87.5 0 C95.83 0, 100 4.17, 100 12.5 M100 12.5 C100 18.45, 100 24.41, 100 37.5 M100 12.5 C100 20.84, 100 29.17, 100 37.5 M100 37.5 C100 45.83, 95.83 50, 87.5 50 M100 37.5 C100 45.83, 95.83 50, 87.5 50 M87.5 50 C71.79 50, 56.08 50, 12.5 50 M87.5 50 C65.34 50, 43.18 50, 12.5 50 M12.5 50 C4.17 50, 0 45.83, 0 37.5 M12.5 50 C4.17 50, 0 45.83, 0 37.5 M0 37.5 C0 27.75, 0 18.01, 0 12.5 M0 37.5 C0 30.8, 0 24.11, 0 12.5 M0 12.5 C0 4.17, 4.17 0, 12.5 0 M0 12.5 C0 4.17, 4.17 0, 12.5 0" stroke="#000000" stroke-width="1" fill="none"></path></g><g transform="translate(736.8 347.37915892868) rotate(0 13.199999999999989 7.5)"><text x="0" y="10.740234375" font-family="Helvetica, sans-serif, Segoe UI Emoji" font-size="12px" fill="#000000" text-anchor="start" style="white-space: pre;" direction="ltr" dominant-baseline="alphabetic">Lamp</text></g><g stroke-linecap="round" transform="translate(860 329.87915892868) rotate(0 50 25)"><path d="M12.5 0 C33.24 0, 53.99 0, 87.5 0 M12.5 0 C41.42 0, 70.34 0, 87.5 0 M87.5 0 C95.83 0, 100 4.17, 100 12.5 M87.5 0 C95.83 0, 100 4.17, 100 12.5 M100 12.5 C100 20.16, 100 27.83, 100 37.5 M100 12.5 C100 20.69, 100 28.88, 100 37.5 M100 37.5 C100 45.83, 95.83 50, 87.5 50 M100 37.5 C100 45.83, 95.83 50, 87.5 50 M87.5 50 C65.1 50, 42.71 50, 12.5 50 M87.5 50 C60.05 50, 32.6 50, 12.5 50 M12.5 50 C4.17 50, 0 45.83, 0 37.5 M12.5 50 C4.17 50, 0 45.83, 0 37.5 M0 37.5 C0 28.77, 0 20.04, 0 12.5 M0 37.5 C0 28.76, 0 20.02, 0 12.5 M0 12.5 C0 4.17, 4.17 0, 12.5 0 M0 12.5 C0 4.17, 4.17 0, 12.5 0" stroke="#000000" stroke-width="1" fill="none"></path></g><g transform="translate(890.2 347.37915892868) rotate(0 19.80000000000001 7.5)"><text x="0" y="10.740234375" font-family="Helvetica, sans-serif, Segoe UI Emoji" font-size="12px" fill="#000000" text-anchor="start" style="white-space: pre;" direction="ltr" dominant-baseline="alphabetic">Kettle</text></g><g stroke-linecap="round" transform="translate(1020 329.87915892868) rotate(0 50 25)"><path d="M12.5 0 C30.18 0, 47.85 0, 87.5 0 M12.5 0 C30.35 0, 48.2 0, 87.5 0 M87.5 0 C95.83 0, 100 4.17, 100 12.5 M87.5 0 C95.83 0, 100 4.17, 100 12.5 M100 12.5 C100 21.17, 100 29.84, 100 37.5 M100 12.5 C100 21.85, 100 31.21, 100 37.5 M100 37.5 C100 45.83, 95.83 50, 87.5 50 M100 37.5 C100 45.83, 95.83 50, 87.5 50 M87.5 50 C58.68 50, 29.87 50, 12.5 50 M87.5 50 C69.32 50, 51.14 50, 12.5 50 M12.5 50 C4.17 50, 0 45.83, 0 37.5 M12.5 50 C4.17 50, 0 45.83, 0 37.5 M0 37.5 C0 28.64, 0 19.77, 0 12.5 M0 37.5 C0 30.04, 0 22.59, 0 12.5 M0 12.5 C0 4.17, 4.17 0, 12.5 0 M0 12.5 C0 4.17, 4.17 0, 12.5 0" stroke="#000000" stroke-width="1" fill="none"></path></g><g transform="translate(1043.6 347.37915892868) rotate(0 26.399999999999977 7.5)"><text x="0" y="10.740234375" font-family="Helvetica, sans-serif, Segoe UI Emoji" font-size="12px" fill="#000000" text-anchor="start" style="white-space: pre;" direction="ltr" dominant-baseline="alphabetic">Computer</text></g><g stroke-linecap="round" transform="translate(700 489.87915892868) rotate(0 50 25)"><path d="M12.5 0 C42.28 0, 72.06 0, 87.5 0 M12.5 0 C31.57 0, 50.64 0, 87.5 0 M87.5 0 C95.83 0, 100 4.17, 100 12.5 M87.5 0 C95.83 0, 100 4.17, 100 12.5 M100 12.5 C100 19.96, 100 27.42, 100 37.5 M100 12.5 C100 22.04, 100 31.58, 100 37.5 M100 37.5 C100 45.83, 95.83 50, 87.5 50 M100 37.5 C100 45.83, 95.83 50, 87.5 50 M87.5 50 C64.69 50, 41.88 50, 12.5 50 M87.5 50 C66.14 50, 44.77 50, 12.5 50 M12.5 50 C4.17 50, 0 45.83, 0 37.5 M12.5 50 C4.17 50, 0 45.83, 0 37.5 M0 37.5 C0 30.84, 0 24.19, 0 12.5 M0 37.5 C0 27.75, 0 17.99, 0 12.5 M0 12.5 C0 4.17, 4.17 0, 12.5 0 M0 12.5 C0 4.17, 4.17 0, 12.5 0" stroke="#000000" stroke-width="1" fill="none"></path></g><g transform="translate(726.9 507.37915892868) rotate(0 23.100000000000023 7.5)"><text x="0" y="10.740234375" font-family="Helvetica, sans-serif, Segoe UI Emoji" font-size="12px" fill="#000000" text-anchor="start" style="white-space: pre;" direction="ltr" dominant-baseline="alphabetic">US wall</text></g><g stroke-linecap="round" transform="translate(860 489.87915892868) rotate(0 50 25)"><path d="M12.5 0 C29.93 0, 47.37 0, 87.5 0 M12.5 0 C31.39 0, 50.27 0, 87.5 0 M87.5 0 C95.83 0, 100 4.17, 100 12.5 M87.5 0 C95.83 0, 100 4.17, 100 12.5 M100 12.5 C100 20.16, 100 27.83, 100 37.5 M100 12.5 C100 19.74, 100 26.98, 100 37.5 M100 37.5 C100 45.83, 95.83 50, 87.5 50 M100 37.5 C100 45.83, 95.83 50, 87.5 50 M87.5 50 C67.29 50, 47.08 50, 12.5 50 M87.5 50 C71.94 50, 56.39 50, 12.5 50 M12.5 50 C4.17 50, 0 45.83, 0 37.5 M12.5 50 C4.17 50, 0 45.83, 0 37.5 M0 37.5 C0 31.73, 0 25.97, 0 12.5 M0 37.5 C0 30.15, 0 22.8, 0 12.5 M0 12.5 C0 4.17, 4.17 0, 12.5 0 M0 12.5 C0 4.17, 4.17 0, 12.5 0" stroke="#000000" stroke-width="1" fill="none"></path></g><g transform="translate(886.9 507.37915892868) rotate(0 23.100000000000023 7.5)"><text x="0" y="10.740234375" font-family="Helvetica, sans-serif, Segoe UI Emoji" font-size="12px" fill="#000000" text-anchor="start" style="white-space: pre;" direction="ltr" dominant-baseline="alphabetic">EU wall</text></g><g stroke-linecap="round" transform="translate(1020 489.87915892868) rotate(0 50 25)"><path d="M12.5 0 C34.99 0, 57.48 0, 87.5 0 M12.5 0 C40.22 0, 67.93 0, 87.5 0 M87.5 0 C95.83 0, 100 4.17, 100 12.5 M87.5 0 C95.83 0, 100 4.17, 100 12.5 M100 12.5 C100 18.34, 100 24.18, 100 37.5 M100 12.5 C100 21.2, 100 29.9, 100 37.5 M100 37.5 C100 45.83, 95.83 50, 87.5 50 M100 37.5 C100 45.83, 95.83 50, 87.5 50 M87.5 50 C60.19 50, 32.88 50, 12.5 50 M87.5 50 C67.37 50, 47.25 50, 12.5 50 M12.5 50 C4.17 50, 0 45.83, 0 37.5 M12.5 50 C4.17 50, 0 45.83, 0 37.5 M0 37.5 C0 30.45, 0 23.39, 0 12.5 M0 37.5 C0 31.82, 0 26.15, 0 12.5 M0 12.5 C0 4.17, 4.17 0, 12.5 0 M0 12.5 C0 4.17, 4.17 0, 12.5 0" stroke="#000000" stroke-width="1" fill="none"></path></g><g transform="translate(1046.9 507.37915892868) rotate(0 23.100000000000023 7.5)"><text x="0" y="10.740234375" font-family="Helvetica, sans-serif, Segoe UI Emoji" font-size="12px" fill="#000000" text-anchor="start" style="white-space: pre;" direction="ltr" dominant-baseline="alphabetic">UK wall</text></g><g stroke-linecap="round"><g stroke-opacity="0.65" fill-opacity="0.65" transform="translate(749.9495500905907 379.87915892868) rotate(0 0 55)"><path d="M0 0 C0 32.04, 0 64.08, 0 110 M0 0 C0 37.86, 0 75.72, 0 110" stroke="#000000" stroke-width="1" fill="none"></path></g></g><mask></mask><g stroke-linecap="round"><g stroke-opacity="0.65" fill-opacity="0.65" transform="translate(750 379.87915892868) rotate(0 80 55)"><path d="M0 0 C49.68 34.15, 99.36 68.31, 160 110 M0 0 C39.93 27.45, 79.86 54.9, 160 110" stroke="#000000" stroke-width="1" fill="none"></path></g></g><mask></mask><g stroke-linecap="round"><g stroke-opacity="0.65" fill-opacity="0.65" transform="translate(750 379.87915892868) rotate(0 160 55)"><path d="M0 0 C91.87 31.58, 183.74 63.16, 320 110 M0 0 C72.23 24.83, 144.46 49.66, 320 110" stroke="#000000" stroke-width="1" fill="none"></path></g></g><mask></mask><g stroke-linecap="round"><g stroke-opacity="0.65" fill-opacity="0.65" transform="translate(910 379.8287090192707) rotate(0 -80 55)"><path d="M0 0 C-59.95 41.22, -119.91 82.44, -160 110 M0 0 C-46.74 32.13, -93.48 64.27, -160 110" stroke="#000000" stroke-width="1" fill="none"></path></g></g><mask></mask><g stroke-linecap="round"><g stroke-opacity="0.65" fill-opacity="0.65" transform="translate(910 379.87915892868) rotate(0 0 55)"><path d="M0 0 C0 42.58, 0 85.15, 0 110 M0 0 C0 29.27, 0 58.53, 0 110" stroke="#000000" stroke-width="1" fill="none"></path></g></g><mask></mask><g stroke-linecap="round"><g stroke-opacity="0.65" fill-opacity="0.65" transform="translate(910 379.87915892868) rotate(0 80 55)"><path d="M0 0 C42.98 29.55, 85.96 59.1, 160 110 M0 0 C62.32 42.85, 124.65 85.7, 160 110" stroke="#000000" stroke-width="1" fill="none"></path></g></g><mask></mask><g stroke-linecap="round"><g stroke-opacity="0.65" fill-opacity="0.65" transform="translate(1070 379.87915892868) rotate(0 -160 55)"><path d="M0 0 C-86.72 29.81, -173.44 59.62, -320 110 M0 0 C-82.63 28.4, -165.26 56.81, -320 110" stroke="#000000" stroke-width="1" fill="none"></path></g></g><mask></mask><g stroke-linecap="round"><g stroke-opacity="0.65" fill-opacity="0.65" transform="translate(1070 379.87915892868) rotate(0 -80 55)"><path d="M0 0 C-55.81 38.37, -111.63 76.74, -160 110 M0 0 C-37.62 25.87, -75.25 51.73, -160 110" stroke="#000000" stroke-width="1" fill="none"></path></g></g><mask></mask><g stroke-linecap="round"><g stroke-opacity="0.65" fill-opacity="0.65" transform="translate(1070 379.87915892868) rotate(0 0 55)"><path d="M0 0 C0 29.66, 0 59.32, 0 110 M0 0 C0 33.96, 0 67.92, 0 110" stroke="#000000" stroke-width="1" fill="none"></path></g></g><mask></mask><g stroke-opacity="0.85" fill-opacity="0.85" transform="translate(840.974038585318 561.87915892868) rotate(0 68.51531043587858 7.5)"><text x="0" y="10.740234375" font-family="Helvetica, sans-serif, Segoe UI Emoji" font-size="12px" fill="#000000" text-anchor="start" style="white-space: pre;" direction="ltr" dominant-baseline="alphabetic">Bespoke adapter per pair</text></g><g stroke-linecap="round" transform="translate(700 629.87915892868) rotate(0 50 25)"><path d="M12.5 0 C38.97 0, 65.45 0, 87.5 0 M12.5 0 C29.47 0, 46.44 0, 87.5 0 M87.5 0 C95.83 0, 100 4.17, 100 12.5 M87.5 0 C95.83 0, 100 4.17, 100 12.5 M100 12.5 C100 20.26, 100 28.03, 100 37.5 M100 12.5 C100 21.43, 100 30.36, 100 37.5 M100 37.5 C100 45.83, 95.83 50, 87.5 50 M100 37.5 C100 45.83, 95.83 50, 87.5 50 M87.5 50 C59.24 50, 30.99 50, 12.5 50 M87.5 50 C70.97 50, 54.44 50, 12.5 50 M12.5 50 C4.17 50, 0 45.83, 0 37.5 M12.5 50 C4.17 50, 0 45.83, 0 37.5 M0 37.5 C0 29.62, 0 21.75, 0 12.5 M0 37.5 C0 31.86, 0 26.22, 0 12.5 M0 12.5 C0 4.17, 4.17 0, 12.5 0 M0 12.5 C0 4.17, 4.17 0, 12.5 0" stroke="#000000" stroke-width="1" fill="none"></path></g><g transform="translate(736.8 647.37915892868) rotate(0 13.199999999999989 7.5)"><text x="0" y="10.740234375" font-family="Helvetica, sans-serif, Segoe UI Emoji" font-size="12px" fill="#000000" text-anchor="start" style="white-space: pre;" direction="ltr" dominant-baseline="alphabetic">Lamp</text></g><g stroke-linecap="round" transform="translate(860 629.87915892868) rotate(0 50 25)"><path d="M12.5 0 C34.29 0, 56.07 0, 87.5 0 M12.5 0 C35.83 0, 59.16 0, 87.5 0 M87.5 0 C95.83 0, 100 4.17, 100 12.5 M87.5 0 C95.83 0, 100 4.17, 100 12.5 M100 12.5 C100 20.39, 100 28.27, 100 37.5 M100 12.5 C100 20.98, 100 29.46, 100 37.5 M100 37.5 C100 45.83, 95.83 50, 87.5 50 M100 37.5 C100 45.83, 95.83 50, 87.5 50 M87.5 50 C72.47 50, 57.44 50, 12.5 50 M87.5 50 C59 50, 30.51 50, 12.5 50 M12.5 50 C4.17 50, 0 45.83, 0 37.5 M12.5 50 C4.17 50, 0 45.83, 0 37.5 M0 37.5 C0 30.5, 0 23.5, 0 12.5 M0 37.5 C0 28.73, 0 19.95, 0 12.5 M0 12.5 C0 4.17, 4.17 0, 12.5 0 M0 12.5 C0 4.17, 4.17 0, 12.5 0" stroke="#000000" stroke-width="1" fill="none"></path></g><g transform="translate(890.2 647.37915892868) rotate(0 19.80000000000001 7.5)"><text x="0" y="10.740234375" font-family="Helvetica, sans-serif, Segoe UI Emoji" font-size="12px" fill="#000000" text-anchor="start" style="white-space: pre;" direction="ltr" dominant-baseline="alphabetic">Kettle</text></g><g stroke-linecap="round" transform="translate(1020 629.87915892868) rotate(0 50 25)"><path d="M12.5 0 C32.5 0, 52.51 0, 87.5 0 M12.5 0 C34.18 0, 55.85 0, 87.5 0 M87.5 0 C95.83 0, 100 4.17, 100 12.5 M87.5 0 C95.83 0, 100 4.17, 100 12.5 M100 12.5 C100 21.06, 100 29.62, 100 37.5 M100 12.5 C100 18.74, 100 24.98, 100 37.5 M100 37.5 C100 45.83, 95.83 50, 87.5 50 M100 37.5 C100 45.83, 95.83 50, 87.5 50 M87.5 50 C65.78 50, 44.07 50, 12.5 50 M87.5 50 C67.94 50, 48.37 50, 12.5 50 M12.5 50 C4.17 50, 0 45.83, 0 37.5 M12.5 50 C4.17 50, 0 45.83, 0 37.5 M0 37.5 C0 31.36, 0 25.22, 0 12.5 M0 37.5 C0 28.08, 0 18.66, 0 12.5 M0 12.5 C0 4.17, 4.17 0, 12.5 0 M0 12.5 C0 4.17, 4.17 0, 12.5 0" stroke="#000000" stroke-width="1" fill="none"></path></g><g transform="translate(1043.6 647.37915892868) rotate(0 26.399999999999977 7.5)"><text x="0" y="10.740234375" font-family="Helvetica, sans-serif, Segoe UI Emoji" font-size="12px" fill="#000000" text-anchor="start" style="white-space: pre;" direction="ltr" dominant-baseline="alphabetic">Computer</text></g><g stroke-linecap="round" transform="translate(690 709.87915892868) rotate(0 220 20)"><path d="M0 0 C129.52 0, 259.05 0, 440 0 M0 0 C141.17 0, 282.35 0, 440 0 M440 0 C440 9.48, 440 18.96, 440 40 M440 0 C440 10.14, 440 20.29, 440 40 M440 40 C265.86 40, 91.72 40, 0 40 M440 40 C293.4 40, 146.8 40, 0 40 M0 40 C0 29.25, 0 18.5, 0 0 M0 40 C0 29.97, 0 19.93, 0 0" stroke="#000000" stroke-width="1.4" fill="none"></path></g><g transform="translate(859.95 721.12915892868) rotate(0 58.994140625 8.75)"><text x="0" y="12.5302734375" font-family="Helvetica, sans-serif, Segoe UI Emoji" font-size="14px" fill="#000000" text-anchor="start" style="white-space: pre;" direction="ltr" dominant-baseline="alphabetic">STANDARD PLUG</text></g><g stroke-linecap="round" transform="translate(700 809.87915892868) rotate(0 50 25)"><path d="M12.5 0 C34.07 0, 55.64 0, 87.5 0 M12.5 0 C37.64 0, 62.78 0, 87.5 0 M87.5 0 C95.83 0, 100 4.17, 100 12.5 M87.5 0 C95.83 0, 100 4.17, 100 12.5 M100 12.5 C100 18.12, 100 23.75, 100 37.5 M100 12.5 C100 17.66, 100 22.83, 100 37.5 M100 37.5 C100 45.83, 95.83 50, 87.5 50 M100 37.5 C100 45.83, 95.83 50, 87.5 50 M87.5 50 C61.17 50, 34.84 50, 12.5 50 M87.5 50 C68.42 50, 49.35 50, 12.5 50 M12.5 50 C4.17 50, 0 45.83, 0 37.5 M12.5 50 C4.17 50, 0 45.83, 0 37.5 M0 37.5 C0 29.44, 0 21.39, 0 12.5 M0 37.5 C0 32.02, 0 26.54, 0 12.5 M0 12.5 C0 4.17, 4.17 0, 12.5 0 M0 12.5 C0 4.17, 4.17 0, 12.5 0" stroke="#000000" stroke-width="1" fill="none"></path></g><g transform="translate(726.9 827.37915892868) rotate(0 23.100000000000023 7.5)"><text x="0" y="10.740234375" font-family="Helvetica, sans-serif, Segoe UI Emoji" font-size="12px" fill="#000000" text-anchor="start" style="white-space: pre;" direction="ltr" dominant-baseline="alphabetic">US wall</text></g><g stroke-linecap="round" transform="translate(860 809.87915892868) rotate(0 50 25)"><path d="M12.5 0 C37.58 0, 62.66 0, 87.5 0 M12.5 0 C29.67 0, 46.84 0, 87.5 0 M87.5 0 C95.83 0, 100 4.17, 100 12.5 M87.5 0 C95.83 0, 100 4.17, 100 12.5 M100 12.5 C100 18.87, 100 25.24, 100 37.5 M100 12.5 C100 21.14, 100 29.79, 100 37.5 M100 37.5 C100 45.83, 95.83 50, 87.5 50 M100 37.5 C100 45.83, 95.83 50, 87.5 50 M87.5 50 C60.16 50, 32.81 50, 12.5 50 M87.5 50 C57.63 50, 27.76 50, 12.5 50 M12.5 50 C4.17 50, 0 45.83, 0 37.5 M12.5 50 C4.17 50, 0 45.83, 0 37.5 M0 37.5 C0 30.16, 0 22.81, 0 12.5 M0 37.5 C0 28.83, 0 20.16, 0 12.5 M0 12.5 C0 4.17, 4.17 0, 12.5 0 M0 12.5 C0 4.17, 4.17 0, 12.5 0" stroke="#000000" stroke-width="1" fill="none"></path></g><g transform="translate(886.9 827.37915892868) rotate(0 23.100000000000023 7.5)"><text x="0" y="10.740234375" font-family="Helvetica, sans-serif, Segoe UI Emoji" font-size="12px" fill="#000000" text-anchor="start" style="white-space: pre;" direction="ltr" dominant-baseline="alphabetic">EU wall</text></g><g stroke-linecap="round" transform="translate(1020 809.87915892868) rotate(0 50 25)"><path d="M12.5 0 C38.77 0, 65.04 0, 87.5 0 M12.5 0 C41.35 0, 70.19 0, 87.5 0 M87.5 0 C95.83 0, 100 4.17, 100 12.5 M87.5 0 C95.83 0, 100 4.17, 100 12.5 M100 12.5 C100 18.65, 100 24.81, 100 37.5 M100 12.5 C100 22.31, 100 32.12, 100 37.5 M100 37.5 C100 45.83, 95.83 50, 87.5 50 M100 37.5 C100 45.83, 95.83 50, 87.5 50 M87.5 50 C59.1 50, 30.69 50, 12.5 50 M87.5 50 C66.08 50, 44.65 50, 12.5 50 M12.5 50 C4.17 50, 0 45.83, 0 37.5 M12.5 50 C4.17 50, 0 45.83, 0 37.5 M0 37.5 C0 28.4, 0 19.3, 0 12.5 M0 37.5 C0 30.68, 0 23.86, 0 12.5 M0 12.5 C0 4.17, 4.17 0, 12.5 0 M0 12.5 C0 4.17, 4.17 0, 12.5 0" stroke="#000000" stroke-width="1" fill="none"></path></g><g transform="translate(1046.9 827.37915892868) rotate(0 23.100000000000023 7.5)"><text x="0" y="10.740234375" font-family="Helvetica, sans-serif, Segoe UI Emoji" font-size="12px" fill="#000000" text-anchor="start" style="white-space: pre;" direction="ltr" dominant-baseline="alphabetic">UK wall</text></g><g stroke-linecap="round"><g transform="translate(750 679.87915892868) rotate(0 0 15)"><path d="M0 0 C0 10.49, 0 20.97, 0 30 M0 0 C0 7.32, 0 14.65, 0 30" stroke="#000000" stroke-width="0.9" fill="none"></path></g></g><mask></mask><g stroke-linecap="round"><g transform="translate(910 679.87915892868) rotate(0 0 15)"><path d="M0 0 C0 7.4, 0 14.8, 0 30 M0 0 C0 8.93, 0 17.87, 0 30" stroke="#000000" stroke-width="0.9" fill="none"></path></g></g><mask></mask><g stroke-linecap="round"><g transform="translate(1070 679.87915892868) rotate(0 0 15)"><path d="M0 0 C0 7.27, 0 14.54, 0 30 M0 0 C0 9.29, 0 18.58, 0 30" stroke="#000000" stroke-width="0.9" fill="none"></path></g></g><mask></mask><g stroke-linecap="round"><g transform="translate(750 749.87915892868) rotate(0 0 30)"><path d="M0 0 C0 17.84, 0 35.68, 0 60 M0 0 C0 18.55, 0 37.1, 0 60" stroke="#000000" stroke-width="0.9" fill="none"></path></g></g><mask></mask><g stroke-linecap="round"><g transform="translate(910 749.87915892868) rotate(0 0 30)"><path d="M0 0 C0 15.82, 0 31.65, 0 60 M0 0 C0 14.1, 0 28.2, 0 60" stroke="#000000" stroke-width="0.9" fill="none"></path></g></g><mask></mask><g stroke-linecap="round"><g transform="translate(1070 749.87915892868) rotate(0 0 30)"><path d="M0 0 C0 15.97, 0 31.94, 0 60 M0 0 C0 22.01, 0 44.02, 0 60" stroke="#000000" stroke-width="0.9" fill="none"></path></g></g><mask></mask><g stroke-opacity="0.85" fill-opacity="0.85" transform="translate(861.3743458428427 881.87915892868) rotate(0 49.83211582081867 7.5)"><text x="0" y="10.740234375" font-family="Helvetica, sans-serif, Segoe UI Emoji" font-size="12px" fill="#000000" text-anchor="start" style="white-space: pre;" direction="ltr" dominant-baseline="alphabetic">One plug, any wall</text></g><g transform="translate(690 929.87915892868) rotate(0 200.20000000000005 8.125)"><text x="0" y="11.63525390625" font-family="Helvetica, sans-serif, Segoe UI Emoji" font-size="13px" fill="#000000" text-anchor="start" style="white-space: pre;" direction="ltr" dominant-baseline="alphabetic">The wall and the appliance stop caring about each other.</text></g><g stroke-opacity="0.6" fill-opacity="0.6" transform="translate(1020 979.87915892868) rotate(0 24.75 6.25)"><text x="0" y="8.9501953125" font-family="Helvetica, sans-serif, Segoe UI Emoji" font-size="10px" fill="#000000" text-anchor="start" style="white-space: pre;" direction="ltr" dominant-baseline="alphabetic">Detail B:</text></g><g stroke-opacity="0.6" fill-opacity="0.6" transform="translate(1020 994.87915892868) rotate(0 52.25 6.25)"><text x="0" y="8.9501953125" font-family="Helvetica, sans-serif, Segoe UI Emoji" font-size="10px" fill="#000000" text-anchor="start" style="white-space: pre;" direction="ltr" dominant-baseline="alphabetic">Scale: illustrative</text></g><g stroke-linecap="round" transform="translate(1230 254.87915892868) rotate(0 220 14)"><path d="M0 0 L440 0 L440 28 L0 28" stroke="none" stroke-width="0" fill="#000000"></path><path d="M0 0 C175.9 0, 351.8 0, 440 0 M0 0 C89.87 0, 179.75 0, 440 0 M440 0 C440 8.34, 440 16.69, 440 28 M440 0 C440 9.24, 440 18.48, 440 28 M440 28 C316.96 28, 193.92 28, 0 28 M440 28 C328.53 28, 217.07 28, 0 28 M0 28 C0 21.5, 0 15, 0 0 M0 28 C0 18.83, 0 9.67, 0 0" stroke="#000000" stroke-width="1" fill="none"></path></g><g transform="translate(1365.3 262.00415892868) rotate(0 86.385986328125 6.875)"><text x="0" y="9.84521484375" font-family="Helvetica, sans-serif, Segoe UI Emoji" font-size="11px" fill="#F7F2E8" text-anchor="start" style="white-space: pre;" direction="ltr" dominant-baseline="alphabetic">PANEL C — ODBC / JDBC FOR AI</text></g><g stroke-linecap="round" transform="translate(1240 329.87915892868) rotate(0 50 25)"><path d="M12.5 0 C38.89 0, 65.28 0, 87.5 0 M12.5 0 C40 0, 67.5 0, 87.5 0 M87.5 0 C95.83 0, 100 4.17, 100 12.5 M87.5 0 C95.83 0, 100 4.17, 100 12.5 M100 12.5 C100 19.62, 100 26.74, 100 37.5 M100 12.5 C100 21.49, 100 30.48, 100 37.5 M100 37.5 C100 45.83, 95.83 50, 87.5 50 M100 37.5 C100 45.83, 95.83 50, 87.5 50 M87.5 50 C64.42 50, 41.33 50, 12.5 50 M87.5 50 C59.17 50, 30.85 50, 12.5 50 M12.5 50 C4.17 50, 0 45.83, 0 37.5 M12.5 50 C4.17 50, 0 45.83, 0 37.5 M0 37.5 C0 28.6, 0 19.7, 0 12.5 M0 37.5 C0 30.63, 0 23.76, 0 12.5 M0 12.5 C0 4.17, 4.17 0, 12.5 0 M0 12.5 C0 4.17, 4.17 0, 12.5 0" stroke="#000000" stroke-width="1" fill="none"></path></g><g transform="translate(1273.5 347.37915892868) rotate(0 16.5 7.5)"><text x="0" y="10.740234375" font-family="Helvetica, sans-serif, Segoe UI Emoji" font-size="12px" fill="#000000" text-anchor="start" style="white-space: pre;" direction="ltr" dominant-baseline="alphabetic">App 1</text></g><g stroke-linecap="round" transform="translate(1400 329.87915892868) rotate(0 50 25)"><path d="M12.5 0 C31.34 0, 50.17 0, 87.5 0 M12.5 0 C29.23 0, 45.97 0, 87.5 0 M87.5 0 C95.83 0, 100 4.17, 100 12.5 M87.5 0 C95.83 0, 100 4.17, 100 12.5 M100 12.5 C100 22.26, 100 32.02, 100 37.5 M100 12.5 C100 18.01, 100 23.51, 100 37.5 M100 37.5 C100 45.83, 95.83 50, 87.5 50 M100 37.5 C100 45.83, 95.83 50, 87.5 50 M87.5 50 C65.98 50, 44.45 50, 12.5 50 M87.5 50 C67.34 50, 47.18 50, 12.5 50 M12.5 50 C4.17 50, 0 45.83, 0 37.5 M12.5 50 C4.17 50, 0 45.83, 0 37.5 M0 37.5 C0 29.33, 0 21.17, 0 12.5 M0 37.5 C0 30, 0 22.5, 0 12.5 M0 12.5 C0 4.17, 4.17 0, 12.5 0 M0 12.5 C0 4.17, 4.17 0, 12.5 0" stroke="#000000" stroke-width="1" fill="none"></path></g><g transform="translate(1433.5 347.37915892868) rotate(0 16.5 7.5)"><text x="0" y="10.740234375" font-family="Helvetica, sans-serif, Segoe UI Emoji" font-size="12px" fill="#000000" text-anchor="start" style="white-space: pre;" direction="ltr" dominant-baseline="alphabetic">App 2</text></g><g stroke-linecap="round" transform="translate(1560 329.87915892868) rotate(0 50 25)"><path d="M12.5 0 C32.1 0, 51.7 0, 87.5 0 M12.5 0 C27.9 0, 43.3 0, 87.5 0 M87.5 0 C95.83 0, 100 4.17, 100 12.5 M87.5 0 C95.83 0, 100 4.17, 100 12.5 M100 12.5 C100 17.95, 100 23.41, 100 37.5 M100 12.5 C100 20.49, 100 28.49, 100 37.5 M100 37.5 C100 45.83, 95.83 50, 87.5 50 M100 37.5 C100 45.83, 95.83 50, 87.5 50 M87.5 50 C57.83 50, 28.16 50, 12.5 50 M87.5 50 C63.68 50, 39.87 50, 12.5 50 M12.5 50 C4.17 50, 0 45.83, 0 37.5 M12.5 50 C4.17 50, 0 45.83, 0 37.5 M0 37.5 C0 29.6, 0 21.7, 0 12.5 M0 37.5 C0 31.51, 0 25.53, 0 12.5 M0 12.5 C0 4.17, 4.17 0, 12.5 0 M0 12.5 C0 4.17, 4.17 0, 12.5 0" stroke="#000000" stroke-width="1" fill="none"></path></g><g transform="translate(1593.5 347.37915892868) rotate(0 16.5 7.5)"><text x="0" y="10.740234375" font-family="Helvetica, sans-serif, Segoe UI Emoji" font-size="12px" fill="#000000" text-anchor="start" style="white-space: pre;" direction="ltr" dominant-baseline="alphabetic">App 3</text></g><g stroke-linecap="round" transform="translate(1240 489.87915892868) rotate(0 50 25)"><path d="M12.5 0 C40.87 0, 69.25 0, 87.5 0 M12.5 0 C34.93 0, 57.36 0, 87.5 0 M87.5 0 C95.83 0, 100 4.17, 100 12.5 M87.5 0 C95.83 0, 100 4.17, 100 12.5 M100 12.5 C100 21.89, 100 31.28, 100 37.5 M100 12.5 C100 21.91, 100 31.32, 100 37.5 M100 37.5 C100 45.83, 95.83 50, 87.5 50 M100 37.5 C100 45.83, 95.83 50, 87.5 50 M87.5 50 C58.44 50, 29.38 50, 12.5 50 M87.5 50 C58.84 50, 30.18 50, 12.5 50 M12.5 50 C4.17 50, 0 45.83, 0 37.5 M12.5 50 C4.17 50, 0 45.83, 0 37.5 M0 37.5 C0 28.66, 0 19.81, 0 12.5 M0 37.5 C0 31.55, 0 25.61, 0 12.5 M0 12.5 C0 4.17, 4.17 0, 12.5 0 M0 12.5 C0 4.17, 4.17 0, 12.5 0" stroke="#000000" stroke-width="1" fill="none"></path></g><g transform="translate(1276.8 507.37915892868) rotate(0 13.200000000000045 7.5)"><text x="0" y="10.740234375" font-family="Helvetica, sans-serif, Segoe UI Emoji" font-size="12px" fill="#000000" text-anchor="start" style="white-space: pre;" direction="ltr" dominant-baseline="alphabetic">DB-A</text></g><g stroke-linecap="round" transform="translate(1400 489.87915892868) rotate(0 50 25)"><path d="M12.5 0 C30.78 0, 49.05 0, 87.5 0 M12.5 0 C42.36 0, 72.22 0, 87.5 0 M87.5 0 C95.83 0, 100 4.17, 100 12.5 M87.5 0 C95.83 0, 100 4.17, 100 12.5 M100 12.5 C100 21.18, 100 29.86, 100 37.5 M100 12.5 C100 21.32, 100 30.13, 100 37.5 M100 37.5 C100 45.83, 95.83 50, 87.5 50 M100 37.5 C100 45.83, 95.83 50, 87.5 50 M87.5 50 C63.93 50, 40.36 50, 12.5 50 M87.5 50 C58.75 50, 30 50, 12.5 50 M12.5 50 C4.17 50, 0 45.83, 0 37.5 M12.5 50 C4.17 50, 0 45.83, 0 37.5 M0 37.5 C0 31.87, 0 26.25, 0 12.5 M0 37.5 C0 30.85, 0 24.19, 0 12.5 M0 12.5 C0 4.17, 4.17 0, 12.5 0 M0 12.5 C0 4.17, 4.17 0, 12.5 0" stroke="#000000" stroke-width="1" fill="none"></path></g><g transform="translate(1436.8 507.37915892868) rotate(0 13.200000000000045 7.5)"><text x="0" y="10.740234375" font-family="Helvetica, sans-serif, Segoe UI Emoji" font-size="12px" fill="#000000" text-anchor="start" style="white-space: pre;" direction="ltr" dominant-baseline="alphabetic">DB-B</text></g><g stroke-linecap="round" transform="translate(1560 489.87915892868) rotate(0 50 25)"><path d="M12.5 0 C30.36 0, 48.23 0, 87.5 0 M12.5 0 C27.72 0, 42.94 0, 87.5 0 M87.5 0 C95.83 0, 100 4.17, 100 12.5 M87.5 0 C95.83 0, 100 4.17, 100 12.5 M100 12.5 C100 18.97, 100 25.44, 100 37.5 M100 12.5 C100 19.48, 100 26.45, 100 37.5 M100 37.5 C100 45.83, 95.83 50, 87.5 50 M100 37.5 C100 45.83, 95.83 50, 87.5 50 M87.5 50 C69.64 50, 51.78 50, 12.5 50 M87.5 50 C63.33 50, 39.17 50, 12.5 50 M12.5 50 C4.17 50, 0 45.83, 0 37.5 M12.5 50 C4.17 50, 0 45.83, 0 37.5 M0 37.5 C0 32.1, 0 26.7, 0 12.5 M0 37.5 C0 30.95, 0 24.4, 0 12.5 M0 12.5 C0 4.17, 4.17 0, 12.5 0 M0 12.5 C0 4.17, 4.17 0, 12.5 0" stroke="#000000" stroke-width="1" fill="none"></path></g><g transform="translate(1596.8 507.37915892868) rotate(0 13.200000000000045 7.5)"><text x="0" y="10.740234375" font-family="Helvetica, sans-serif, Segoe UI Emoji" font-size="12px" fill="#000000" text-anchor="start" style="white-space: pre;" direction="ltr" dominant-baseline="alphabetic">DB-C</text></g><g stroke-linecap="round"><g stroke-opacity="0.65" fill-opacity="0.65" transform="translate(1290 379.87915892868) rotate(0 0 55)"><path d="M0 0 C0 24.14, 0 48.27, 0 110 M0 0 C0 33.76, 0 67.52, 0 110" stroke="#000000" stroke-width="1" fill="none"></path></g></g><mask></mask><g stroke-linecap="round"><g stroke-opacity="0.65" fill-opacity="0.65" transform="translate(1290 379.87915892868) rotate(0 80 55)"><path d="M0 0 C61.11 42.02, 122.23 84.03, 160 110 M0 0 C54.45 37.43, 108.9 74.87, 160 110" stroke="#000000" stroke-width="1" fill="none"></path></g></g><mask></mask><g stroke-linecap="round"><g stroke-opacity="0.65" fill-opacity="0.65" transform="translate(1290 379.87915892868) rotate(0 160 55)"><path d="M0 0 C94.15 32.36, 188.3 64.73, 320 110 M0 0 C83.55 28.72, 167.1 57.44, 320 110" stroke="#000000" stroke-width="1" fill="none"></path></g></g><mask></mask><g stroke-linecap="round"><g stroke-opacity="0.65" fill-opacity="0.65" transform="translate(1450 379.87915892868) rotate(0 -80 55)"><path d="M0 0 C-44.48 30.58, -88.96 61.16, -160 110 M0 0 C-51.9 35.68, -103.81 71.37, -160 110" stroke="#000000" stroke-width="1" fill="none"></path></g></g><mask></mask><g stroke-linecap="round"><g stroke-opacity="0.65" fill-opacity="0.65" transform="translate(1450 379.87915892868) rotate(0 0 55)"><path d="M0 0 C0 32.17, 0 64.33, 0 110 M0 0 C0 37.03, 0 74.07, 0 110" stroke="#000000" stroke-width="1" fill="none"></path></g></g><mask></mask><g stroke-linecap="round"><g stroke-opacity="0.65" fill-opacity="0.65" transform="translate(1450 379.87915892868) rotate(0 80 55)"><path d="M0 0 C63.4 43.59, 126.8 87.17, 160 110 M0 0 C52.86 36.34, 105.73 72.69, 160 110" stroke="#000000" stroke-width="1" fill="none"></path></g></g><mask></mask><g stroke-linecap="round"><g stroke-opacity="0.65" fill-opacity="0.65" transform="translate(1610 379.87915892868) rotate(0 -160 55)"><path d="M0 0 C-86.58 29.76, -173.17 59.53, -320 110 M0 0 C-77.15 26.52, -154.31 53.04, -320 110" stroke="#000000" stroke-width="1" fill="none"></path></g></g><mask></mask><g stroke-linecap="round"><g stroke-opacity="0.65" fill-opacity="0.65" transform="translate(1610 379.87915892868) rotate(0 -80 55)"><path d="M0 0 C-46.65 32.07, -93.29 64.14, -160 110 M0 0 C-61.79 42.48, -123.59 84.97, -160 110" stroke="#000000" stroke-width="1" fill="none"></path></g></g><mask></mask><g stroke-linecap="round"><g stroke-opacity="0.65" fill-opacity="0.65" transform="translate(1610 379.87915892868) rotate(0 0 55)"><path d="M0 0 C0 27.35, 0 54.71, 0 110 M0 0 C0 36.15, 0 72.3, 0 110" stroke="#000000" stroke-width="1" fill="none"></path></g></g><mask></mask><g stroke-opacity="0.85" fill-opacity="0.85" transform="translate(1389.2368369738876 561.87915892868) rotate(0 61.657776763786956 7.5)"><text x="0" y="10.740234375" font-family="Helvetica, sans-serif, Segoe UI Emoji" font-size="12px" fill="#000000" text-anchor="start" style="white-space: pre;" direction="ltr" dominant-baseline="alphabetic">9 bespoke connections</text></g><g stroke-linecap="round" transform="translate(1240 629.87915892868) rotate(0 50 25)"><path d="M12.5 0 C40.72 0, 68.93 0, 87.5 0 M12.5 0 C37.5 0, 62.49 0, 87.5 0 M87.5 0 C95.83 0, 100 4.17, 100 12.5 M87.5 0 C95.83 0, 100 4.17, 100 12.5 M100 12.5 C100 19.74, 100 26.98, 100 37.5 M100 12.5 C100 21.72, 100 30.93, 100 37.5 M100 37.5 C100 45.83, 95.83 50, 87.5 50 M100 37.5 C100 45.83, 95.83 50, 87.5 50 M87.5 50 C70.22 50, 52.93 50, 12.5 50 M87.5 50 C70.93 50, 54.36 50, 12.5 50 M12.5 50 C4.17 50, 0 45.83, 0 37.5 M12.5 50 C4.17 50, 0 45.83, 0 37.5 M0 37.5 C0 29.67, 0 21.84, 0 12.5 M0 37.5 C0 27.63, 0 17.77, 0 12.5 M0 12.5 C0 4.17, 4.17 0, 12.5 0 M0 12.5 C0 4.17, 4.17 0, 12.5 0" stroke="#000000" stroke-width="1" fill="none"></path></g><g transform="translate(1273.5 647.37915892868) rotate(0 16.5 7.5)"><text x="0" y="10.740234375" font-family="Helvetica, sans-serif, Segoe UI Emoji" font-size="12px" fill="#000000" text-anchor="start" style="white-space: pre;" direction="ltr" dominant-baseline="alphabetic">App 1</text></g><g stroke-linecap="round" transform="translate(1400 629.87915892868) rotate(0 50 25)"><path d="M12.5 0 C39.78 0, 67.06 0, 87.5 0 M12.5 0 C36.15 0, 59.8 0, 87.5 0 M87.5 0 C95.83 0, 100 4.17, 100 12.5 M87.5 0 C95.83 0, 100 4.17, 100 12.5 M100 12.5 C100 18.02, 100 23.55, 100 37.5 M100 12.5 C100 21.14, 100 29.79, 100 37.5 M100 37.5 C100 45.83, 95.83 50, 87.5 50 M100 37.5 C100 45.83, 95.83 50, 87.5 50 M87.5 50 C72.48 50, 57.46 50, 12.5 50 M87.5 50 C71.5 50, 55.49 50, 12.5 50 M12.5 50 C4.17 50, 0 45.83, 0 37.5 M12.5 50 C4.17 50, 0 45.83, 0 37.5 M0 37.5 C0 29.11, 0 20.71, 0 12.5 M0 37.5 C0 29.22, 0 20.95, 0 12.5 M0 12.5 C0 4.17, 4.17 0, 12.5 0 M0 12.5 C0 4.17, 4.17 0, 12.5 0" stroke="#000000" stroke-width="1" fill="none"></path></g><g transform="translate(1433.5 647.37915892868) rotate(0 16.5 7.5)"><text x="0" y="10.740234375" font-family="Helvetica, sans-serif, Segoe UI Emoji" font-size="12px" fill="#000000" text-anchor="start" style="white-space: pre;" direction="ltr" dominant-baseline="alphabetic">App 2</text></g><g stroke-linecap="round" transform="translate(1560 629.87915892868) rotate(0 50 25)"><path d="M12.5 0 C30.97 0, 49.44 0, 87.5 0 M12.5 0 C30.25 0, 47.99 0, 87.5 0 M87.5 0 C95.83 0, 100 4.17, 100 12.5 M87.5 0 C95.83 0, 100 4.17, 100 12.5 M100 12.5 C100 18.29, 100 24.08, 100 37.5 M100 12.5 C100 19.49, 100 26.47, 100 37.5 M100 37.5 C100 45.83, 95.83 50, 87.5 50 M100 37.5 C100 45.83, 95.83 50, 87.5 50 M87.5 50 C59.77 50, 32.04 50, 12.5 50 M87.5 50 C58.84 50, 30.18 50, 12.5 50 M12.5 50 C4.17 50, 0 45.83, 0 37.5 M12.5 50 C4.17 50, 0 45.83, 0 37.5 M0 37.5 C0 29.65, 0 21.79, 0 12.5 M0 37.5 C0 28.8, 0 20.11, 0 12.5 M0 12.5 C0 4.17, 4.17 0, 12.5 0 M0 12.5 C0 4.17, 4.17 0, 12.5 0" stroke="#000000" stroke-width="1" fill="none"></path></g><g transform="translate(1593.5 647.37915892868) rotate(0 16.5 7.5)"><text x="0" y="10.740234375" font-family="Helvetica, sans-serif, Segoe UI Emoji" font-size="12px" fill="#000000" text-anchor="start" style="white-space: pre;" direction="ltr" dominant-baseline="alphabetic">App 3</text></g><g stroke-linecap="round" transform="translate(1230 709.87915892868) rotate(0 220 20)"><path d="M0 0 C89.34 0, 178.68 0, 440 0 M0 0 C95.97 0, 191.94 0, 440 0 M440 0 C440 12.37, 440 24.74, 440 40 M440 0 C440 11.26, 440 22.52, 440 40 M440 40 C289.31 40, 138.61 40, 0 40 M440 40 C272.26 40, 104.53 40, 0 40 M0 40 C0 24.41, 0 8.82, 0 0 M0 40 C0 27.84, 0 15.68, 0 0" stroke="#000000" stroke-width="1.4" fill="none"></path></g><g transform="translate(1407.65 721.12915892868) rotate(0 42.35000000000002 8.75)"><text x="0" y="12.5302734375" font-family="Helvetica, sans-serif, Segoe UI Emoji" font-size="14px" fill="#000000" text-anchor="start" style="white-space: pre;" direction="ltr" dominant-baseline="alphabetic">ODBC / JDBC</text></g><g stroke-linecap="round" transform="translate(1240 809.87915892868) rotate(0 50 25)"><path d="M12.5 0 C34.38 0, 56.26 0, 87.5 0 M12.5 0 C42.37 0, 72.23 0, 87.5 0 M87.5 0 C95.83 0, 100 4.17, 100 12.5 M87.5 0 C95.83 0, 100 4.17, 100 12.5 M100 12.5 C100 18.41, 100 24.33, 100 37.5 M100 12.5 C100 18.94, 100 25.38, 100 37.5 M100 37.5 C100 45.83, 95.83 50, 87.5 50 M100 37.5 C100 45.83, 95.83 50, 87.5 50 M87.5 50 C62.66 50, 37.83 50, 12.5 50 M87.5 50 C59.39 50, 31.28 50, 12.5 50 M12.5 50 C4.17 50, 0 45.83, 0 37.5 M12.5 50 C4.17 50, 0 45.83, 0 37.5 M0 37.5 C0 29.18, 0 20.87, 0 12.5 M0 37.5 C0 32.11, 0 26.72, 0 12.5 M0 12.5 C0 4.17, 4.17 0, 12.5 0 M0 12.5 C0 4.17, 4.17 0, 12.5 0" stroke="#000000" stroke-width="1" fill="none"></path></g><g transform="translate(1276.8 827.37915892868) rotate(0 13.200000000000045 7.5)"><text x="0" y="10.740234375" font-family="Helvetica, sans-serif, Segoe UI Emoji" font-size="12px" fill="#000000" text-anchor="start" style="white-space: pre;" direction="ltr" dominant-baseline="alphabetic">DB-A</text></g><g stroke-linecap="round" transform="translate(1400 809.87915892868) rotate(0 50 25)"><path d="M12.5 0 C33.23 0, 53.97 0, 87.5 0 M12.5 0 C37.36 0, 62.22 0, 87.5 0 M87.5 0 C95.83 0, 100 4.17, 100 12.5 M87.5 0 C95.83 0, 100 4.17, 100 12.5 M100 12.5 C100 20.11, 100 27.72, 100 37.5 M100 12.5 C100 18.29, 100 24.08, 100 37.5 M100 37.5 C100 45.83, 95.83 50, 87.5 50 M100 37.5 C100 45.83, 95.83 50, 87.5 50 M87.5 50 C70.01 50, 52.53 50, 12.5 50 M87.5 50 C63.06 50, 38.63 50, 12.5 50 M12.5 50 C4.17 50, 0 45.83, 0 37.5 M12.5 50 C4.17 50, 0 45.83, 0 37.5 M0 37.5 C0 31.44, 0 25.38, 0 12.5 M0 37.5 C0 29.95, 0 22.4, 0 12.5 M0 12.5 C0 4.17, 4.17 0, 12.5 0 M0 12.5 C0 4.17, 4.17 0, 12.5 0" stroke="#000000" stroke-width="1" fill="none"></path></g><g transform="translate(1436.8 827.37915892868) rotate(0 13.200000000000045 7.5)"><text x="0" y="10.740234375" font-family="Helvetica, sans-serif, Segoe UI Emoji" font-size="12px" fill="#000000" text-anchor="start" style="white-space: pre;" direction="ltr" dominant-baseline="alphabetic">DB-B</text></g><g stroke-linecap="round" transform="translate(1560 809.87915892868) rotate(0 50 25)"><path d="M12.5 0 C30.44 0, 48.38 0, 87.5 0 M12.5 0 C30.98 0, 49.46 0, 87.5 0 M87.5 0 C95.83 0, 100 4.17, 100 12.5 M87.5 0 C95.83 0, 100 4.17, 100 12.5 M100 12.5 C100 22.2, 100 31.9, 100 37.5 M100 12.5 C100 19.22, 100 25.95, 100 37.5 M100 37.5 C100 45.83, 95.83 50, 87.5 50 M100 37.5 C100 45.83, 95.83 50, 87.5 50 M87.5 50 C58.94 50, 30.38 50, 12.5 50 M87.5 50 C65.56 50, 43.62 50, 12.5 50 M12.5 50 C4.17 50, 0 45.83, 0 37.5 M12.5 50 C4.17 50, 0 45.83, 0 37.5 M0 37.5 C0 31.98, 0 26.45, 0 12.5 M0 37.5 C0 30.5, 0 23.51, 0 12.5 M0 12.5 C0 4.17, 4.17 0, 12.5 0 M0 12.5 C0 4.17, 4.17 0, 12.5 0" stroke="#000000" stroke-width="1" fill="none"></path></g><g transform="translate(1596.8 827.37915892868) rotate(0 13.200000000000045 7.5)"><text x="0" y="10.740234375" font-family="Helvetica, sans-serif, Segoe UI Emoji" font-size="12px" fill="#000000" text-anchor="start" style="white-space: pre;" direction="ltr" dominant-baseline="alphabetic">DB-C</text></g><g stroke-linecap="round"><g transform="translate(1290 679.87915892868) rotate(0 0 15)"><path d="M0 0 C0 6.42, 0 12.83, 0 30 M0 0 C0 9.05, 0 18.1, 0 30" stroke="#000000" stroke-width="0.9" fill="none"></path></g></g><mask></mask><g stroke-linecap="round"><g transform="translate(1450 679.87915892868) rotate(0 0 15)"><path d="M0 0 C0 7.56, 0 15.12, 0 30 M0 0 C0 11.12, 0 22.24, 0 30" stroke="#000000" stroke-width="0.9" fill="none"></path></g></g><mask></mask><g stroke-linecap="round"><g transform="translate(1610 679.87915892868) rotate(0 0 15)"><path d="M0 0 C0 9.79, 0 19.57, 0 30 M0 0 C0 10.88, 0 21.76, 0 30" stroke="#000000" stroke-width="0.9" fill="none"></path></g></g><mask></mask><g stroke-linecap="round"><g transform="translate(1290 749.87915892868) rotate(0 0 30)"><path d="M0 0 C0 19.31, 0 38.61, 0 60 M0 0 C0 17.78, 0 35.56, 0 60" stroke="#000000" stroke-width="0.9" fill="none"></path></g></g><mask></mask><g stroke-linecap="round"><g transform="translate(1450 749.87915892868) rotate(0 0 30)"><path d="M0 0 C0 15.36, 0 30.72, 0 60 M0 0 C0 23.57, 0 47.14, 0 60" stroke="#000000" stroke-width="0.9" fill="none"></path></g></g><mask></mask><g stroke-linecap="round"><g transform="translate(1610 749.87915892868) rotate(0 0 30)"><path d="M0 0 C0 16.36, 0 32.71, 0 60 M0 0 C0 14.04, 0 28.09, 0 60" stroke="#000000" stroke-width="0.9" fill="none"></path></g></g><mask></mask><g stroke-opacity="0.85" fill-opacity="0.85" transform="translate(1400.1503427333446 881.501043318421) rotate(0 52.87458214872697 7.5)"><text x="0" y="10.740234375" font-family="Helvetica, sans-serif, Segoe UI Emoji" font-size="12px" fill="#000000" text-anchor="start" style="white-space: pre;" direction="ltr" dominant-baseline="alphabetic">1 common interface</text></g><g transform="translate(1230 929.87915892868) rotate(0 207.35000000000002 8.125)"><text x="0" y="11.63525390625" font-family="Helvetica, sans-serif, Segoe UI Emoji" font-size="13px" fill="#000000" text-anchor="start" style="white-space: pre;" direction="ltr" dominant-baseline="alphabetic">MCP is this — for AI assistants and your business systems.</text></g><g stroke-opacity="0.6" fill-opacity="0.6" transform="translate(1560 979.87915892868) rotate(0 24.75 6.25)"><text x="0" y="8.9501953125" font-family="Helvetica, sans-serif, Segoe UI Emoji" font-size="10px" fill="#000000" text-anchor="start" style="white-space: pre;" direction="ltr" dominant-baseline="alphabetic">Detail C:</text></g><g stroke-opacity="0.6" fill-opacity="0.6" transform="translate(1560 994.87915892868) rotate(0 52.25 6.25)"><text x="0" y="8.9501953125" font-family="Helvetica, sans-serif, Segoe UI Emoji" font-size="10px" fill="#000000" text-anchor="start" style="white-space: pre;" direction="ltr" dominant-baseline="alphabetic">Scale: illustrative</text></g><g stroke-linecap="round"><g transform="translate(130 1109.87915892868) rotate(0 780 0)"><path d="M0 0 C318.04 0, 636.07 0, 1560 0 M0 0 C421.22 0, 842.43 0, 1560 0" stroke="#000000" stroke-width="0.6" fill="none"></path></g></g><mask></mask><g stroke-opacity="0.7" fill-opacity="0.7" transform="translate(130 1139.87915892868) rotate(0 177.998046875 6.25)"><text x="0" y="8.9501953125" font-family="Helvetica, sans-serif, Segoe UI Emoji" font-size="10px" fill="#000000" text-anchor="start" style="white-space: pre;" direction="ltr" dominant-baseline="alphabetic">EXECUTIVE BRIEF  ·  MODEL CONTEXT PROTOCOL  ·  THREE ANALOGIES</text></g><g stroke-opacity="0.7" fill-opacity="0.7" transform="translate(1630 1139.87915892868) rotate(0 22 6.25)"><text x="0" y="8.9501953125" font-family="Helvetica, sans-serif, Segoe UI Emoji" font-size="10px" fill="#000000" text-anchor="start" style="white-space: pre;" direction="ltr" dominant-baseline="alphabetic">Exec . 1</text></g></svg>