<?xml version="1.0" standalone="no"?>
<!DOCTYPE svg PUBLIC "-//W3C//DTD SVG 1.1//EN" "http://www.w3.org/Graphics/SVG/1.1/DTD/svg11.dtd">
<svg version="1.1" xmlns="http://www.w3.org/2000/svg" viewBox="0 0 1820 1220" width="1820" height="1220"><!-- svg-source:excalidraw --><metadata></metadata><defs><style class="style-fonts">
      </style></defs><rect x="0" y="0" width="1820" height="1220" fill="#F7F2E8"></rect><g stroke-linecap="round" transform="translate(10 10) rotate(0 900 600)"><path d="M0 0 L1800 0 L1800 1200 L0 1200" stroke="none" stroke-width="0" fill="#F7F2E8"></path><path d="M0 0 C475.02 0, 950.04 0, 1800 0 M0 0 C544.08 0, 1088.17 0, 1800 0 M1800 0 C1800 374.6, 1800 749.2, 1800 1200 M1800 0 C1800 294.11, 1800 588.21, 1800 1200 M1800 1200 C1126.46 1200, 452.92 1200, 0 1200 M1800 1200 C1393.25 1200, 986.49 1200, 0 1200 M0 1200 C0 955.33, 0 710.66, 0 0 M0 1200 C0 879.28, 0 558.55, 0 0" stroke="#F7F2E8" stroke-width="1" fill="none"></path></g><g transform="translate(147.63908824907702 70.23960494572094) rotate(0 92.4 7.5)"><text x="0" y="10.740234375" font-family="Helvetica, sans-serif, Segoe UI Emoji" font-size="12px" fill="#000000" text-anchor="start" style="white-space: pre;" direction="ltr" dominant-baseline="alphabetic">EXECUTIVE BRIEF / SECTION 04</text></g><g transform="translate(147.63908824907702 105.23960494572094) rotate(0 207.89999999999998 22.5)"><text x="0" y="32.220703125" font-family="Helvetica, sans-serif, Segoe UI Emoji" font-size="36px" fill="#000000" text-anchor="start" style="white-space: pre;" direction="ltr" dominant-baseline="alphabetic">The question changes.</text></g><g stroke-opacity="0.7" fill-opacity="0.7" transform="translate(147.63908824907702 158.23960494572094) rotate(0 400.125 9.375)"><text x="0" y="13.42529296875" font-family="Helvetica, sans-serif, Segoe UI Emoji" font-size="15px" fill="#000000" text-anchor="start" style="white-space: pre;" direction="ltr" dominant-baseline="alphabetic">From 'when will IT ship internal AI?' to 'what should we connect next — and how do we govern it?'</text></g><g stroke-linecap="round" transform="translate(1527.639088249077 70.23960494572094) rotate(0 90 22)"><path d="M0 0 L180 0 L180 44 L0 44" stroke="none" stroke-width="0" fill="#E03A2A"></path><path d="M0 0 C53.04 0, 106.07 0, 180 0 M0 0 C70.66 0, 141.32 0, 180 0 M180 0 C180 17.47, 180 34.94, 180 44 M180 0 C180 17.34, 180 34.67, 180 44 M180 44 C131.77 44, 83.54 44, 0 44 M180 44 C138.73 44, 97.47 44, 0 44 M0 44 C0 29.98, 0 15.97, 0 0 M0 44 C0 34.95, 0 25.91, 0 0" stroke="#E03A2A" stroke-width="1" fill="none"></path></g><g transform="translate(1582.989088249077 83.48960494572094) rotate(0 34.64999999999998 8.75)"><text x="0" y="12.5302734375" font-family="Helvetica, sans-serif, Segoe UI Emoji" font-size="14px" fill="#F7F2E8" text-anchor="start" style="white-space: pre;" direction="ltr" dominant-baseline="alphabetic">EXEC . 04</text></g><g stroke-linecap="round"><g transform="translate(147.63908824907702 215.23960494572094) rotate(0 780 0)"><path d="M0 0 C502 0, 1004 0, 1560 0 M0 0 C419.27 0, 838.55 0, 1560 0" stroke="#000000" stroke-width="1" fill="none"></path></g></g><mask></mask><g stroke-linecap="round"><g stroke-opacity="0.5" fill-opacity="0.5" transform="translate(927.6390882490771 240.23960494572094) rotate(0 0 385)"><path d="M0 0 C0 202.99, 0 405.99, 0 770 M0 0 C0 305.1, 0 610.19, 0 770" stroke="#000000" stroke-width="0.6" fill="none"></path></g></g><mask></mask><g stroke-linecap="round" transform="translate(150.31486949907702 239.88413619572094) rotate(0 160 14)"><path d="M0 0 L320 0 L320 28 L0 28" stroke="none" stroke-width="0" fill="#000000"></path><path d="M0 0 C112.9 0, 225.8 0, 320 0 M0 0 C93.06 0, 186.12 0, 320 0 M320 0 C320 6.64, 320 13.28, 320 28 M320 0 C320 8.92, 320 17.84, 320 28 M320 28 C228.63 28, 137.26 28, 0 28 M320 28 C204.59 28, 89.18 28, 0 28 M0 28 C0 19.51, 0 11.02, 0 0 M0 28 C0 16.96, 0 5.93, 0 0" stroke="#000000" stroke-width="1" fill="none"></path></g><g transform="translate(231.11486949907703 247.38413619572094) rotate(0 86.572265625 7.5)"><text x="0" y="10.740234375" font-family="Helvetica, sans-serif, Segoe UI Emoji" font-size="12px" fill="#F7F2E8" text-anchor="start" style="white-space: pre;" direction="ltr" dominant-baseline="alphabetic">DETAIL A — PROJECT MODEL</text></g><g stroke-linecap="round" transform="translate(312.8347857883636 380.23960494572094) rotate(0 216.2793974968684 120)"><path d="M0 0 C157.62 0, 315.24 0, 432.56 0 M0 0 C155.61 0, 311.23 0, 432.56 0 M432.56 0 C432.56 67.14, 432.56 134.28, 432.56 240 M432.56 0 C432.56 59.02, 432.56 118.05, 432.56 240 M432.56 240 C326.67 240, 220.78 240, 0 240 M432.56 240 C288.88 240, 145.2 240, 0 240 M0 240 C0 149.16, 0 58.32, 0 0 M0 240 C0 157.87, 0 75.74, 0 0" stroke="#000000" stroke-width="1.8" fill="none"></path></g><g transform="translate(418.0485995737935 487.73960494572094) rotate(0 109.5904886752835 12.5)"><text x="0" y="17.900390625" font-family="Helvetica, sans-serif, Segoe UI Emoji" font-size="20px" fill="#000000" text-anchor="start" style="white-space: pre;" direction="ltr" dominant-baseline="alphabetic">Internal AI Assistant (v1)</text></g><g stroke-linecap="round" transform="translate(134.71428495945796 413.96624315437157) rotate(0 60 25)"><path d="M0 0 C28.18 0, 56.36 0, 120 0 M0 0 C37.1 0, 74.21 0, 120 0 M120 0 C120 19.33, 120 38.66, 120 50 M120 0 C120 13.59, 120 27.17, 120 50 M120 50 C85.35 50, 50.7 50, 0 50 M120 50 C80.49 50, 40.98 50, 0 50 M0 50 C0 38.88, 0 27.76, 0 0 M0 50 C0 32.83, 0 15.65, 0 0" stroke="#000000" stroke-width="1" fill="none"></path></g><g transform="translate(166.11428495945796 430.84124315437157) rotate(0 26.01904296875 8.125)"><text x="0" y="11.63525390625" font-family="Helvetica, sans-serif, Segoe UI Emoji" font-size="13px" fill="#000000" text-anchor="start" style="white-space: pre;" direction="ltr" dominant-baseline="alphabetic">Engineer</text></g><g stroke-linecap="round" transform="translate(134.71428495945796 538.9662431543716) rotate(0 60 25)"><path d="M0 0 C39.86 0, 79.72 0, 120 0 M0 0 C39.38 0, 78.77 0, 120 0 M120 0 C120 18.41, 120 36.82, 120 50 M120 0 C120 13.15, 120 26.3, 120 50 M120 50 C80.14 50, 40.28 50, 0 50 M120 50 C77.58 50, 35.16 50, 0 50 M0 50 C0 30.43, 0 10.86, 0 0 M0 50 C0 31.58, 0 13.16, 0 0" stroke="#000000" stroke-width="1" fill="none"></path></g><g transform="translate(169.68928495945795 555.8412431543716) rotate(0 21.3154296875 8.125)"><text x="0" y="11.63525390625" font-family="Helvetica, sans-serif, Segoe UI Emoji" font-size="13px" fill="#000000" text-anchor="start" style="white-space: pre;" direction="ltr" dominant-baseline="alphabetic">Analyst</text></g><g stroke-linecap="round" transform="translate(777.6390882490771 495.23960494572094) rotate(0 60 25)"><path d="M0 0 C42.22 0, 84.45 0, 120 0 M0 0 C35.07 0, 70.13 0, 120 0 M120 0 C120 17.38, 120 34.77, 120 50 M120 0 C120 11.11, 120 22.22, 120 50 M120 50 C76.84 50, 33.68 50, 0 50 M120 50 C75.66 50, 31.32 50, 0 50 M0 50 C0 35.26, 0 20.52, 0 0 M0 50 C0 31.92, 0 13.84, 0 0" stroke="#000000" stroke-width="1" fill="none"></path></g><g transform="translate(819.7640882490771 512.1146049457209) rotate(0 16.259521484375 8.125)"><text x="0" y="11.63525390625" font-family="Helvetica, sans-serif, Segoe UI Emoji" font-size="13px" fill="#000000" text-anchor="start" style="white-space: pre;" direction="ltr" dominant-baseline="alphabetic">Sales</text></g><g stroke-linecap="round"><g stroke-opacity="0.75" fill-opacity="0.75" transform="translate(255.6355826360912 438.37232484081864) rotate(0 28.53552534409296 -0.3413416354141532)"><path d="M0 0 C13.16 -0.16, 26.31 -0.31, 57.07 -0.68" stroke="#000000" stroke-width="1.5" fill="none" stroke-dasharray="1.5 7"></path></g></g><mask></mask><g stroke-linecap="round"><g stroke-opacity="0.75" fill-opacity="0.75" transform="translate(256.15417472451065 563.3752220033239) rotate(0 28.549210485109356 0.031868787556504685)"><path d="M0 0 C13.8 0.02, 27.6 0.03, 57.1 0.06" stroke="#000000" stroke-width="1.5" fill="none" stroke-dasharray="1.5 7"></path></g></g><mask></mask><g stroke-linecap="round"><g stroke-opacity="0.75" fill-opacity="0.75" transform="translate(747.6390882490771 520.2396049457209) rotate(0 15 0)"><path d="M0 0 C10.03 0, 20.06 0, 30 0" stroke="#000000" stroke-width="1.5" fill="none" stroke-dasharray="1.5 7"></path></g></g><mask></mask><g stroke-opacity="0.85" fill-opacity="0.85" transform="translate(781.1168565004023 576.2979408067636) rotate(0 47.687255859375 6.875)"><text x="0" y="9.84521484375" font-family="Helvetica, sans-serif, Segoe UI Emoji" font-size="11px" fill="#000000" text-anchor="start" style="white-space: pre;" direction="ltr" dominant-baseline="alphabetic">Waiting for delivery.</text></g><g stroke-linecap="round"><g stroke-opacity="0.7" fill-opacity="0.7" transform="translate(871.514801407443 575.1847702158504) rotate(0 0 -14.257628248463845)"><path d="M0 0 C0 -8.2, 0 -16.4, 0 -28.52 M0 0 C0 -7.93, 0 -15.87, 0 -28.52" stroke="#000000" stroke-width="1" fill="none"></path></g></g><mask></mask><g stroke-linecap="round" transform="translate(869.5218667076458 543.6652736818371) rotate(0 2 2)"><path d="M4 2 C4 2.12, 3.99 2.23, 3.97 2.35 C3.95 2.46, 3.92 2.58, 3.88 2.68 C3.84 2.79, 3.79 2.9, 3.73 3 C3.67 3.1, 3.61 3.2, 3.53 3.29 C3.46 3.37, 3.37 3.46, 3.29 3.53 C3.2 3.61, 3.1 3.67, 3 3.73 C2.9 3.79, 2.79 3.84, 2.68 3.88 C2.58 3.92, 2.46 3.95, 2.35 3.97 C2.23 3.99, 2.12 4, 2 4 C1.88 4, 1.77 3.99, 1.65 3.97 C1.54 3.95, 1.42 3.92, 1.32 3.88 C1.21 3.84, 1.1 3.79, 1 3.73 C0.9 3.67, 0.8 3.61, 0.71 3.53 C0.63 3.46, 0.54 3.37, 0.47 3.29 C0.39 3.2, 0.33 3.1, 0.27 3 C0.21 2.9, 0.16 2.79, 0.12 2.68 C0.08 2.58, 0.05 2.46, 0.03 2.35 C0.01 2.23, 0 2.12, 0 2 C0 1.88, 0.01 1.77, 0.03 1.65 C0.05 1.54, 0.08 1.42, 0.12 1.32 C0.16 1.21, 0.21 1.1, 0.27 1 C0.33 0.9, 0.39 0.8, 0.47 0.71 C0.54 0.63, 0.63 0.54, 0.71 0.47 C0.8 0.39, 0.9 0.33, 1 0.27 C1.1 0.21, 1.21 0.16, 1.32 0.12 C1.42 0.08, 1.54 0.05, 1.65 0.03 C1.77 0.01, 1.88 0, 2 0 C2.12 0, 2.23 0.01, 2.35 0.03 C2.46 0.05, 2.58 0.08, 2.68 0.12 C2.79 0.16, 2.9 0.21, 3 0.27 C3.1 0.33, 3.2 0.39, 3.29 0.47 C3.37 0.54, 3.46 0.63, 3.53 0.71 C3.61 0.8, 3.67 0.9, 3.73 1 C3.79 1.1, 3.84 1.21, 3.88 1.32 C3.92 1.42, 3.95 1.54, 3.97 1.65 C3.99 1.77, 3.99 1.94, 4 2 C4.01 2.06, 4.01 1.94, 4 2" stroke="none" stroke-width="0" fill="#E03A2A"></path><path d="M4 2 C4 2.12, 3.99 2.23, 3.97 2.35 C3.95 2.46, 3.92 2.58, 3.88 2.68 C3.84 2.79, 3.79 2.9, 3.73 3 C3.67 3.1, 3.61 3.2, 3.53 3.29 C3.46 3.37, 3.37 3.46, 3.29 3.53 C3.2 3.61, 3.1 3.67, 3 3.73 C2.9 3.79, 2.79 3.84, 2.68 3.88 C2.58 3.92, 2.46 3.95, 2.35 3.97 C2.23 3.99, 2.12 4, 2 4 C1.88 4, 1.77 3.99, 1.65 3.97 C1.54 3.95, 1.42 3.92, 1.32 3.88 C1.21 3.84, 1.1 3.79, 1 3.73 C0.9 3.67, 0.8 3.61, 0.71 3.53 C0.63 3.46, 0.54 3.37, 0.47 3.29 C0.39 3.2, 0.33 3.1, 0.27 3 C0.21 2.9, 0.16 2.79, 0.12 2.68 C0.08 2.58, 0.05 2.46, 0.03 2.35 C0.01 2.23, 0 2.12, 0 2 C0 1.88, 0.01 1.77, 0.03 1.65 C0.05 1.54, 0.08 1.42, 0.12 1.32 C0.16 1.21, 0.21 1.1, 0.27 1 C0.33 0.9, 0.39 0.8, 0.47 0.71 C0.54 0.63, 0.63 0.54, 0.71 0.47 C0.8 0.39, 0.9 0.33, 1 0.27 C1.1 0.21, 1.21 0.16, 1.32 0.12 C1.42 0.08, 1.54 0.05, 1.65 0.03 C1.77 0.01, 1.88 0, 2 0 C2.12 0, 2.23 0.01, 2.35 0.03 C2.46 0.05, 2.58 0.08, 2.68 0.12 C2.79 0.16, 2.9 0.21, 3 0.27 C3.1 0.33, 3.2 0.39, 3.29 0.47 C3.37 0.54, 3.46 0.63, 3.53 0.71 C3.61 0.8, 3.67 0.9, 3.73 1 C3.79 1.1, 3.84 1.21, 3.88 1.32 C3.92 1.42, 3.95 1.54, 3.97 1.65 C3.99 1.77, 3.99 1.94, 4 2 C4.01 2.06, 4.01 1.94, 4 2" stroke="#E03A2A" stroke-width="1" fill="none"></path></g><g transform="translate(167.63908824907702 820.2396049457209) rotate(0 174.70947265625 8.75)"><text x="0" y="12.5302734375" font-family="Helvetica, sans-serif, Segoe UI Emoji" font-size="14px" fill="#000000" text-anchor="start" style="white-space: pre;" direction="ltr" dominant-baseline="alphabetic">One project. One owner. One date. Everyone else waits.</text></g><g stroke-opacity="0.6" fill-opacity="0.6" transform="translate(767.6390882490771 880.2396049457209) rotate(0 57.47500000000002 6.875)"><text x="0" y="9.84521484375" font-family="Helvetica, sans-serif, Segoe UI Emoji" font-size="11px" fill="#000000" text-anchor="start" style="white-space: pre;" direction="ltr" dominant-baseline="alphabetic">Scale: illustrative</text></g><g stroke-linecap="round" transform="translate(967.6390882490771 240.23960494572094) rotate(0 160 14)"><path d="M0 0 L320 0 L320 28 L0 28" stroke="none" stroke-width="0" fill="#E03A2A"></path><path d="M0 0 C64.36 0, 128.72 0, 320 0 M0 0 C100.22 0, 200.44 0, 320 0 M320 0 C320 7.49, 320 14.99, 320 28 M320 0 C320 8.36, 320 16.72, 320 28 M320 28 C195.26 28, 70.53 28, 0 28 M320 28 C227.33 28, 134.67 28, 0 28 M0 28 C0 21.79, 0 15.58, 0 0 M0 28 C0 19.31, 0 10.62, 0 0" stroke="#E03A2A" stroke-width="1" fill="none"></path></g><g transform="translate(1045.139088249077 247.73960494572094) rotate(0 92.572265625 7.5)"><text x="0" y="10.740234375" font-family="Helvetica, sans-serif, Segoe UI Emoji" font-size="12px" fill="#F7F2E8" text-anchor="start" style="white-space: pre;" direction="ltr" dominant-baseline="alphabetic">DETAIL B — EMERGENT MODEL</text></g><g stroke-linecap="round" transform="translate(967.6390882490771 340.23960494572094) rotate(0 70 25)"><path d="M0 0 C35.56 0, 71.11 0, 140 0 M0 0 C38.9 0, 77.8 0, 140 0 M140 0 C140 15.39, 140 30.78, 140 50 M140 0 C140 18.79, 140 37.59, 140 50 M140 50 C87.69 50, 35.39 50, 0 50 M140 50 C106.57 50, 73.13 50, 0 50 M0 50 C0 39.33, 0 28.67, 0 0 M0 50 C0 35.17, 0 20.33, 0 0" stroke="#000000" stroke-width="1" fill="none"></path></g><g transform="translate(1009.0390882490769 357.11460494572094) rotate(0 28.599999999999966 8.125)"><text x="0" y="11.63525390625" font-family="Helvetica, sans-serif, Segoe UI Emoji" font-size="13px" fill="#000000" text-anchor="start" style="white-space: pre;" direction="ltr" dominant-baseline="alphabetic">Engineer</text></g><g stroke-linecap="round" transform="translate(967.6390882490771 460.23960494572094) rotate(0 70 25)"><path d="M0 0 C33.27 0, 66.54 0, 140 0 M0 0 C49.72 0, 99.44 0, 140 0 M140 0 C140 19.15, 140 38.31, 140 50 M140 0 C140 17.04, 140 34.08, 140 50 M140 50 C84.82 50, 29.65 50, 0 50 M140 50 C84.39 50, 28.79 50, 0 50 M0 50 C0 32.22, 0 14.44, 0 0 M0 50 C0 31.05, 0 12.09, 0 0" stroke="#000000" stroke-width="1" fill="none"></path></g><g transform="translate(1012.614088249077 477.11460494572094) rotate(0 25.025000000000034 8.125)"><text x="0" y="11.63525390625" font-family="Helvetica, sans-serif, Segoe UI Emoji" font-size="13px" fill="#000000" text-anchor="start" style="white-space: pre;" direction="ltr" dominant-baseline="alphabetic">Analyst</text></g><g stroke-linecap="round" transform="translate(967.6390882490771 580.2396049457209) rotate(0 70 25)"><path d="M0 0 C52.11 0, 104.23 0, 140 0 M0 0 C33.89 0, 67.77 0, 140 0 M140 0 C140 15.5, 140 31, 140 50 M140 0 C140 14.93, 140 29.86, 140 50 M140 50 C85.06 50, 30.11 50, 0 50 M140 50 C97.15 50, 54.31 50, 0 50 M0 50 C0 34.19, 0 18.38, 0 0 M0 50 C0 38.95, 0 27.9, 0 0" stroke="#000000" stroke-width="1" fill="none"></path></g><g transform="translate(1019.7640882490771 597.1146049457209) rotate(0 17.875 8.125)"><text x="0" y="11.63525390625" font-family="Helvetica, sans-serif, Segoe UI Emoji" font-size="13px" fill="#000000" text-anchor="start" style="white-space: pre;" direction="ltr" dominant-baseline="alphabetic">Sales</text></g><g stroke-linecap="round" transform="translate(1207.639088249077 340.23960494572094) rotate(0 100 25)"><path d="M0 0 C67.34 0, 134.69 0, 200 0 M0 0 C68.82 0, 137.63 0, 200 0 M200 0 C200 16.66, 200 33.32, 200 50 M200 0 C200 12.33, 200 24.66, 200 50 M200 50 C134.18 50, 68.36 50, 0 50 M200 50 C134.93 50, 69.86 50, 0 50 M0 50 C0 35.26, 0 20.53, 0 0 M0 50 C0 30.59, 0 11.18, 0 0" stroke="#000000" stroke-width="1" fill="none"></path></g><g transform="translate(1264.549367360709 477.73960494572094) rotate(0 43.089720888368106 7.5)"><text x="0" y="10.740234375" font-family="Helvetica, sans-serif, Segoe UI Emoji" font-size="12px" fill="#000000" text-anchor="start" style="white-space: pre;" direction="ltr" dominant-baseline="alphabetic">Claude Desktop</text></g><g stroke-linecap="round" transform="translate(1207.639088249077 460.23960494572094) rotate(0 100 25)"><path d="M0 0 C59.59 0, 119.19 0, 200 0 M0 0 C77.61 0, 155.22 0, 200 0 M200 0 C200 17.27, 200 34.55, 200 50 M200 0 C200 10.85, 200 21.7, 200 50 M200 50 C157.72 50, 115.43 50, 0 50 M200 50 C138.52 50, 77.04 50, 0 50 M0 50 C0 35.42, 0 20.83, 0 0 M0 50 C0 33.1, 0 16.19, 0 0" stroke="#000000" stroke-width="1" fill="none"></path></g><g transform="translate(1256.7205484683236 357.1214637873097) rotate(0 50.91853978075358 7.5)"><text x="0" y="10.740234375" font-family="Helvetica, sans-serif, Segoe UI Emoji" font-size="12px" fill="#000000" text-anchor="start" style="white-space: pre;" direction="ltr" dominant-baseline="alphabetic">Code-editor copilot</text></g><g stroke-linecap="round" transform="translate(1207.639088249077 580.2396049457209) rotate(0 100 25)"><path d="M0 0 C49.4 0, 98.81 0, 200 0 M0 0 C47.11 0, 94.21 0, 200 0 M200 0 C200 18.81, 200 37.62, 200 50 M200 0 C200 18.86, 200 37.72, 200 50 M200 50 C144.46 50, 88.91 50, 0 50 M200 50 C156.41 50, 112.81 50, 0 50 M0 50 C0 37.88, 0 25.76, 0 0 M0 50 C0 39.55, 0 29.1, 0 0" stroke="#000000" stroke-width="1" fill="none"></path></g><g transform="translate(1265.875136931496 597.7396049457209) rotate(0 41.763951317581245 7.5)"><text x="0" y="10.740234375" font-family="Helvetica, sans-serif, Segoe UI Emoji" font-size="12px" fill="#000000" text-anchor="start" style="white-space: pre;" direction="ltr" dominant-baseline="alphabetic">Internal chatbot</text></g><g stroke-linecap="round" transform="translate(1507.639088249077 340.23960494572094) rotate(0 90 25)"><path d="M0 0 C39.42 0, 78.85 0, 180 0 M0 0 C60.5 0, 120.99 0, 180 0 M180 0 C180 13.33, 180 26.65, 180 50 M180 0 C180 10.83, 180 21.66, 180 50 M180 50 C123.67 50, 67.34 50, 0 50 M180 50 C141.19 50, 102.38 50, 0 50 M0 50 C0 30.06, 0 10.13, 0 0 M0 50 C0 32.3, 0 14.6, 0 0" stroke="#000000" stroke-width="1" fill="none"></path></g><g transform="translate(1531.639088249077 357.73960494572094) rotate(0 66 7.5)"><text x="0" y="10.740234375" font-family="Helvetica, sans-serif, Segoe UI Emoji" font-size="12px" fill="#000000" text-anchor="start" style="white-space: pre;" direction="ltr" dominant-baseline="alphabetic">Warehouse MCP server</text></g><g stroke-linecap="round" transform="translate(1507.639088249077 460.23960494572094) rotate(0 90 25)"><path d="M0 0 C38.77 0, 77.54 0, 180 0 M0 0 C57.67 0, 115.35 0, 180 0 M180 0 C180 10.16, 180 20.31, 180 50 M180 0 C180 18.37, 180 36.73, 180 50 M180 50 C115.39 50, 50.77 50, 0 50 M180 50 C133.74 50, 87.48 50, 0 50 M0 50 C0 31.61, 0 13.22, 0 0 M0 50 C0 35.74, 0 21.49, 0 0" stroke="#000000" stroke-width="1" fill="none"></path></g><g transform="translate(1551.439088249077 477.73960494572094) rotate(0 46.200000000000045 7.5)"><text x="0" y="10.740234375" font-family="Helvetica, sans-serif, Segoe UI Emoji" font-size="12px" fill="#000000" text-anchor="start" style="white-space: pre;" direction="ltr" dominant-baseline="alphabetic">CRM MCP server</text></g><g stroke-linecap="round" transform="translate(1507.639088249077 580.2396049457209) rotate(0 90 25)"><path d="M0 0 C69.12 0, 138.24 0, 180 0 M0 0 C54.86 0, 109.72 0, 180 0 M180 0 C180 17.69, 180 35.38, 180 50 M180 0 C180 19.22, 180 38.43, 180 50 M180 50 C115.42 50, 50.84 50, 0 50 M180 50 C134.09 50, 88.19 50, 0 50 M0 50 C0 34.88, 0 19.75, 0 0 M0 50 C0 37.7, 0 25.4, 0 0" stroke="#000000" stroke-width="1" fill="none"></path></g><g transform="translate(1548.139088249077 597.7396049457209) rotate(0 49.5 7.5)"><text x="0" y="10.740234375" font-family="Helvetica, sans-serif, Segoe UI Emoji" font-size="12px" fill="#000000" text-anchor="start" style="white-space: pre;" direction="ltr" dominant-baseline="alphabetic">Docs MCP server</text></g><g stroke-linecap="round"><g transform="translate(1107.639088249077 365.23960494572094) rotate(0 50 0)"><path d="M0 0 C24.61 0, 49.21 0, 100 0 M0 0 C31.82 0, 63.65 0, 100 0" stroke="#000000" stroke-width="0.9" fill="none"></path></g></g><mask></mask><g stroke-linecap="round"><g transform="translate(1107.639088249077 485.23960494572094) rotate(0 50 0)"><path d="M0 0 C38.99 0, 77.98 0, 100 0 M0 0 C35.71 0, 71.42 0, 100 0" stroke="#000000" stroke-width="0.9" fill="none"></path></g></g><mask></mask><g stroke-linecap="round"><g transform="translate(1107.639088249077 605.2396049457209) rotate(0 50 0)"><path d="M0 0 C27.01 0, 54.01 0, 100 0 M0 0 C32.96 0, 65.92 0, 100 0" stroke="#000000" stroke-width="0.9" fill="none"></path></g></g><mask></mask><g stroke-linecap="round"><g stroke-opacity="0.85" fill-opacity="0.85" transform="translate(1407.6892150824294 365.23960494572094) rotate(0 50 0)"><path d="M0 0 C24.71 0, 49.42 0, 100 0 M0 0 C25.94 0, 51.89 0, 100 0" stroke="#000000" stroke-width="1" fill="none"></path></g></g><mask></mask><g stroke-linecap="round"><g stroke-opacity="0.85" fill-opacity="0.85" transform="translate(1407.6892150824294 365.23960494572094) rotate(0 50 60)"><path d="M0 0 C24.95 29.94, 49.9 59.88, 100 120 M0 0 C29.77 35.72, 59.54 71.45, 100 120" stroke="#000000" stroke-width="1" fill="none"></path></g></g><mask></mask><g stroke-linecap="round"><g stroke-opacity="0.85" fill-opacity="0.85" transform="translate(1407.639088249077 365.23960494572094) rotate(0 50 120)"><path d="M0 0 C24.95 59.87, 49.89 119.74, 100 240 M0 0 C21.06 50.54, 42.12 101.08, 100 240" stroke="#000000" stroke-width="1" fill="none"></path></g></g><mask></mask><g stroke-linecap="round"><g stroke-opacity="0.85" fill-opacity="0.85" transform="translate(1407.639088249077 485.23960494572094) rotate(0 50 -60)"><path d="M0 0 C20.35 -24.42, 40.69 -48.83, 100 -120 M0 0 C24.75 -29.7, 49.49 -59.39, 100 -120" stroke="#000000" stroke-width="1" fill="none"></path></g></g><mask></mask><g stroke-linecap="round"><g stroke-opacity="0.85" fill-opacity="0.85" transform="translate(1407.639088249077 485.23960494572094) rotate(0 50 0)"><path d="M0 0 C34.18 0, 68.37 0, 100 0 M0 0 C23.5 0, 47 0, 100 0" stroke="#000000" stroke-width="1" fill="none"></path></g></g><mask></mask><g stroke-linecap="round"><g stroke-opacity="0.85" fill-opacity="0.85" transform="translate(1407.639088249077 485.23960494572094) rotate(0 50 60)"><path d="M0 0 C20.96 25.15, 41.91 50.3, 100 120 M0 0 C27.01 32.41, 54.01 64.81, 100 120" stroke="#000000" stroke-width="1" fill="none"></path></g></g><mask></mask><g stroke-linecap="round"><g stroke-opacity="0.85" fill-opacity="0.85" transform="translate(1407.639088249077 605.2396049457209) rotate(0 50 -120)"><path d="M0 0 C33.45 -80.27, 66.89 -160.54, 100 -240 M0 0 C28.66 -68.78, 57.31 -137.56, 100 -240" stroke="#000000" stroke-width="1" fill="none"></path></g></g><mask></mask><g stroke-linecap="round"><g stroke-opacity="0.85" fill-opacity="0.85" transform="translate(1407.639088249077 605.1881233330887) rotate(0 50 -60)"><path d="M0 0 C37.75 -45.3, 75.5 -90.6, 100 -120 M0 0 C35.23 -42.28, 70.47 -84.56, 100 -120" stroke="#000000" stroke-width="1" fill="none"></path></g></g><mask></mask><g stroke-linecap="round"><g stroke-opacity="0.85" fill-opacity="0.85" transform="translate(1407.6878603031496 605.2396049457209) rotate(0 50 0)"><path d="M0 0 C27.66 0, 55.31 0, 100 0 M0 0 C38.56 0, 77.12 0, 100 0" stroke="#000000" stroke-width="1" fill="none"></path></g></g><mask></mask><g transform="translate(1053.1998719018277 679.8061651113198) rotate(0 158.39999999999998 7.5)"><text x="0" y="10.740234375" font-family="Helvetica, sans-serif, Segoe UI Emoji" font-size="12px" fill="#000000" text-anchor="start" style="white-space: pre;" direction="ltr" dominant-baseline="alphabetic">Servers exist. Tools connect. Capability appears</text></g><g stroke-opacity="0.85" fill-opacity="0.85" transform="translate(1053.1998719018277 696.8061651113198) rotate(0 115.5 7.5)"><text x="0" y="10.740234375" font-family="Helvetica, sans-serif, Segoe UI Emoji" font-size="12px" fill="#000000" text-anchor="start" style="white-space: pre;" direction="ltr" dominant-baseline="alphabetic">— within the governance you've set.</text></g><g stroke-linecap="round"><g stroke-opacity="0.7" fill-opacity="0.7" transform="translate(1305.5895716689815 678.3717929336237) rotate(0 0 -24.120847252267936)"><path d="M0 0 C0 -10.25, 0 -20.5, 0 -48.24 M0 0 C0 -12.8, 0 -25.61, 0 -48.24" stroke="#000000" stroke-width="1" fill="none"></path></g></g><mask></mask><g stroke-linecap="round" transform="translate(1303.5895716689815 628.1300984290879) rotate(0 2 2)"><path d="M4 2 C4 2.12, 3.99 2.23, 3.97 2.35 C3.95 2.46, 3.92 2.58, 3.88 2.68 C3.84 2.79, 3.79 2.9, 3.73 3 C3.67 3.1, 3.61 3.2, 3.53 3.29 C3.46 3.37, 3.37 3.46, 3.29 3.53 C3.2 3.61, 3.1 3.67, 3 3.73 C2.9 3.79, 2.79 3.84, 2.68 3.88 C2.58 3.92, 2.46 3.95, 2.35 3.97 C2.23 3.99, 2.12 4, 2 4 C1.88 4, 1.77 3.99, 1.65 3.97 C1.54 3.95, 1.42 3.92, 1.32 3.88 C1.21 3.84, 1.1 3.79, 1 3.73 C0.9 3.67, 0.8 3.61, 0.71 3.53 C0.63 3.46, 0.54 3.37, 0.47 3.29 C0.39 3.2, 0.33 3.1, 0.27 3 C0.21 2.9, 0.16 2.79, 0.12 2.68 C0.08 2.58, 0.05 2.46, 0.03 2.35 C0.01 2.23, 0 2.12, 0 2 C0 1.88, 0.01 1.77, 0.03 1.65 C0.05 1.54, 0.08 1.42, 0.12 1.32 C0.16 1.21, 0.21 1.1, 0.27 1 C0.33 0.9, 0.39 0.8, 0.47 0.71 C0.54 0.63, 0.63 0.54, 0.71 0.47 C0.8 0.39, 0.9 0.33, 1 0.27 C1.1 0.21, 1.21 0.16, 1.32 0.12 C1.42 0.08, 1.54 0.05, 1.65 0.03 C1.77 0.01, 1.88 0, 2 0 C2.12 0, 2.23 0.01, 2.35 0.03 C2.46 0.05, 2.58 0.08, 2.68 0.12 C2.79 0.16, 2.9 0.21, 3 0.27 C3.1 0.33, 3.2 0.39, 3.29 0.47 C3.37 0.54, 3.46 0.63, 3.53 0.71 C3.61 0.8, 3.67 0.9, 3.73 1 C3.79 1.1, 3.84 1.21, 3.88 1.32 C3.92 1.42, 3.95 1.54, 3.97 1.65 C3.99 1.77, 3.99 1.94, 4 2 C4.01 2.06, 4.01 1.94, 4 2" stroke="none" stroke-width="0" fill="#E03A2A"></path><path d="M4 2 C4 2.12, 3.99 2.23, 3.97 2.35 C3.95 2.46, 3.92 2.58, 3.88 2.68 C3.84 2.79, 3.79 2.9, 3.73 3 C3.67 3.1, 3.61 3.2, 3.53 3.29 C3.46 3.37, 3.37 3.46, 3.29 3.53 C3.2 3.61, 3.1 3.67, 3 3.73 C2.9 3.79, 2.79 3.84, 2.68 3.88 C2.58 3.92, 2.46 3.95, 2.35 3.97 C2.23 3.99, 2.12 4, 2 4 C1.88 4, 1.77 3.99, 1.65 3.97 C1.54 3.95, 1.42 3.92, 1.32 3.88 C1.21 3.84, 1.1 3.79, 1 3.73 C0.9 3.67, 0.8 3.61, 0.71 3.53 C0.63 3.46, 0.54 3.37, 0.47 3.29 C0.39 3.2, 0.33 3.1, 0.27 3 C0.21 2.9, 0.16 2.79, 0.12 2.68 C0.08 2.58, 0.05 2.46, 0.03 2.35 C0.01 2.23, 0 2.12, 0 2 C0 1.88, 0.01 1.77, 0.03 1.65 C0.05 1.54, 0.08 1.42, 0.12 1.32 C0.16 1.21, 0.21 1.1, 0.27 1 C0.33 0.9, 0.39 0.8, 0.47 0.71 C0.54 0.63, 0.63 0.54, 0.71 0.47 C0.8 0.39, 0.9 0.33, 1 0.27 C1.1 0.21, 1.21 0.16, 1.32 0.12 C1.42 0.08, 1.54 0.05, 1.65 0.03 C1.77 0.01, 1.88 0, 2 0 C2.12 0, 2.23 0.01, 2.35 0.03 C2.46 0.05, 2.58 0.08, 2.68 0.12 C2.79 0.16, 2.9 0.21, 3 0.27 C3.1 0.33, 3.2 0.39, 3.29 0.47 C3.37 0.54, 3.46 0.63, 3.53 0.71 C3.61 0.8, 3.67 0.9, 3.73 1 C3.79 1.1, 3.84 1.21, 3.88 1.32 C3.92 1.42, 3.95 1.54, 3.97 1.65 C3.99 1.77, 3.99 1.94, 4 2 C4.01 2.06, 4.01 1.94, 4 2" stroke="#E03A2A" stroke-width="1" fill="none"></path></g><g transform="translate(967.6390882490771 820.2396049457209) rotate(0 113.17578125 8.050000000000011)"><text x="0" y="11.830273437499999" font-family="Helvetica, sans-serif, Segoe UI Emoji" font-size="14px" fill="#000000" text-anchor="start" style="white-space: pre;" direction="ltr" dominant-baseline="alphabetic">*Plus the work that 'emergent' hides:</text></g><g transform="translate(970.0319456828038 845.2396049457209) rotate(0 126.19140625000006 8.75)"><text x="0" y="12.5302734375" font-family="Helvetica, sans-serif, Segoe UI Emoji" font-size="14px" fill="#868e96" text-anchor="start" style="white-space: pre;" direction="ltr" dominant-baseline="alphabetic">permissions, identity, observability, audit.</text></g><g stroke-opacity="0.6" fill-opacity="0.6" transform="translate(1567.639088249077 880.2396049457209) rotate(0 57.47500000000002 6.875)"><text x="0" y="9.84521484375" font-family="Helvetica, sans-serif, Segoe UI Emoji" font-size="11px" fill="#000000" text-anchor="start" style="white-space: pre;" direction="ltr" dominant-baseline="alphabetic">Scale: illustrative</text></g><g stroke-linecap="round"><g transform="translate(147.63908824907702 1020.2396049457209) rotate(0 780 0)"><path d="M0 0 C467.81 0, 935.63 0, 1560 0 M0 0 C576.5 0, 1153 0, 1560 0" stroke="#000000" stroke-width="0.6" fill="none"></path></g></g><mask></mask><g stroke-opacity="0.7" fill-opacity="0.7" transform="translate(1647.639088249077 1050.2396049457209) rotate(0 24.200000000000045 6.875)"><text x="0" y="9.84521484375" font-family="Helvetica, sans-serif, Segoe UI Emoji" font-size="11px" fill="#000000" text-anchor="start" style="white-space: pre;" direction="ltr" dominant-baseline="alphabetic">Exec . 4</text></g><g stroke-linecap="round" transform="translate(648.251188568179 347.88214413231987) rotate(0 48.78553503130718 11)"><path d="M0 0 C32.47 0, 64.93 0, 97.57 0 M0 0 C36.91 0, 73.81 0, 97.57 0 M97.57 0 C97.57 7.73, 97.57 15.46, 97.57 22 M97.57 0 C97.57 6.91, 97.57 13.82, 97.57 22 M97.57 22 C64.02 22, 30.48 22, 0 22 M97.57 22 C76.93 22, 56.29 22, 0 22 M0 22 C0 15.35, 0 8.7, 0 0 M0 22 C0 14.72, 0 7.44, 0 0" stroke="#000000" stroke-width="1" fill="none"></path></g><g transform="translate(689.6998095369863 352.00714413231987) rotate(0 7.3369140625 6.875)"><text x="0" y="9.84521484375" font-family="Helvetica, sans-serif, Segoe UI Emoji" font-size="11px" fill="#000000" text-anchor="start" style="white-space: pre;" direction="ltr" dominant-baseline="alphabetic">Q4</text></g><g stroke-linecap="round" transform="translate(536.3406743330854 347.88214413231987) rotate(0 48.78553503130718 11)"><path d="M0 0 C28 0, 56 0, 97.57 0 M0 0 C25.79 0, 51.57 0, 97.57 0 M97.57 0 C97.57 7.53, 97.57 15.07, 97.57 22 M97.57 0 C97.57 5.52, 97.57 11.04, 97.57 22 M97.57 22 C69.54 22, 41.51 22, 0 22 M97.57 22 C62.23 22, 26.89 22, 0 22 M0 22 C0 15.98, 0 9.96, 0 0 M0 22 C0 13.44, 0 4.87, 0 0" stroke="#000000" stroke-width="1" fill="none"></path></g><g stroke-linecap="round" transform="translate(424.49792824509495 347.88214413231987) rotate(0 48.78553503130718 11)"><path d="M0 0 C34.3 0, 68.6 0, 97.57 0 M0 0 C20.23 0, 40.45 0, 97.57 0 M97.57 0 C97.57 4.93, 97.57 9.87, 97.57 22 M97.57 0 C97.57 8.07, 97.57 16.14, 97.57 22 M97.57 22 C70.03 22, 42.48 22, 0 22 M97.57 22 C77.84 22, 58.1 22, 0 22 M0 22 C0 15.61, 0 9.22, 0 0 M0 22 C0 13.96, 0 5.92, 0 0" stroke="#000000" stroke-width="1" fill="none"></path></g><g stroke-linecap="round" transform="translate(312.51964586289824 347.88214413231987) rotate(0 48.78553503130718 11)"><path d="M0 0 C38.94 0, 77.88 0, 97.57 0 M0 0 C26.52 0, 53.04 0, 97.57 0 M97.57 0 C97.57 8.65, 97.57 17.3, 97.57 22 M97.57 0 C97.57 8.04, 97.57 16.07, 97.57 22 M97.57 22 C73.01 22, 48.46 22, 0 22 M97.57 22 C59.99 22, 22.41 22, 0 22 M0 22 C0 15.14, 0 8.27, 0 0 M0 22 C0 16.55, 0 11.1, 0 0" stroke="#000000" stroke-width="1" fill="none"></path></g><g transform="translate(577.7892953018927 352.0749122794229) rotate(0 7.3369140625 6.875)"><text x="0" y="9.84521484375" font-family="Helvetica, sans-serif, Segoe UI Emoji" font-size="11px" fill="#000000" text-anchor="start" style="white-space: pre;" direction="ltr" dominant-baseline="alphabetic">Q3</text></g><g transform="translate(465.94654921390213 352.00714413231987) rotate(0 7.3369140625 6.875)"><text x="0" y="9.84521484375" font-family="Helvetica, sans-serif, Segoe UI Emoji" font-size="11px" fill="#000000" text-anchor="start" style="white-space: pre;" direction="ltr" dominant-baseline="alphabetic">Q2</text></g><g transform="translate(353.9682668317054 352.00714413231987) rotate(0 7.3369140625 6.875)"><text x="0" y="9.84521484375" font-family="Helvetica, sans-serif, Segoe UI Emoji" font-size="11px" fill="#000000" text-anchor="start" style="white-space: pre;" direction="ltr" dominant-baseline="alphabetic">Q1</text></g><g transform="translate(1373.7838609603066 999.0616234912429) rotate(0 166.01008362354025 5.235146936468652)"><text x="0" y="7.693567670051514" font-family="Helvetica, sans-serif, Segoe UI Emoji" font-size="9.104603367771583px" fill="#868e96" text-anchor="start" style="white-space: pre;" direction="ltr" dominant-baseline="alphabetic">Tools and servers are interchangeable. Replace either without rebuilding the other.</text></g><g transform="translate(1228.955494499077 311.67244195605883) rotate(0 78.68359375 9.199999999999989)"><text x="0" y="13.5203125" font-family="Helvetica, sans-serif, Segoe UI Emoji" font-size="16px" fill="#ced4da" text-anchor="start" style="white-space: pre;" direction="ltr" dominant-baseline="alphabetic">INTERCHANGEABLE</text></g><g transform="translate(1554.955494499077 311.67244195605883) rotate(0 42.68359375 9.199999999999989)"><text x="0" y="13.5203125" font-family="Helvetica, sans-serif, Segoe UI Emoji" font-size="16px" fill="#ced4da" text-anchor="start" style="white-space: pre;" direction="ltr" dominant-baseline="alphabetic">REUSABLE</text></g><g stroke-linecap="round"><g transform="translate(1207.639088249077 312.6526917384079) rotate(0 0 6.8047895067709305)"><path d="M0 0 C0 3.5, 0 6.99, 0 13.61 M0 0 C0 3.52, 0 7.05, 0 13.61" stroke="#ced4da" stroke-width="1" fill="none"></path></g></g><mask></mask><g stroke-linecap="round"><g transform="translate(1407.639088249077 312.6526917384079) rotate(0 0 6.8047895067709305)"><path d="M0 0 C0 4.61, 0 9.22, 0 13.61 M0 0 C0 4.17, 0 8.33, 0 13.61" stroke="#ced4da" stroke-width="1" fill="none"></path></g></g><mask></mask><g stroke-linecap="round"><g transform="translate(1507.639088249077 312.6526917384079) rotate(0 0 6.8047895067709305)"><path d="M0 0 C0 5.22, 0 10.44, 0 13.61 M0 0 C0 3.64, 0 7.28, 0 13.61" stroke="#ced4da" stroke-width="1" fill="none"></path></g></g><mask></mask><g stroke-linecap="round"><g transform="translate(1687.639088249077 312.6526917384079) rotate(0 0 6.8047895067709305)"><path d="M0 0 C0 4.24, 0 8.47, 0 13.61 M0 0 C0 4.74, 0 9.47, 0 13.61" stroke="#ced4da" stroke-width="1" fill="none"></path></g></g><mask></mask></svg>