<?xml version="1.0" standalone="no"?>
<!DOCTYPE svg PUBLIC "-//W3C//DTD SVG 1.1//EN" "http://www.w3.org/Graphics/SVG/1.1/DTD/svg11.dtd">
<svg version="1.1" xmlns="http://www.w3.org/2000/svg" viewBox="0 0 1820 1220" width="1820" height="1220"><!-- svg-source:excalidraw --><metadata></metadata><defs><style class="style-fonts">
      </style></defs><rect x="0" y="0" width="1820" height="1220" fill="#F7F2E8"></rect><g stroke-linecap="round" transform="translate(10 10) rotate(0 900 600)"><path d="M0 0 L1800 0 L1800 1200 L0 1200" stroke="none" stroke-width="0" fill="#F7F2E8"></path><path d="M0 0 C475.02 0, 950.04 0, 1800 0 M0 0 C544.08 0, 1088.17 0, 1800 0 M1800 0 C1800 374.6, 1800 749.2, 1800 1200 M1800 0 C1800 294.11, 1800 588.21, 1800 1200 M1800 1200 C1126.46 1200, 452.92 1200, 0 1200 M1800 1200 C1393.25 1200, 986.49 1200, 0 1200 M0 1200 C0 955.33, 0 710.66, 0 0 M0 1200 C0 879.28, 0 558.55, 0 0" stroke="#F7F2E8" stroke-width="1" fill="none"></path></g><g transform="translate(137.91464649823718 79.35290531808994) rotate(0 92.4 7.5)"><text x="0" y="10.740234375" font-family="Helvetica, sans-serif, Segoe UI Emoji" font-size="12px" fill="#000000" text-anchor="start" style="white-space: pre;" direction="ltr" dominant-baseline="alphabetic">EXECUTIVE BRIEF / SECTION 03</text></g><g transform="translate(137.91464649823718 114.35290531808994) rotate(0 326.7 22.5)"><text x="0" y="32.220703125" font-family="Helvetica, sans-serif, Segoe UI Emoji" font-size="36px" fill="#000000" text-anchor="start" style="white-space: pre;" direction="ltr" dominant-baseline="alphabetic">The risk surface, in one diagram.</text></g><g stroke-opacity="0.7" fill-opacity="0.7" transform="translate(137.91464649823718 167.35290531808994) rotate(0 499.125 9.375)"><text x="0" y="13.42529296875" font-family="Helvetica, sans-serif, Segoe UI Emoji" font-size="15px" fill="#000000" text-anchor="start" style="white-space: pre;" direction="ltr" dominant-baseline="alphabetic">MCP doesn't create these paths. It standardises them — which makes governing them tractable, but only if you actually do.</text></g><g stroke-linecap="round" transform="translate(1517.9146464982373 79.35290531808994) rotate(0 90 22)"><path d="M0 0 L180 0 L180 44 L0 44" stroke="none" stroke-width="0" fill="#E03A2A"></path><path d="M0 0 C53.04 0, 106.07 0, 180 0 M0 0 C70.66 0, 141.32 0, 180 0 M180 0 C180 17.47, 180 34.94, 180 44 M180 0 C180 17.34, 180 34.67, 180 44 M180 44 C131.77 44, 83.54 44, 0 44 M180 44 C138.73 44, 97.47 44, 0 44 M0 44 C0 29.98, 0 15.97, 0 0 M0 44 C0 34.95, 0 25.91, 0 0" stroke="#E03A2A" stroke-width="1" fill="none"></path></g><g transform="translate(1573.2646464982372 92.60290531808994) rotate(0 34.64999999999998 8.75)"><text x="0" y="12.5302734375" font-family="Helvetica, sans-serif, Segoe UI Emoji" font-size="14px" fill="#F7F2E8" text-anchor="start" style="white-space: pre;" direction="ltr" dominant-baseline="alphabetic">EXEC . 03</text></g><g stroke-linecap="round"><g transform="translate(137.91464649823718 224.35290531808994) rotate(0 780 0)"><path d="M0 0 C502 0, 1004 0, 1560 0 M0 0 C419.27 0, 838.55 0, 1560 0" stroke="#000000" stroke-width="1" fill="none"></path></g></g><mask></mask><g stroke-linecap="round" transform="translate(117.91464649823718 269.35290531808994) rotate(0 140 14)"><path d="M0 0 L280 0 L280 28 L0 28" stroke="none" stroke-width="0" fill="#000000"></path><path d="M0 0 C73.82 0, 147.63 0, 280 0 M0 0 C110.94 0, 221.89 0, 280 0 M280 0 C280 6.82, 280 13.64, 280 28 M280 0 C280 10.49, 280 20.99, 280 28 M280 28 C215.25 28, 150.5 28, 0 28 M280 28 C191.81 28, 103.62 28, 0 28 M0 28 C0 17.05, 0 6.1, 0 0 M0 28 C0 20.69, 0 13.39, 0 0" stroke="#000000" stroke-width="1" fill="none"></path></g><g transform="translate(201.24863087323718 275.85290531808994) rotate(0 56.666015625 7.5)"><text x="0" y="10.740234375" font-family="Helvetica, sans-serif, Segoe UI Emoji" font-size="12px" fill="#F7F2E8" text-anchor="start" style="white-space: pre;" direction="ltr" dominant-baseline="alphabetic">UNTRUSTED INPUT</text></g><g stroke-linecap="round" transform="translate(1237.9146464982373 269.35290531808994) rotate(0 140 14)"><path d="M0 0 L280 0 L280 28 L0 28" stroke="none" stroke-width="0" fill="#000000"></path><path d="M0 0 C62.01 0, 124.01 0, 280 0 M0 0 C110.87 0, 221.75 0, 280 0 M280 0 C280 8.3, 280 16.59, 280 28 M280 0 C280 8.99, 280 17.98, 280 28 M280 28 C185.01 28, 90.01 28, 0 28 M280 28 C199.3 28, 118.59 28, 0 28 M0 28 C0 18.22, 0 8.44, 0 0 M0 28 C0 19.54, 0 11.09, 0 0" stroke="#000000" stroke-width="1" fill="none"></path></g><g transform="translate(1329.7886699357373 275.85290531808994) rotate(0 48.1259765625 7.5)"><text x="0" y="10.740234375" font-family="Helvetica, sans-serif, Segoe UI Emoji" font-size="12px" fill="#F7F2E8" text-anchor="start" style="white-space: pre;" direction="ltr" dominant-baseline="alphabetic">SENSITIVE DATA</text></g><g stroke-linecap="round" transform="translate(117.91464649823718 329.35290531808994) rotate(0 140 40)"><path d="M0 0 C65.77 0, 131.54 0, 280 0 M0 0 C68.42 0, 136.84 0, 280 0 M280 0 C280 21.72, 280 43.45, 280 80 M280 0 C280 27.03, 280 54.07, 280 80 M280 80 C223.58 80, 167.17 80, 0 80 M280 80 C213.65 80, 147.3 80, 0 80 M0 80 C0 54.49, 0 28.98, 0 0 M0 80 C0 52.79, 0 25.58, 0 0" stroke="#000000" stroke-width="1" fill="none"></path></g><g transform="translate(204.01464649823717 360.60290531808994) rotate(0 53.89999999999999 8.75)"><text x="0" y="12.5302734375" font-family="Helvetica, sans-serif, Segoe UI Emoji" font-size="14px" fill="#000000" text-anchor="start" style="white-space: pre;" direction="ltr" dominant-baseline="alphabetic">Customer email</text></g><g stroke-linecap="round" transform="translate(117.91464649823718 429.35290531808994) rotate(0 140 40)"><path d="M0 0 C97.27 0, 194.54 0, 280 0 M0 0 C74.22 0, 148.44 0, 280 0 M280 0 C280 26.23, 280 52.46, 280 80 M280 0 C280 21.7, 280 43.41, 280 80 M280 80 C170.33 80, 60.66 80, 0 80 M280 80 C184.24 80, 88.49 80, 0 80 M0 80 C0 57.59, 0 35.17, 0 0 M0 80 C0 52.83, 0 25.65, 0 0" stroke="#000000" stroke-width="1" fill="none"></path></g><g transform="translate(204.01464649823717 460.60290531808994) rotate(0 53.89999999999999 8.75)"><text x="0" y="12.5302734375" font-family="Helvetica, sans-serif, Segoe UI Emoji" font-size="14px" fill="#000000" text-anchor="start" style="white-space: pre;" direction="ltr" dominant-baseline="alphabetic">Support ticket</text></g><g stroke-linecap="round" transform="translate(117.91464649823718 529.3529053180899) rotate(0 140 40)"><path d="M0 0 C101.82 0, 203.63 0, 280 0 M0 0 C56.97 0, 113.93 0, 280 0 M280 0 C280 23, 280 46, 280 80 M280 0 C280 18.46, 280 36.92, 280 80 M280 80 C206.58 80, 133.16 80, 0 80 M280 80 C170.6 80, 61.19 80, 0 80 M0 80 C0 58.65, 0 37.31, 0 0 M0 80 C0 52.17, 0 24.33, 0 0" stroke="#000000" stroke-width="1" fill="none"></path></g><g transform="translate(200.16464649823718 560.6029053180899) rotate(0 57.75 8.75)"><text x="0" y="12.5302734375" font-family="Helvetica, sans-serif, Segoe UI Emoji" font-size="14px" fill="#000000" text-anchor="start" style="white-space: pre;" direction="ltr" dominant-baseline="alphabetic">Public web page</text></g><g stroke-opacity="0.7" fill-opacity="0.7" transform="translate(117.91464649823718 634.3529053180899) rotate(0 72.60000000000001 7.5)"><text x="0" y="10.740234375" font-family="Helvetica, sans-serif, Segoe UI Emoji" font-size="12px" fill="#000000" text-anchor="start" style="white-space: pre;" direction="ltr" dominant-baseline="alphabetic">Anything the AI reads.</text></g><g stroke-linecap="round" transform="translate(1237.9146464982373 329.35290531808994) rotate(0 140 40)"><path d="M0 0 C93.01 0, 186.02 0, 280 0 M0 0 C91.9 0, 183.79 0, 280 0 M280 0 C280 29.45, 280 58.91, 280 80 M280 0 C280 21.04, 280 42.09, 280 80 M280 80 C187 80, 93.99 80, 0 80 M280 80 C181.02 80, 82.04 80, 0 80 M0 80 C0 48.69, 0 17.37, 0 0 M0 80 C0 50.53, 0 21.06, 0 0" stroke="#000000" stroke-width="1" fill="none"></path></g><g transform="translate(1316.3146464982374 360.60290531808994) rotate(0 61.60000000000002 8.75)"><text x="0" y="12.5302734375" font-family="Helvetica, sans-serif, Segoe UI Emoji" font-size="14px" fill="#000000" text-anchor="start" style="white-space: pre;" direction="ltr" dominant-baseline="alphabetic">Customer records</text></g><g stroke-linecap="round" transform="translate(1237.9146464982373 429.35290531808994) rotate(0 140 40)"><path d="M0 0 C98.52 0, 197.04 0, 280 0 M0 0 C81.82 0, 163.64 0, 280 0 M280 0 C280 27.81, 280 55.63, 280 80 M280 0 C280 17.78, 280 35.56, 280 80 M280 80 C179.29 80, 78.59 80, 0 80 M280 80 C176.54 80, 73.07 80, 0 80 M0 80 C0 56.42, 0 32.84, 0 0 M0 80 C0 51.07, 0 22.15, 0 0" stroke="#000000" stroke-width="1" fill="none"></path></g><g transform="translate(1324.0146464982372 460.60290531808994) rotate(0 53.89999999999998 8.75)"><text x="0" y="12.5302734375" font-family="Helvetica, sans-serif, Segoe UI Emoji" font-size="14px" fill="#000000" text-anchor="start" style="white-space: pre;" direction="ltr" dominant-baseline="alphabetic">Financial data</text></g><g stroke-linecap="round" transform="translate(1237.9146464982373 529.3529053180899) rotate(0 140 40)"><path d="M0 0 C64.54 0, 129.09 0, 280 0 M0 0 C106.48 0, 212.96 0, 280 0 M280 0 C280 29.04, 280 58.08, 280 80 M280 0 C280 20.95, 280 41.91, 280 80 M280 80 C197.55 80, 115.1 80, 0 80 M280 80 C212.39 80, 144.78 80, 0 80 M0 80 C0 54.41, 0 28.82, 0 0 M0 80 C0 63.91, 0 47.82, 0 0" stroke="#000000" stroke-width="1" fill="none"></path></g><g transform="translate(1308.614646498237 560.6029053180899) rotate(0 69.30000000000007 8.75)"><text x="0" y="12.5302734375" font-family="Helvetica, sans-serif, Segoe UI Emoji" font-size="14px" fill="#000000" text-anchor="start" style="white-space: pre;" direction="ltr" dominant-baseline="alphabetic">Internal documents</text></g><g stroke-opacity="0.7" fill-opacity="0.7" transform="translate(1237.9146464982373 634.3529053180899) rotate(0 72.60000000000002 7.5)"><text x="0" y="10.740234375" font-family="Helvetica, sans-serif, Segoe UI Emoji" font-size="12px" fill="#000000" text-anchor="start" style="white-space: pre;" direction="ltr" dominant-baseline="alphabetic">What the AI can reach.</text></g><g stroke-linecap="round" transform="translate(597.9146464982372 329.35290531808994) rotate(0 220 140)"><path d="M0 0 C138.74 0, 277.48 0, 440 0 M0 0 C125.71 0, 251.42 0, 440 0 M440 0 C440 89.01, 440 178.01, 440 280 M440 0 C440 81.12, 440 162.23, 440 280 M440 280 C317.84 280, 195.68 280, 0 280 M440 280 C322.49 280, 204.97 280, 0 280 M0 280 C0 177.01, 0 74.02, 0 0 M0 280 C0 183.63, 0 87.25, 0 0" stroke="#000000" stroke-width="1.5" fill="none"></path></g><g transform="translate(751.1073322216204 336.77544814082034) rotate(0 66 12.5)"><text x="0" y="17.900390625" font-family="Helvetica, sans-serif, Segoe UI Emoji" font-size="20px" fill="#000000" text-anchor="start" style="white-space: pre;" direction="ltr" dominant-baseline="alphabetic">AI ASSISTANT</text></g><g stroke-linecap="round" transform="translate(608.7469838328058 480) rotate(0 65 40)"><path d="M0 0 C40.68 0, 81.35 0, 130 0 M0 0 C48.78 0, 97.55 0, 130 0 M130 0 C130 29.97, 130 59.94, 130 80 M130 0 C130 22.72, 130 45.44, 130 80 M130 80 C86.4 80, 42.79 80, 0 80 M130 80 C97.91 80, 65.81 80, 0 80 M0 80 C0 49.36, 0 18.73, 0 0 M0 80 C0 56.13, 0 32.26, 0 0" stroke="#000000" stroke-width="1" fill="none"></path></g><g transform="translate(647.3469838328058 512.5) rotate(0 26.399999999999977 7.5)"><text x="0" y="10.740234375" font-family="Helvetica, sans-serif, Segoe UI Emoji" font-size="12px" fill="#000000" text-anchor="start" style="white-space: pre;" direction="ltr" dominant-baseline="alphabetic">CRM tool</text></g><g stroke-linecap="round" transform="translate(753.7469838328058 480.11126514892567) rotate(0 65 40)"><path d="M0 0 C37.61 0, 75.22 0, 130 0 M0 0 C48.35 0, 96.7 0, 130 0 M130 0 C130 22.87, 130 45.74, 130 80 M130 0 C130 16.37, 130 32.74, 130 80 M130 80 C81.72 80, 33.45 80, 0 80 M130 80 C101.42 80, 72.84 80, 0 80 M0 80 C0 60.13, 0 40.26, 0 0 M0 80 C0 50.86, 0 21.72, 0 0" stroke="#000000" stroke-width="1" fill="none"></path></g><g transform="translate(776.9113716087826 512.5670584549446) rotate(0 41.83561222402318 7.500000000000028)"><text x="0" y="10.740234375" font-family="Helvetica, sans-serif, Segoe UI Emoji" font-size="12px" fill="#000000" text-anchor="start" style="white-space: pre;" direction="ltr" dominant-baseline="alphabetic">Warehouse tool</text></g><g stroke-linecap="round" transform="translate(898.81590502261 480.11126514892567) rotate(0 65 40)"><path d="M0 0 C51.73 0, 103.45 0, 130 0 M0 0 C37.9 0, 75.8 0, 130 0 M130 0 C130 25.34, 130 50.67, 130 80 M130 0 C130 27.72, 130 55.44, 130 80 M130 80 C99.99 80, 69.97 80, 0 80 M130 80 C79.72 80, 29.45 80, 0 80 M0 80 C0 55.5, 0 31, 0 0 M0 80 C0 50.98, 0 21.95, 0 0" stroke="#000000" stroke-width="1" fill="none"></path></g><g transform="translate(911.8837742709021 512.6112651489257) rotate(0 51.93213075170797 7.5)"><text x="0" y="10.740234375" font-family="Helvetica, sans-serif, Segoe UI Emoji" font-size="12px" fill="#000000" text-anchor="start" style="white-space: pre;" direction="ltr" dominant-baseline="alphabetic">Send-message tool</text></g><g stroke-linecap="round" transform="translate(1637.9146464982373 419.35290531808994) rotate(0 70 40)"><path d="M0 0 C37.6 0, 75.2 0, 140 0 M0 0 C37.81 0, 75.63 0, 140 0 M140 0 C140 25.07, 140 50.14, 140 80 M140 0 C140 28.48, 140 56.96, 140 80 M140 80 C98.79 80, 57.59 80, 0 80 M140 80 C109.44 80, 78.88 80, 0 80 M0 80 C0 56.39, 0 32.78, 0 0 M0 80 C0 50.12, 0 20.24, 0 0" stroke="#000000" stroke-width="1" fill="none"></path></g><g transform="translate(1659.5250402881984 452.47790531808994) rotate(0 48.38960621003878 6.875)"><text x="0" y="9.84521484375" font-family="Helvetica, sans-serif, Segoe UI Emoji" font-size="11px" fill="#000000" text-anchor="start" style="white-space: pre;" direction="ltr" dominant-baseline="alphabetic">External destination</text></g><g stroke-linecap="round"><g transform="translate(397.9146464982372 369.35290531808994) rotate(0 100 0)"><path d="M0 0 C41.83 0, 83.65 0, 200 0 M0 0 C42.55 0, 85.1 0, 200 0" stroke="#000000" stroke-width="0.8" fill="none"></path></g></g><mask></mask><g stroke-linecap="round"><g transform="translate(397.9146464982372 469.35290531808994) rotate(0 100 0)"><path d="M0 0 C74.45 0, 148.89 0, 200 0 M0 0 C48.41 0, 96.82 0, 200 0" stroke="#000000" stroke-width="0.8" fill="none"></path></g></g><mask></mask><g stroke-linecap="round"><g transform="translate(397.9146464982372 569.3529053180899) rotate(0 100 0)"><path d="M0 0 C71.26 0, 142.52 0, 200 0 M0 0 C48.82 0, 97.64 0, 200 0" stroke="#000000" stroke-width="0.8" fill="none"></path></g></g><mask></mask><g stroke-linecap="round"><g transform="translate(1037.9146464982373 369.35290531808994) rotate(0 100 0)"><path d="M0 0 C67.34 0, 134.69 0, 200 0 M0 0 C68.82 0, 137.63 0, 200 0" stroke="#000000" stroke-width="0.8" fill="none"></path></g></g><mask></mask><g stroke-linecap="round"><g transform="translate(1037.9146464982373 469.35290531808994) rotate(0 100 0)"><path d="M0 0 C63.16 0, 126.32 0, 200 0 M0 0 C59.36 0, 118.71 0, 200 0" stroke="#000000" stroke-width="0.8" fill="none"></path></g></g><mask></mask><g stroke-linecap="round"><g transform="translate(1037.9146464982373 569.3529053180899) rotate(0 100 0)"><path d="M0 0 C59.59 0, 119.19 0, 200 0 M0 0 C77.61 0, 155.22 0, 200 0" stroke="#000000" stroke-width="0.8" fill="none"></path></g></g><mask></mask><g stroke-linecap="round"><g transform="translate(399.7666830589752 369.35290531808994) rotate(0 418.20991388654636 24.982283695959524)"><path d="M0 0 C4.14 0.04, 8.28 0.08, 14.18 0.14 M0 0 C2.95 0.03, 5.9 0.06, 14.18 0.14 M14.18 0.14 C18.66 0.28, 23.14 0.41, 28.35 0.56 M14.18 0.14 C17.91 0.25, 21.64 0.36, 28.35 0.56 M28.35 0.56 C32.03 0.75, 35.72 0.93, 42.53 1.27 M28.35 0.56 C33.96 0.84, 39.56 1.12, 42.53 1.27 M42.53 1.27 C48.11 1.65, 53.68 2.03, 56.71 2.23 M42.53 1.27 C46.84 1.56, 51.15 1.85, 56.71 2.23 M56.71 2.23 C60.8 2.59, 64.89 2.94, 70.88 3.46 M56.71 2.23 C59.97 2.52, 63.23 2.8, 70.88 3.46 M70.88 3.46 C74.93 3.88, 78.98 4.3, 85.06 4.93 M70.88 3.46 C76.34 4.03, 81.8 4.59, 85.06 4.93 M85.06 4.93 C90.21 5.55, 95.37 6.17, 99.24 6.63 M85.06 4.93 C90.48 5.58, 95.9 6.23, 99.24 6.63 M99.24 6.63 C102.18 7.03, 105.12 7.42, 113.41 8.54 M99.24 6.63 C103.07 7.15, 106.9 7.66, 113.41 8.54 M113.41 8.54 C117.37 9.12, 121.32 9.7, 127.59 10.63 M113.41 8.54 C118.53 9.29, 123.65 10.05, 127.59 10.63 M127.59 10.63 C131.6 11.27, 135.62 11.91, 141.77 12.89 M127.59 10.63 C131.34 11.23, 135.09 11.82, 141.77 12.89 M141.77 12.89 C145.15 13.46, 148.53 14.03, 155.94 15.28 M141.77 12.89 C146.26 13.64, 150.75 14.4, 155.94 15.28 M155.94 15.28 C160.84 16.14, 165.74 17.01, 170.12 17.78 M155.94 15.28 C158.97 15.81, 162.01 16.35, 170.12 17.78 M170.12 17.78 C173.74 18.44, 177.35 19.1, 184.3 20.37 M170.12 17.78 C173.53 18.4, 176.94 19.03, 184.3 20.37 M184.3 20.37 C189.08 21.26, 193.87 22.15, 198.47 23.01 M184.3 20.37 C188.61 21.17, 192.92 21.97, 198.47 23.01 M198.47 23.01 C203.45 23.94, 208.44 24.87, 212.65 25.67 M198.47 23.01 C203.63 23.97, 208.78 24.94, 212.65 25.67 M212.65 25.67 C217.07 26.49, 221.48 27.32, 226.83 28.32 M212.65 25.67 C216.37 26.36, 220.08 27.06, 226.83 28.32 M226.83 28.32 C231.91 29.26, 237 30.2, 241 30.93 M226.83 28.32 C231.9 29.25, 236.97 30.19, 241 30.93 M241 30.93 C244.24 31.52, 247.49 32.1, 255.18 33.48 M241 30.93 C246.04 31.84, 251.08 32.74, 255.18 33.48 M255.18 33.48 C259.7 34.26, 264.22 35.05, 269.36 35.93 M255.18 33.48 C259.95 34.31, 264.72 35.13, 269.36 35.93 M269.36 35.93 C274.46 36.77, 279.56 37.61, 283.53 38.26 M269.36 35.93 C274.91 36.85, 280.47 37.76, 283.53 38.26 M283.53 38.26 C287.53 38.87, 291.53 39.49, 297.71 40.44 M283.53 38.26 C287.11 38.81, 290.69 39.36, 297.71 40.44 M297.71 40.44 C301.76 41.01, 305.81 41.58, 311.89 42.44 M297.71 40.44 C302.25 41.08, 306.79 41.72, 311.89 42.44 M311.89 42.44 C316.26 43, 320.62 43.55, 326.06 44.25 M311.89 42.44 C316.14 42.98, 320.4 43.52, 326.06 44.25 M326.06 44.25 C330.25 44.71, 334.43 45.18, 340.24 45.83 M326.06 44.25 C329.33 44.61, 332.59 44.98, 340.24 45.83 M340.24 45.83 C344.02 46.19, 347.8 46.55, 354.42 47.18 M340.24 45.83 C344.69 46.26, 349.14 46.68, 354.42 47.18 M354.42 47.18 C359.91 47.61, 365.4 48.04, 368.59 48.28 M354.42 47.18 C359.39 47.57, 364.37 47.96, 368.59 48.28 M368.59 48.28 C371.93 48.48, 375.28 48.68, 382.77 49.12 M368.59 48.28 C373.83 48.59, 379.06 48.9, 382.77 49.12 M382.77 49.12 C386.61 49.27, 390.46 49.42, 396.95 49.68 M382.77 49.12 C386.37 49.26, 389.97 49.4, 396.95 49.68 M396.95 49.68 C401.25 49.77, 405.56 49.85, 411.12 49.96 M396.95 49.68 C402.36 49.79, 407.77 49.9, 411.12 49.96 M411.12 49.96 C416.28 49.96, 421.44 49.96, 425.3 49.96 M411.12 49.96 C414.66 49.96, 418.2 49.96, 425.3 49.96 M425.3 49.96 C430.52 49.86, 435.74 49.76, 439.47 49.68 M425.3 49.96 C429.66 49.88, 434.03 49.79, 439.47 49.68 M439.47 49.68 C445.04 49.46, 450.6 49.24, 453.65 49.12 M439.47 49.68 C445 49.46, 450.53 49.24, 453.65 49.12 M453.65 49.12 C458.42 48.84, 463.18 48.56, 467.83 48.28 M453.65 49.12 C458.54 48.83, 463.43 48.54, 467.83 48.28 M467.83 48.28 C473.41 47.85, 478.99 47.42, 482 47.18 M467.83 48.28 C471.62 47.99, 475.42 47.69, 482 47.18 M482 47.18 C486.58 46.75, 491.16 46.31, 496.18 45.83 M482 47.18 C486.69 46.74, 491.38 46.29, 496.18 45.83 M496.18 45.83 C500.62 45.34, 505.07 44.84, 510.36 44.25 M496.18 45.83 C499.24 45.49, 502.29 45.15, 510.36 44.25 M510.36 44.25 C513.97 43.79, 517.58 43.33, 524.53 42.44 M510.36 44.25 C515.23 43.63, 520.1 43.01, 524.53 42.44 M524.53 42.44 C527.46 42.03, 530.39 41.61, 538.71 40.44 M524.53 42.44 C528.89 41.83, 533.25 41.21, 538.71 40.44 M538.71 40.44 C542.49 39.86, 546.26 39.28, 552.89 38.26 M538.71 40.44 C543 39.78, 547.28 39.12, 552.89 38.26 M552.89 38.26 C556.26 37.71, 559.64 37.15, 567.06 35.93 M552.89 38.26 C557.95 37.43, 563.02 36.6, 567.06 35.93 M567.06 35.93 C571.35 35.19, 575.63 34.45, 581.24 33.48 M567.06 35.93 C572.26 35.03, 577.46 34.14, 581.24 33.48 M581.24 33.48 C585.24 32.76, 589.23 32.04, 595.42 30.93 M581.24 33.48 C585.78 32.66, 590.33 31.85, 595.42 30.93 M595.42 30.93 C599.89 30.11, 604.36 29.28, 609.59 28.32 M595.42 30.93 C600.19 30.05, 604.97 29.17, 609.59 28.32 M609.59 28.32 C614.15 27.47, 618.7 26.61, 623.77 25.67 M609.59 28.32 C613.74 27.54, 617.88 26.77, 623.77 25.67 M623.77 25.67 C627.59 24.95, 631.41 24.23, 637.95 23.01 M623.77 25.67 C627.37 24.99, 630.96 24.32, 637.95 23.01 M637.95 23.01 C641.47 22.35, 645 21.69, 652.12 20.37 M637.95 23.01 C642.33 22.19, 646.71 21.37, 652.12 20.37 M652.12 20.37 C656.89 19.5, 661.66 18.63, 666.3 17.78 M652.12 20.37 C657.78 19.34, 663.43 18.31, 666.3 17.78 M666.3 17.78 C670.08 17.12, 673.86 16.45, 680.48 15.28 M666.3 17.78 C671.23 16.91, 676.15 16.04, 680.48 15.28 M680.48 15.28 C684.71 14.56, 688.94 13.85, 694.65 12.89 M680.48 15.28 C684.65 14.57, 688.82 13.87, 694.65 12.89 M694.65 12.89 C698.71 12.24, 702.77 11.59, 708.83 10.63 M694.65 12.89 C699.26 12.15, 703.87 11.42, 708.83 10.63 M708.83 10.63 C713.75 9.9, 718.66 9.18, 723.01 8.54 M708.83 10.63 C713.13 10, 717.42 9.36, 723.01 8.54 M723.01 8.54 C727.67 7.91, 732.33 7.28, 737.18 6.63 M723.01 8.54 C727.26 7.97, 731.51 7.39, 737.18 6.63 M737.18 6.63 C741.18 6.15, 745.17 5.67, 751.36 4.93 M737.18 6.63 C740.42 6.24, 743.65 5.86, 751.36 4.93 M751.36 4.93 C755.95 4.46, 760.55 3.98, 765.54 3.46 M751.36 4.93 C755.2 4.53, 759.03 4.14, 765.54 3.46 M765.54 3.46 C769.97 3.08, 774.41 2.69, 779.71 2.23 M765.54 3.46 C769.98 3.08, 774.43 2.69, 779.71 2.23 M779.71 2.23 C784.14 1.93, 788.56 1.63, 793.89 1.27 M779.71 2.23 C785.05 1.87, 790.39 1.5, 793.89 1.27 M793.89 1.27 C797.58 1.08, 801.27 0.9, 808.07 0.56 M793.89 1.27 C797.35 1.09, 800.81 0.92, 808.07 0.56 M808.07 0.56 C811.49 0.46, 814.91 0.36, 822.24 0.14 M808.07 0.56 C812.28 0.44, 816.5 0.31, 822.24 0.14 M822.24 0.14 C827.23 0.09, 832.22 0.04, 836.42 0 M822.24 0.14 C827.13 0.09, 832.02 0.04, 836.42 0" stroke="#E03A2A" stroke-width="2.5" fill="none"></path></g></g><mask></mask><g stroke-linecap="round" transform="translate(648.3395487490882 363.8956660746885) rotate(0 170 15)"><path d="M0 0 L340 0 L340 30 L0 30" stroke="none" stroke-width="0" fill="#E03A2A"></path><path d="M0 0 C83.99 0, 167.98 0, 340 0 M0 0 C80.08 0, 160.16 0, 340 0 M340 0 C340 11.29, 340 22.57, 340 30 M340 0 C340 11.32, 340 22.63, 340 30 M340 30 C245.58 30, 151.15 30, 0 30 M340 30 C265.89 30, 191.78 30, 0 30 M0 30 C0 22.73, 0 15.46, 0 0 M0 30 C0 23.73, 0 17.46, 0 0" stroke="#E03A2A" stroke-width="1" fill="none"></path></g><g transform="translate(699.9977518740882 371.34532815213294) rotate(0 118.341796875 7.5)"><text x="0" y="10.740234375" font-family="Helvetica, sans-serif, Segoe UI Emoji" font-size="12px" fill="#F7F2E8" text-anchor="start" style="white-space: pre;" direction="ltr" dominant-baseline="alphabetic">HIDDEN INSTRUCTION  →  REAL ACTION</text></g><g stroke-linecap="round"><g transform="translate(1519.6246535187174 369.35290531808994) rotate(0 58.28022082409791 45)"><path d="M0 0 C0.88 0.02, 1.76 0.05, 4.02 0.11 M4.02 0.11 C5.37 0.21, 6.72 0.32, 8.04 0.43 M8.04 0.43 C9.11 0.57, 10.18 0.71, 12.06 0.96 M12.06 0.96 C12.93 1.13, 13.8 1.29, 16.08 1.71 M16.08 1.71 C17.34 2.01, 18.59 2.32, 20.1 2.68 M20.1 2.68 C20.96 2.93, 21.83 3.18, 24.12 3.85 M24.12 3.85 C25.72 4.41, 27.32 4.96, 28.14 5.24 M28.14 5.24 C29.56 5.81, 30.98 6.38, 32.15 6.85 M32.15 6.85 C33.46 7.44, 34.76 8.03, 36.17 8.67 M36.17 8.67 C37.04 9.11, 37.92 9.55, 40.19 10.7 M40.19 10.7 C41.1 11.21, 42.01 11.72, 44.21 12.95 M44.21 12.95 C45.52 13.75, 46.82 14.54, 48.23 15.41 M48.23 15.41 C49.27 16.1, 50.3 16.79, 52.25 18.09 M52.25 18.09 C53.07 18.68, 53.9 19.27, 56.27 20.98 M56.27 20.98 C57.75 22.11, 59.22 23.25, 60.29 24.08 M60.29 24.08 C61.76 25.29, 63.23 26.51, 64.31 27.4 M64.31 27.4 C65.81 28.71, 67.3 30.03, 68.33 30.93 M68.33 30.93 C69.81 32.31, 71.29 33.69, 72.35 34.67 M72.35 34.67 C73.73 36.03, 75.11 37.39, 76.37 38.63 M76.37 38.63 C77.95 40.28, 79.53 41.92, 80.39 42.81 M80.39 42.81 C81.5 44.02, 82.61 45.23, 84.41 47.19 M84.41 47.19 C85.69 48.67, 86.98 50.14, 88.43 51.8 M88.43 51.8 C89.54 53.13, 90.65 54.46, 92.44 56.61 M92.44 56.61 C93.62 58.08, 94.8 59.56, 96.46 61.64 M96.46 61.64 C97.4 62.86, 98.33 64.07, 100.48 66.88 M100.48 66.88 C102.07 69.04, 103.66 71.2, 104.5 72.34 M104.5 72.34 C106.08 74.57, 107.66 76.79, 108.52 78.01 M108.52 78.01 C109.42 79.33, 110.32 80.65, 112.54 83.9 M112.54 83.9 C113.55 85.42, 114.55 86.95, 116.56 90" stroke="#E03A2A" stroke-width="2.3" fill="none" stroke-dasharray="8 9.8"></path></g></g><mask></mask><g transform="translate(657.9146464982372 639.3529053180899) rotate(0 125.39999999999998 7.5)"><text x="0" y="10.740234375" font-family="Helvetica, sans-serif, Segoe UI Emoji" font-size="12px" fill="#000000" text-anchor="start" style="white-space: pre;" direction="ltr" dominant-baseline="alphabetic">The junction. Where decisions get made</text></g><g stroke-opacity="0.85" fill-opacity="0.85" transform="translate(657.9146464982372 657.3529053180899) rotate(0 102.30000000000001 7.5)"><text x="0" y="10.740234375" font-family="Helvetica, sans-serif, Segoe UI Emoji" font-size="12px" fill="#000000" text-anchor="start" style="white-space: pre;" direction="ltr" dominant-baseline="alphabetic">— and where governance applies.</text></g><g stroke-linecap="round"><g stroke-opacity="0.7" fill-opacity="0.7" transform="translate(717.9146464982372 634.3529053180899) rotate(0 0 -12.5)"><path d="M0 0 C0 -5.89, 0 -11.77, 0 -25 M0 0 C0 -9.61, 0 -19.22, 0 -25" stroke="#000000" stroke-width="1" fill="none"></path></g></g><mask></mask><g stroke-linecap="round" transform="translate(715.9146464982372 607.3529053180899) rotate(0 2 2)"><path d="M4 2 C4 2.12, 3.99 2.23, 3.97 2.35 C3.95 2.46, 3.92 2.58, 3.88 2.68 C3.84 2.79, 3.79 2.9, 3.73 3 C3.67 3.1, 3.61 3.2, 3.53 3.29 C3.46 3.37, 3.37 3.46, 3.29 3.53 C3.2 3.61, 3.1 3.67, 3 3.73 C2.9 3.79, 2.79 3.84, 2.68 3.88 C2.58 3.92, 2.46 3.95, 2.35 3.97 C2.23 3.99, 2.12 4, 2 4 C1.88 4, 1.77 3.99, 1.65 3.97 C1.54 3.95, 1.42 3.92, 1.32 3.88 C1.21 3.84, 1.1 3.79, 1 3.73 C0.9 3.67, 0.8 3.61, 0.71 3.53 C0.63 3.46, 0.54 3.37, 0.47 3.29 C0.39 3.2, 0.33 3.1, 0.27 3 C0.21 2.9, 0.16 2.79, 0.12 2.68 C0.08 2.58, 0.05 2.46, 0.03 2.35 C0.01 2.23, 0 2.12, 0 2 C0 1.88, 0.01 1.77, 0.03 1.65 C0.05 1.54, 0.08 1.42, 0.12 1.32 C0.16 1.21, 0.21 1.1, 0.27 1 C0.33 0.9, 0.39 0.8, 0.47 0.71 C0.54 0.63, 0.63 0.54, 0.71 0.47 C0.8 0.39, 0.9 0.33, 1 0.27 C1.1 0.21, 1.21 0.16, 1.32 0.12 C1.42 0.08, 1.54 0.05, 1.65 0.03 C1.77 0.01, 1.88 0, 2 0 C2.12 0, 2.23 0.01, 2.35 0.03 C2.46 0.05, 2.58 0.08, 2.68 0.12 C2.79 0.16, 2.9 0.21, 3 0.27 C3.1 0.33, 3.2 0.39, 3.29 0.47 C3.37 0.54, 3.46 0.63, 3.53 0.71 C3.61 0.8, 3.67 0.9, 3.73 1 C3.79 1.1, 3.84 1.21, 3.88 1.32 C3.92 1.42, 3.95 1.54, 3.97 1.65 C3.99 1.77, 3.99 1.94, 4 2 C4.01 2.06, 4.01 1.94, 4 2" stroke="none" stroke-width="0" fill="#E03A2A"></path><path d="M4 2 C4 2.12, 3.99 2.23, 3.97 2.35 C3.95 2.46, 3.92 2.58, 3.88 2.68 C3.84 2.79, 3.79 2.9, 3.73 3 C3.67 3.1, 3.61 3.2, 3.53 3.29 C3.46 3.37, 3.37 3.46, 3.29 3.53 C3.2 3.61, 3.1 3.67, 3 3.73 C2.9 3.79, 2.79 3.84, 2.68 3.88 C2.58 3.92, 2.46 3.95, 2.35 3.97 C2.23 3.99, 2.12 4, 2 4 C1.88 4, 1.77 3.99, 1.65 3.97 C1.54 3.95, 1.42 3.92, 1.32 3.88 C1.21 3.84, 1.1 3.79, 1 3.73 C0.9 3.67, 0.8 3.61, 0.71 3.53 C0.63 3.46, 0.54 3.37, 0.47 3.29 C0.39 3.2, 0.33 3.1, 0.27 3 C0.21 2.9, 0.16 2.79, 0.12 2.68 C0.08 2.58, 0.05 2.46, 0.03 2.35 C0.01 2.23, 0 2.12, 0 2 C0 1.88, 0.01 1.77, 0.03 1.65 C0.05 1.54, 0.08 1.42, 0.12 1.32 C0.16 1.21, 0.21 1.1, 0.27 1 C0.33 0.9, 0.39 0.8, 0.47 0.71 C0.54 0.63, 0.63 0.54, 0.71 0.47 C0.8 0.39, 0.9 0.33, 1 0.27 C1.1 0.21, 1.21 0.16, 1.32 0.12 C1.42 0.08, 1.54 0.05, 1.65 0.03 C1.77 0.01, 1.88 0, 2 0 C2.12 0, 2.23 0.01, 2.35 0.03 C2.46 0.05, 2.58 0.08, 2.68 0.12 C2.79 0.16, 2.9 0.21, 3 0.27 C3.1 0.33, 3.2 0.39, 3.29 0.47 C3.37 0.54, 3.46 0.63, 3.53 0.71 C3.61 0.8, 3.67 0.9, 3.73 1 C3.79 1.1, 3.84 1.21, 3.88 1.32 C3.92 1.42, 3.95 1.54, 3.97 1.65 C3.99 1.77, 3.99 1.94, 4 2 C4.01 2.06, 4.01 1.94, 4 2" stroke="#E03A2A" stroke-width="1" fill="none"></path></g><g stroke-opacity="0.8" fill-opacity="0.8" transform="translate(1637.9146464982373 529.3529053180899) rotate(0 57.47500000000002 6.875)"><text x="0" y="9.84521484375" font-family="Helvetica, sans-serif, Segoe UI Emoji" font-size="11px" fill="#000000" text-anchor="start" style="white-space: pre;" direction="ltr" dominant-baseline="alphabetic">Where data ends up.</text></g><g stroke-linecap="round"><g stroke-opacity="0.7" fill-opacity="0.7" transform="translate(1667.9049224223677 525.8062612342682) rotate(0 0 -13)"><path d="M0 0 C0 -6.4, 0 -12.8, 0 -26 M0 0 C0 -8.27, 0 -16.55, 0 -26" stroke="#000000" stroke-width="1" fill="none"></path></g></g><mask></mask><g stroke-linecap="round"><g transform="translate(137.91464649823718 1059.35290531809) rotate(0 780 0)"><path d="M0 0 C608.24 0, 1216.47 0, 1560 0 M0 0 C557.11 0, 1114.22 0, 1560 0" stroke="#000000" stroke-width="0.6" fill="none"></path></g></g><mask></mask><g stroke-opacity="0.7" fill-opacity="0.7" transform="translate(137.91464649823718 1089.35290531809) rotate(0 272.25000000000006 6.875)"><text x="0" y="9.84521484375" font-family="Helvetica, sans-serif, Segoe UI Emoji" font-size="11px" fill="#000000" text-anchor="start" style="white-space: pre;" direction="ltr" dominant-baseline="alphabetic">Hairlines indicate connection paths. Red indicates the highlighted scenario, not severity.</text></g><g stroke-opacity="0.7" fill-opacity="0.7" transform="translate(1637.9146464982373 1089.35290531809) rotate(0 24.200000000000045 6.875)"><text x="0" y="9.84521484375" font-family="Helvetica, sans-serif, Segoe UI Emoji" font-size="11px" fill="#000000" text-anchor="start" style="white-space: pre;" direction="ltr" dominant-baseline="alphabetic">Exec . 3</text></g><g stroke-linecap="round" transform="translate(1665.7883112054174 496.969764812698) rotate(0 2 2)"><path d="M4 2 C4 2.12, 3.99 2.23, 3.97 2.35 C3.95 2.46, 3.92 2.58, 3.88 2.68 C3.84 2.79, 3.79 2.9, 3.73 3 C3.67 3.1, 3.61 3.2, 3.53 3.29 C3.46 3.37, 3.37 3.46, 3.29 3.53 C3.2 3.61, 3.1 3.67, 3 3.73 C2.9 3.79, 2.79 3.84, 2.68 3.88 C2.58 3.92, 2.46 3.95, 2.35 3.97 C2.23 3.99, 2.12 4, 2 4 C1.88 4, 1.77 3.99, 1.65 3.97 C1.54 3.95, 1.42 3.92, 1.32 3.88 C1.21 3.84, 1.1 3.79, 1 3.73 C0.9 3.67, 0.8 3.61, 0.71 3.53 C0.63 3.46, 0.54 3.37, 0.47 3.29 C0.39 3.2, 0.33 3.1, 0.27 3 C0.21 2.9, 0.16 2.79, 0.12 2.68 C0.08 2.58, 0.05 2.46, 0.03 2.35 C0.01 2.23, 0 2.12, 0 2 C0 1.88, 0.01 1.77, 0.03 1.65 C0.05 1.54, 0.08 1.42, 0.12 1.32 C0.16 1.21, 0.21 1.1, 0.27 1 C0.33 0.9, 0.39 0.8, 0.47 0.71 C0.54 0.63, 0.63 0.54, 0.71 0.47 C0.8 0.39, 0.9 0.33, 1 0.27 C1.1 0.21, 1.21 0.16, 1.32 0.12 C1.42 0.08, 1.54 0.05, 1.65 0.03 C1.77 0.01, 1.88 0, 2 0 C2.12 0, 2.23 0.01, 2.35 0.03 C2.46 0.05, 2.58 0.08, 2.68 0.12 C2.79 0.16, 2.9 0.21, 3 0.27 C3.1 0.33, 3.2 0.39, 3.29 0.47 C3.37 0.54, 3.46 0.63, 3.53 0.71 C3.61 0.8, 3.67 0.9, 3.73 1 C3.79 1.1, 3.84 1.21, 3.88 1.32 C3.92 1.42, 3.95 1.54, 3.97 1.65 C3.99 1.77, 3.99 1.94, 4 2 C4.01 2.06, 4.01 1.94, 4 2" stroke="none" stroke-width="0" fill="#E03A2A"></path><path d="M4 2 C4 2.12, 3.99 2.23, 3.97 2.35 C3.95 2.46, 3.92 2.58, 3.88 2.68 C3.84 2.79, 3.79 2.9, 3.73 3 C3.67 3.1, 3.61 3.2, 3.53 3.29 C3.46 3.37, 3.37 3.46, 3.29 3.53 C3.2 3.61, 3.1 3.67, 3 3.73 C2.9 3.79, 2.79 3.84, 2.68 3.88 C2.58 3.92, 2.46 3.95, 2.35 3.97 C2.23 3.99, 2.12 4, 2 4 C1.88 4, 1.77 3.99, 1.65 3.97 C1.54 3.95, 1.42 3.92, 1.32 3.88 C1.21 3.84, 1.1 3.79, 1 3.73 C0.9 3.67, 0.8 3.61, 0.71 3.53 C0.63 3.46, 0.54 3.37, 0.47 3.29 C0.39 3.2, 0.33 3.1, 0.27 3 C0.21 2.9, 0.16 2.79, 0.12 2.68 C0.08 2.58, 0.05 2.46, 0.03 2.35 C0.01 2.23, 0 2.12, 0 2 C0 1.88, 0.01 1.77, 0.03 1.65 C0.05 1.54, 0.08 1.42, 0.12 1.32 C0.16 1.21, 0.21 1.1, 0.27 1 C0.33 0.9, 0.39 0.8, 0.47 0.71 C0.54 0.63, 0.63 0.54, 0.71 0.47 C0.8 0.39, 0.9 0.33, 1 0.27 C1.1 0.21, 1.21 0.16, 1.32 0.12 C1.42 0.08, 1.54 0.05, 1.65 0.03 C1.77 0.01, 1.88 0, 2 0 C2.12 0, 2.23 0.01, 2.35 0.03 C2.46 0.05, 2.58 0.08, 2.68 0.12 C2.79 0.16, 2.9 0.21, 3 0.27 C3.1 0.33, 3.2 0.39, 3.29 0.47 C3.37 0.54, 3.46 0.63, 3.53 0.71 C3.61 0.8, 3.67 0.9, 3.73 1 C3.79 1.1, 3.84 1.21, 3.88 1.32 C3.92 1.42, 3.95 1.54, 3.97 1.65 C3.99 1.77, 3.99 1.94, 4 2 C4.01 2.06, 4.01 1.94, 4 2" stroke="#E03A2A" stroke-width="1" fill="none"></path></g></svg>