<?xml version="1.0" standalone="no"?>
<!DOCTYPE svg PUBLIC "-//W3C//DTD SVG 1.1//EN" "http://www.w3.org/Graphics/SVG/1.1/DTD/svg11.dtd">
<svg version="1.1" xmlns="http://www.w3.org/2000/svg" viewBox="0 0 1820 1220" width="1820" height="1220"><!-- svg-source:excalidraw --><metadata></metadata><defs><style class="style-fonts">
      </style></defs><rect x="0" y="0" width="1820" height="1220" fill="#F7F2E8"></rect><g stroke-linecap="round" transform="translate(10 10) rotate(0 900 600)"><path d="M0 0 L1800 0 L1800 1200 L0 1200" stroke="none" stroke-width="0" fill="#F7F2E8"></path><path d="M0 0 C475.02 0, 950.04 0, 1800 0 M0 0 C544.08 0, 1088.17 0, 1800 0 M1800 0 C1800 374.6, 1800 749.2, 1800 1200 M1800 0 C1800 294.11, 1800 588.21, 1800 1200 M1800 1200 C1126.46 1200, 452.92 1200, 0 1200 M1800 1200 C1393.25 1200, 986.49 1200, 0 1200 M0 1200 C0 955.33, 0 710.66, 0 0 M0 1200 C0 879.28, 0 558.55, 0 0" stroke="#F7F2E8" stroke-width="1" fill="none"></path></g><g transform="translate(123.79526852071069 80.24079553009636) rotate(0 92.4 7.5)"><text x="0" y="10.740234375" font-family="Helvetica, sans-serif, Segoe UI Emoji" font-size="12px" fill="#000000" text-anchor="start" style="white-space: pre;" direction="ltr" dominant-baseline="alphabetic">EXECUTIVE BRIEF / SECTION 02</text></g><g transform="translate(123.79526852071069 115.24079553009636) rotate(0 465.29999999999995 22.5)"><text x="0" y="32.220703125" font-family="Helvetica, sans-serif, Segoe UI Emoji" font-size="36px" fill="#000000" text-anchor="start" style="white-space: pre;" direction="ltr" dominant-baseline="alphabetic">The cost curve of AI feature development bends.</text></g><g stroke-opacity="0.7" fill-opacity="0.7" transform="translate(123.79526852071069 168.24079553009636) rotate(0 297 11.25)"><text x="0" y="16.1103515625" font-family="Helvetica, sans-serif, Segoe UI Emoji" font-size="18px" fill="#000000" text-anchor="start" style="white-space: pre;" direction="ltr" dominant-baseline="alphabetic">From 'linear in features' to 'linear in systems integrated.'</text></g><g stroke-opacity="0.8" fill-opacity="0.8" transform="translate(123.79526852071069 202.24079553009636) rotate(0 398.49951171875 8.125)"><text x="0" y="11.63525390625" font-family="Helvetica, sans-serif, Segoe UI Emoji" font-size="13px" fill="#9A9A9A" text-anchor="start" style="white-space: pre;" direction="ltr" dominant-baseline="alphabetic">MCP (Model Context Protocol) — an emerging open standard for connecting AI agents to enterprise systems. Like USB for AI integrations.</text></g><g stroke-linecap="round" transform="translate(1503.9538847316235 80.24079553009636) rotate(0 90 22)"><path d="M0 0 L180 0 L180 44 L0 44" stroke="none" stroke-width="0" fill="#E03A2A"></path><path d="M0 0 C43.34 0, 86.68 0, 180 0 M0 0 C61.42 0, 122.83 0, 180 0 M180 0 C180 13.03, 180 26.07, 180 44 M180 0 C180 14.51, 180 29.03, 180 44 M180 44 C132.18 44, 84.37 44, 0 44 M180 44 C126.52 44, 73.05 44, 0 44 M0 44 C0 32.88, 0 21.77, 0 0 M0 44 C0 29.7, 0 15.4, 0 0" stroke="#E03A2A" stroke-width="1" fill="none"></path></g><g transform="translate(1533.9538847316235 93.49079553009636) rotate(0 34.64999999999998 8.75)"><text x="0" y="12.5302734375" font-family="Helvetica, sans-serif, Segoe UI Emoji" font-size="14px" fill="#F7F2E8" text-anchor="start" style="white-space: pre;" direction="ltr" dominant-baseline="alphabetic">EXEC . 02</text></g><g stroke-linecap="round"><g transform="translate(123.79526852071069 235.24079553009636) rotate(0 780 0)"><path d="M0 0 C411.26 0, 822.52 0, 1560 0 M0 0 C618.12 0, 1236.24 0, 1560 0" stroke="#000000" stroke-width="1" fill="none"></path></g></g><mask></mask><g stroke-linecap="round"><g transform="translate(243.7952685207107 290.24079553009636) rotate(0 0 270)"><path d="M0 0 C0 190.52, 0 381.04, 0 540 M0 0 C0 157.04, 0 314.08, 0 540" stroke="#000000" stroke-width="1.2" fill="none"></path></g></g><mask></mask><g stroke-linecap="round"><g transform="translate(243.7952685207107 830.2407955300964) rotate(0 495 0)"><path d="M0 0 C219.24 0, 438.47 0, 990 0 M0 0 C392.01 0, 784.03 0, 990 0" stroke="#000000" stroke-width="1.2" fill="none"></path></g></g><mask></mask><g stroke-linecap="round"><g stroke-opacity="0.2" fill-opacity="0.2" transform="translate(323.7952685207107 290.24079553009636) rotate(0 0 270)"><path d="M0 0 C0 115.26, 0 230.52, 0 540 M0 0 C0 178.27, 0 356.55, 0 540" stroke="#9A9A9A" stroke-width="0.5" fill="none"></path></g></g><mask></mask><g stroke-linecap="round"><g stroke-opacity="0.2" fill-opacity="0.2" transform="translate(453.7952685207107 290.24079553009636) rotate(0 0 270)"><path d="M0 0 C0 126.84, 0 253.68, 0 540 M0 0 C0 131.95, 0 263.9, 0 540" stroke="#9A9A9A" stroke-width="0.5" fill="none"></path></g></g><mask></mask><g stroke-linecap="round"><g stroke-opacity="0.2" fill-opacity="0.2" transform="translate(583.7952685207107 290.24079553009636) rotate(0 0 270)"><path d="M0 0 C0 135.71, 0 271.42, 0 540 M0 0 C0 175.86, 0 351.72, 0 540" stroke="#9A9A9A" stroke-width="0.5" fill="none"></path></g></g><mask></mask><g stroke-linecap="round"><g stroke-opacity="0.2" fill-opacity="0.2" transform="translate(713.7952685207107 290.24079553009636) rotate(0 0 270)"><path d="M0 0 C0 187.6, 0 375.19, 0 540 M0 0 C0 143.13, 0 286.27, 0 540" stroke="#9A9A9A" stroke-width="0.5" fill="none"></path></g></g><mask></mask><g stroke-linecap="round"><g stroke-opacity="0.2" fill-opacity="0.2" transform="translate(843.7952685207107 290.24079553009636) rotate(0 0 270)"><path d="M0 0 C0 196.77, 0 393.55, 0 540 M0 0 C0 194.27, 0 388.53, 0 540" stroke="#9A9A9A" stroke-width="0.5" fill="none"></path></g></g><mask></mask><g stroke-linecap="round"><g stroke-opacity="0.2" fill-opacity="0.2" transform="translate(973.7952685207107 290.24079553009636) rotate(0 0 270)"><path d="M0 0 C0 196.36, 0 392.72, 0 540 M0 0 C0 109.86, 0 219.73, 0 540" stroke="#9A9A9A" stroke-width="0.5" fill="none"></path></g></g><mask></mask><g stroke-linecap="round"><g stroke-opacity="0.2" fill-opacity="0.2" transform="translate(1103.7952685207106 290.24079553009636) rotate(0 0 270)"><path d="M0 0 C0 126.81, 0 253.62, 0 540 M0 0 C0 166.97, 0 333.94, 0 540" stroke="#9A9A9A" stroke-width="0.5" fill="none"></path></g></g><mask></mask><g stroke-linecap="round"><g stroke-opacity="0.2" fill-opacity="0.2" transform="translate(1234.090316160432 290.24079553009636) rotate(0 0 270)"><path d="M0 0 C0 151.49, 0 302.97, 0 540 M0 0 C0 190.44, 0 380.88, 0 540" stroke="#9A9A9A" stroke-width="0.5" fill="none"></path></g></g><mask></mask><g stroke-linecap="round"><g transform="translate(323.7952685207107 830.2407955300964) rotate(0 0 4)"><path d="M0 0 C0 2.66, 0 5.31, 0 8 M0 0 C0 2.63, 0 5.25, 0 8" stroke="#000000" stroke-width="1" fill="none"></path></g></g><mask></mask><g transform="translate(320.7702685207107 844.2407955300964) rotate(0 3.0250000000000057 6.875)"><text x="0" y="9.84521484375" font-family="Helvetica, sans-serif, Segoe UI Emoji" font-size="11px" fill="#000000" text-anchor="start" style="white-space: pre;" direction="ltr" dominant-baseline="alphabetic">1</text></g><g stroke-linecap="round"><g transform="translate(453.7952685207107 830.2407955300964) rotate(0 0 4)"><path d="M0 0 C0 2.81, 0 5.63, 0 8 M0 0 C0 2.34, 0 4.68, 0 8" stroke="#000000" stroke-width="1" fill="none"></path></g></g><mask></mask><g transform="translate(450.7702685207107 844.2407955300964) rotate(0 3.0250000000000057 6.875)"><text x="0" y="9.84521484375" font-family="Helvetica, sans-serif, Segoe UI Emoji" font-size="11px" fill="#000000" text-anchor="start" style="white-space: pre;" direction="ltr" dominant-baseline="alphabetic">2</text></g><g stroke-linecap="round"><g transform="translate(583.7952685207107 830.2407955300964) rotate(0 0 4)"><path d="M0 0 C0 1.84, 0 3.69, 0 8 M0 0 C0 3.04, 0 6.08, 0 8" stroke="#000000" stroke-width="1" fill="none"></path></g></g><mask></mask><g transform="translate(580.7702685207107 844.2407955300964) rotate(0 3.0249999999999773 6.875)"><text x="0" y="9.84521484375" font-family="Helvetica, sans-serif, Segoe UI Emoji" font-size="11px" fill="#000000" text-anchor="start" style="white-space: pre;" direction="ltr" dominant-baseline="alphabetic">3</text></g><g stroke-linecap="round"><g transform="translate(713.7952685207107 830.2407955300964) rotate(0 0 4)"><path d="M0 0 C0 2.68, 0 5.35, 0 8 M0 0 C0 1.89, 0 3.78, 0 8" stroke="#000000" stroke-width="1" fill="none"></path></g></g><mask></mask><g transform="translate(710.7702685207107 844.2407955300964) rotate(0 3.0249999999999773 6.875)"><text x="0" y="9.84521484375" font-family="Helvetica, sans-serif, Segoe UI Emoji" font-size="11px" fill="#000000" text-anchor="start" style="white-space: pre;" direction="ltr" dominant-baseline="alphabetic">4</text></g><g stroke-linecap="round"><g transform="translate(843.7952685207107 830.2407955300964) rotate(0 0 4)"><path d="M0 0 C0 2.3, 0 4.6, 0 8 M0 0 C0 2.23, 0 4.45, 0 8" stroke="#000000" stroke-width="1" fill="none"></path></g></g><mask></mask><g transform="translate(840.7702685207107 844.2407955300964) rotate(0 3.0249999999999773 6.875)"><text x="0" y="9.84521484375" font-family="Helvetica, sans-serif, Segoe UI Emoji" font-size="11px" fill="#000000" text-anchor="start" style="white-space: pre;" direction="ltr" dominant-baseline="alphabetic">5</text></g><g stroke-linecap="round"><g transform="translate(973.7952685207107 830.2407955300964) rotate(0 0 4)"><path d="M0 0 C0 2.43, 0 4.87, 0 8 M0 0 C0 1.79, 0 3.57, 0 8" stroke="#000000" stroke-width="1" fill="none"></path></g></g><mask></mask><g transform="translate(970.7702685207107 844.2407955300964) rotate(0 3.0249999999999773 6.875)"><text x="0" y="9.84521484375" font-family="Helvetica, sans-serif, Segoe UI Emoji" font-size="11px" fill="#000000" text-anchor="start" style="white-space: pre;" direction="ltr" dominant-baseline="alphabetic">6</text></g><g stroke-linecap="round"><g transform="translate(1103.7952685207106 830.2407955300964) rotate(0 0 4)"><path d="M0 0 C0 1.61, 0 3.22, 0 8 M0 0 C0 2.51, 0 5.01, 0 8" stroke="#000000" stroke-width="1" fill="none"></path></g></g><mask></mask><g transform="translate(1100.7702685207105 844.2407955300964) rotate(0 3.0249999999999773 6.875)"><text x="0" y="9.84521484375" font-family="Helvetica, sans-serif, Segoe UI Emoji" font-size="11px" fill="#000000" text-anchor="start" style="white-space: pre;" direction="ltr" dominant-baseline="alphabetic">7</text></g><g stroke-linecap="round"><g transform="translate(1233.8986539373773 830.2407955300964) rotate(0 0 4)"><path d="M0 0 C0 2.03, 0 4.06, 0 8 M0 0 C0 2.22, 0 4.45, 0 8" stroke="#000000" stroke-width="1" fill="none"></path></g></g><mask></mask><g transform="translate(1230.7702685207105 844.2407955300964) rotate(0 3.0249999999999773 6.875)"><text x="0" y="9.84521484375" font-family="Helvetica, sans-serif, Segoe UI Emoji" font-size="11px" fill="#000000" text-anchor="start" style="white-space: pre;" direction="ltr" dominant-baseline="alphabetic">8</text></g><g transform="translate(243.7952685207107 872.2407955300964) rotate(0 95.69999999999999 7.5)"><text x="0" y="10.740234375" font-family="Helvetica, sans-serif, Segoe UI Emoji" font-size="12px" fill="#000000" text-anchor="start" style="white-space: pre;" direction="ltr" dominant-baseline="alphabetic">Number of AI features shipped</text></g><g stroke-linecap="round"><g transform="translate(237.7952685207107 398.24079553009636) rotate(0 3 0)"><path d="M0 0 C1.25 0, 2.51 0, 6 0 M0 0 C1.28 0, 2.55 0, 6 0" stroke="#000000" stroke-width="1" fill="none"></path></g></g><mask></mask><g stroke-linecap="round"><g transform="translate(237.7952685207107 506.24079553009636) rotate(0 3 0)"><path d="M0 0 C2.23 0, 4.47 0, 6 0 M0 0 C1.45 0, 2.9 0, 6 0" stroke="#000000" stroke-width="1" fill="none"></path></g></g><mask></mask><g stroke-linecap="round"><g transform="translate(237.7952685207107 614.2407955300964) rotate(0 3 0)"><path d="M0 0 C2.14 0, 4.28 0, 6 0 M0 0 C1.46 0, 2.93 0, 6 0" stroke="#000000" stroke-width="1" fill="none"></path></g></g><mask></mask><g stroke-linecap="round"><g transform="translate(237.7952685207107 722.2407955300964) rotate(0 3 0)"><path d="M0 0 C2.02 0, 4.04 0, 6 0 M0 0 C2.06 0, 4.13 0, 6 0" stroke="#000000" stroke-width="1" fill="none"></path></g></g><mask></mask><g transform="translate(-59.25473147928932 552.1157955300964) rotate(-90 193.05 8.125)"><text x="0" y="11.63525390625" font-family="Helvetica, sans-serif, Segoe UI Emoji" font-size="13px" fill="#000000" text-anchor="start" style="white-space: pre;" direction="ltr" dominant-baseline="alphabetic">Marginal cost to ship the next feature  (illustrative)</text></g><g stroke-linecap="round"><g transform="translate(323.7952685207107 650.2407955300964) rotate(0 455 -119.70000000000002)"><path d="M0 0 C3.93 -0.66, 7.86 -1.32, 13.19 -2.21 M13.19 -2.21 C18.31 -3.08, 23.42 -3.95, 26.38 -4.46 M26.38 -4.46 C30.93 -5.25, 35.49 -6.03, 39.57 -6.74 M39.57 -6.74 C42.43 -7.24, 45.29 -7.75, 52.75 -9.06 M52.75 -9.06 C55.54 -9.56, 58.33 -10.06, 65.94 -11.42 M65.94 -11.42 C70 -12.16, 74.05 -12.89, 79.13 -13.81 M79.13 -13.81 C82.98 -14.52, 86.82 -15.23, 92.32 -16.25 M92.32 -16.25 C96.78 -17.08, 101.24 -17.92, 105.51 -18.72 M105.51 -18.72 C109.28 -19.43, 113.04 -20.15, 118.7 -21.22 M118.7 -21.22 C123.02 -22.06, 127.35 -22.89, 131.88 -23.77 M131.88 -23.77 C134.64 -24.3, 137.39 -24.84, 145.07 -26.35 M145.07 -26.35 C148.03 -26.93, 151 -27.52, 158.26 -28.96 M158.26 -28.96 C160.97 -29.51, 163.67 -30.05, 171.45 -31.62 M171.45 -31.62 C175.27 -32.4, 179.08 -33.18, 184.64 -34.31 M184.64 -34.31 C189.38 -35.29, 194.13 -36.27, 197.83 -37.04 M197.83 -37.04 C201.62 -37.83, 205.41 -38.63, 211.01 -39.8 M211.01 -39.8 C215.11 -40.67, 219.21 -41.55, 224.2 -42.61 M224.2 -42.61 C227.81 -43.38, 231.42 -44.16, 237.39 -45.45 M237.39 -45.45 C240.86 -46.2, 244.33 -46.96, 250.58 -48.32 M250.58 -48.32 C255.61 -49.43, 260.63 -50.54, 263.77 -51.24 M263.77 -51.24 C269.04 -52.42, 274.3 -53.59, 276.96 -54.19 M276.96 -54.19 C279.7 -54.81, 282.44 -55.43, 290.14 -57.18 M290.14 -57.18 C294.02 -58.06, 297.9 -58.95, 303.33 -60.2 M303.33 -60.2 C306.03 -60.83, 308.72 -61.45, 316.52 -63.26 M316.52 -63.26 C320.8 -64.27, 325.07 -65.27, 329.71 -66.36 M329.71 -66.36 C333.16 -67.18, 336.61 -68, 342.9 -69.5 M342.9 -69.5 C346.64 -70.4, 350.39 -71.3, 356.09 -72.67 M356.09 -72.67 C360.02 -73.63, 363.96 -74.59, 369.28 -75.88 M369.28 -75.88 C374.48 -77.16, 379.69 -78.44, 382.46 -79.13 M382.46 -79.13 C385.75 -79.95, 389.03 -80.76, 395.65 -82.41 M395.65 -82.41 C399.87 -83.48, 404.1 -84.54, 408.84 -85.73 M408.84 -85.73 C412.14 -86.57, 415.43 -87.41, 422.03 -89.09 M422.03 -89.09 C427 -90.37, 431.96 -91.65, 435.22 -92.49 M435.22 -92.49 C438.23 -93.27, 441.23 -94.05, 448.41 -95.92 M448.41 -95.92 C452.98 -97.12, 457.56 -98.33, 461.59 -99.39 M461.59 -99.39 C465.39 -100.4, 469.19 -101.41, 474.78 -102.9 M474.78 -102.9 C478.63 -103.93, 482.48 -104.97, 487.97 -106.44 M487.97 -106.44 C491.93 -107.51, 495.89 -108.59, 501.16 -110.02 M501.16 -110.02 C505.96 -111.34, 510.76 -112.65, 514.35 -113.64 M514.35 -113.64 C518.13 -114.69, 521.9 -115.73, 527.54 -117.29 M527.54 -117.29 C530.42 -118.1, 533.31 -118.91, 540.72 -120.98 M540.72 -120.98 C543.5 -121.77, 546.27 -122.55, 553.91 -124.71 M553.91 -124.71 C556.92 -125.57, 559.93 -126.43, 567.1 -128.48 M567.1 -128.48 C571.87 -129.86, 576.65 -131.23, 580.29 -132.28 M580.29 -132.28 C584.14 -133.4, 587.99 -134.52, 593.48 -136.12 M593.48 -136.12 C598.06 -137.47, 602.64 -138.82, 606.67 -140 M606.67 -140 C609.98 -140.98, 613.3 -141.97, 619.86 -143.91 M619.86 -143.91 C623.49 -145, 627.12 -146.09, 633.04 -147.87 M633.04 -147.87 C637.02 -149.07, 641 -150.27, 646.23 -151.85 M646.23 -151.85 C650.78 -153.24, 655.32 -154.63, 659.42 -155.88 M659.42 -155.88 C662.1 -156.7, 664.78 -157.53, 672.61 -159.94 M672.61 -159.94 C675.66 -160.89, 678.72 -161.84, 685.8 -164.04 M685.8 -164.04 C689.69 -165.26, 693.59 -166.48, 698.99 -168.18 M698.99 -168.18 C702.65 -169.34, 706.32 -170.5, 712.17 -172.35 M712.17 -172.35 C716.24 -173.65, 720.31 -174.95, 725.36 -176.56 M725.36 -176.56 C729.04 -177.75, 732.71 -178.93, 738.55 -180.81 M738.55 -180.81 C743.51 -182.42, 748.47 -184.03, 751.74 -185.09 M751.74 -185.09 C755.27 -186.25, 758.81 -187.41, 764.93 -189.42 M764.93 -189.42 C768.2 -190.5, 771.47 -191.58, 778.12 -193.77 M778.12 -193.77 C782.19 -195.13, 786.26 -196.49, 791.3 -198.17 M791.3 -198.17 C795.3 -199.51, 799.3 -200.86, 804.49 -202.6 M804.49 -202.6 C808.17 -203.85, 811.84 -205.09, 817.68 -207.07 M817.68 -207.07 C822.43 -208.7, 827.18 -210.32, 830.87 -211.58 M830.87 -211.58 C834.27 -212.75, 837.67 -213.92, 844.06 -216.12 M844.06 -216.12 C847.91 -217.46, 851.77 -218.8, 857.25 -220.71 M857.25 -220.71 C861.43 -222.17, 865.61 -223.64, 870.43 -225.32 M870.43 -225.32 C873.58 -226.43, 876.72 -227.54, 883.62 -229.98 M883.62 -229.98 C887.65 -231.41, 891.68 -232.84, 896.81 -234.67 M896.81 -234.67 C899.66 -235.69, 902.5 -236.71, 910 -239.4" stroke="#000000" stroke-width="2" fill="none" stroke-dasharray="8 9.5"></path></g></g><mask></mask><g stroke-linecap="round"><g transform="translate(323.7952685207107 380.24079553009636) rotate(0 454.3329169042844 206.9993357432832)"><path d="M0 0 C3.85 6.71, 7.69 13.41, 13.17 22.96 M0 0 C2.74 4.78, 5.48 9.56, 13.17 22.96 M13.17 22.96 C17.33 29.82, 21.5 36.68, 26.34 44.67 M13.17 22.96 C16.64 28.67, 20.1 34.39, 26.34 44.67 M26.34 44.67 C29.76 50, 33.18 55.33, 39.51 65.2 M26.34 44.67 C31.54 52.78, 36.75 60.89, 39.51 65.2 M39.51 65.2 C44.69 72.84, 49.87 80.48, 52.68 84.62 M39.51 65.2 C43.51 71.1, 47.52 77.01, 52.68 84.62 M52.68 84.62 C56.48 89.91, 60.28 95.21, 65.85 102.98 M52.68 84.62 C55.71 88.84, 58.74 93.07, 65.85 102.98 M65.85 102.98 C69.61 107.94, 73.37 112.9, 79.01 120.35 M65.85 102.98 C70.92 109.67, 75.99 116.35, 79.01 120.35 M79.01 120.35 C83.8 126.32, 88.59 132.29, 92.18 136.77 M79.01 120.35 C84.05 126.63, 89.09 132.91, 92.18 136.77 M92.18 136.77 C94.92 140, 97.65 143.22, 105.35 152.3 M92.18 136.77 C95.74 140.97, 99.3 145.16, 105.35 152.3 M105.35 152.3 C109.03 156.4, 112.7 160.5, 118.52 166.99 M105.35 152.3 C110.11 157.61, 114.87 162.92, 118.52 166.99 M118.52 166.99 C122.25 170.93, 125.98 174.86, 131.69 180.89 M118.52 166.99 C122.01 170.67, 125.49 174.35, 131.69 180.89 M131.69 180.89 C134.83 184.02, 137.97 187.15, 144.86 194.03 M131.69 180.89 C135.87 185.05, 140.04 189.22, 144.86 194.03 M144.86 194.03 C149.41 198.32, 153.96 202.61, 158.03 206.45 M144.86 194.03 C147.68 196.68, 150.49 199.34, 158.03 206.45 M158.03 206.45 C161.39 209.45, 164.75 212.45, 171.2 218.2 M158.03 206.45 C161.2 209.28, 164.37 212.11, 171.2 218.2 M171.2 218.2 C175.64 221.96, 180.09 225.71, 184.37 229.32 M171.2 218.2 C175.2 221.58, 179.21 224.96, 184.37 229.32 M184.37 229.32 C188.99 233.01, 193.62 236.71, 197.54 239.83 M184.37 229.32 C189.15 233.14, 193.94 236.96, 197.54 239.83 M197.54 239.83 C201.64 242.93, 205.74 246.02, 210.71 249.77 M197.54 239.83 C200.99 242.44, 204.44 245.04, 210.71 249.77 M210.71 249.77 C215.43 253.14, 220.16 256.52, 223.87 259.17 M210.71 249.77 C215.42 253.14, 220.13 256.5, 223.87 259.17 M223.87 259.17 C226.89 261.2, 229.9 263.24, 237.04 268.06 M223.87 259.17 C228.55 262.33, 233.23 265.49, 237.04 268.06 M237.04 268.06 C241.24 270.74, 245.45 273.43, 250.21 276.47 M237.04 268.06 C241.47 270.89, 245.91 273.72, 250.21 276.47 M250.21 276.47 C254.95 279.33, 259.69 282.2, 263.38 284.42 M250.21 276.47 C255.37 279.59, 260.54 282.7, 263.38 284.42 M263.38 284.42 C267.1 286.54, 270.81 288.67, 276.55 291.94 M263.38 284.42 C266.71 286.32, 270.03 288.22, 276.55 291.94 M276.55 291.94 C280.31 293.97, 284.07 296, 289.72 299.06 M276.55 291.94 C280.77 294.22, 284.99 296.5, 289.72 299.06 M289.72 299.06 C293.78 301.13, 297.84 303.2, 302.89 305.78 M289.72 299.06 C293.67 301.07, 297.63 303.09, 302.89 305.78 M302.89 305.78 C306.77 307.66, 310.66 309.54, 316.06 312.14 M302.89 305.78 C305.92 307.25, 308.95 308.71, 316.06 312.14 M316.06 312.14 C319.57 313.75, 323.08 315.35, 329.23 318.16 M316.06 312.14 C320.19 314.03, 324.33 315.92, 329.23 318.16 M329.23 318.16 C334.33 320.36, 339.43 322.57, 342.4 323.85 M329.23 318.16 C333.85 320.16, 338.48 322.16, 342.4 323.85 M342.4 323.85 C345.5 325.12, 348.61 326.39, 355.56 329.23 M342.4 323.85 C347.26 325.84, 352.12 327.82, 355.56 329.23 M355.56 329.23 C359.14 330.61, 362.71 331.99, 368.73 334.32 M355.56 329.23 C358.91 330.52, 362.25 331.81, 368.73 334.32 M368.73 334.32 C372.74 335.78, 376.74 337.24, 381.9 339.13 M368.73 334.32 C373.76 336.15, 378.79 337.99, 381.9 339.13 M381.9 339.13 C386.69 340.79, 391.48 342.44, 395.07 343.68 M381.9 339.13 C385.19 340.27, 388.48 341.4, 395.07 343.68 M395.07 343.68 C399.92 345.27, 404.78 346.85, 408.24 347.99 M395.07 343.68 C399.13 345.01, 403.18 346.33, 408.24 347.99 M408.24 347.99 C413.41 349.58, 418.58 351.18, 421.41 352.06 M408.24 347.99 C413.38 349.57, 418.51 351.16, 421.41 352.06 M421.41 352.06 C425.84 353.35, 430.26 354.65, 434.58 355.91 M421.41 352.06 C425.95 353.39, 430.5 354.71, 434.58 355.91 M434.58 355.91 C439.76 357.34, 444.95 358.78, 447.75 359.55 M434.58 355.91 C438.1 356.88, 441.63 357.86, 447.75 359.55 M447.75 359.55 C452 360.66, 456.26 361.77, 460.92 362.99 M447.75 359.55 C452.1 360.69, 456.46 361.83, 460.92 362.99 M460.92 362.99 C465.04 364.01, 469.17 365.03, 474.09 366.25 M460.92 362.99 C463.76 363.69, 466.59 364.4, 474.09 366.25 M474.09 366.25 C477.44 367.03, 480.8 367.82, 487.26 369.33 M474.09 366.25 C478.61 367.31, 483.13 368.36, 487.26 369.33 M487.26 369.33 C489.98 369.93, 492.7 370.53, 500.42 372.24 M487.26 369.33 C491.3 370.22, 495.35 371.12, 500.42 372.24 M500.42 372.24 C503.93 372.98, 507.44 373.71, 513.59 375 M500.42 372.24 C504.4 373.07, 508.38 373.91, 513.59 375 M513.59 375 C516.73 375.62, 519.87 376.24, 526.76 377.6 M513.59 375 C518.3 375.93, 523 376.86, 526.76 377.6 M526.76 377.6 C530.74 378.35, 534.72 379.09, 539.93 380.06 M526.76 377.6 C531.59 378.5, 536.42 379.41, 539.93 380.06 M539.93 380.06 C543.64 380.72, 547.36 381.38, 553.1 382.39 M539.93 380.06 C544.15 380.81, 548.37 381.56, 553.1 382.39 M553.1 382.39 C557.25 383.09, 561.4 383.78, 566.27 384.6 M553.1 382.39 C557.54 383.14, 561.97 383.88, 566.27 384.6 M566.27 384.6 C570.5 385.27, 574.73 385.94, 579.44 386.68 M566.27 384.6 C570.12 385.21, 573.97 385.82, 579.44 386.68 M579.44 386.68 C582.99 387.21, 586.53 387.74, 592.61 388.65 M579.44 386.68 C582.78 387.18, 586.12 387.68, 592.61 388.65 M592.61 388.65 C595.88 389.12, 599.16 389.58, 605.78 390.52 M592.61 388.65 C596.68 389.23, 600.75 389.81, 605.78 390.52 M605.78 390.52 C610.21 391.11, 614.64 391.7, 618.95 392.28 M605.78 390.52 C611.03 391.22, 616.28 391.92, 618.95 392.28 M618.95 392.28 C622.46 392.72, 625.97 393.17, 632.12 393.95 M618.95 392.28 C623.52 392.86, 628.1 393.44, 632.12 393.95 M632.12 393.95 C636.05 394.42, 639.98 394.89, 645.28 395.52 M632.12 393.95 C635.99 394.41, 639.87 394.88, 645.28 395.52 M645.28 395.52 C649.05 395.95, 652.82 396.38, 658.45 397.02 M645.28 395.52 C649.57 396.01, 653.85 396.49, 658.45 397.02 M658.45 397.02 C663.02 397.5, 667.59 397.99, 671.62 398.43 M658.45 397.02 C662.44 397.44, 666.43 397.87, 671.62 398.43 M671.62 398.43 C675.95 398.86, 680.28 399.3, 684.79 399.76 M671.62 398.43 C675.57 398.83, 679.52 399.23, 684.79 399.76 M684.79 399.76 C688.5 400.11, 692.21 400.47, 697.96 401.02 M684.79 399.76 C687.79 400.05, 690.8 400.33, 697.96 401.02 M697.96 401.02 C702.23 401.41, 706.5 401.79, 711.13 402.21 M697.96 401.02 C701.52 401.34, 705.09 401.67, 711.13 402.21 M711.13 402.21 C715.25 402.57, 719.37 402.92, 724.3 403.34 M711.13 402.21 C715.26 402.57, 719.39 402.92, 724.3 403.34 M724.3 403.34 C728.41 403.67, 732.51 404.01, 737.47 404.41 M724.3 403.34 C729.26 403.74, 734.21 404.14, 737.47 404.41 M737.47 404.41 C740.89 404.67, 744.32 404.93, 750.64 405.42 M737.47 404.41 C740.68 404.65, 743.9 404.9, 750.64 405.42 M750.64 405.42 C753.81 405.65, 756.99 405.88, 763.81 406.37 M750.64 405.42 C754.55 405.7, 758.47 405.98, 763.81 406.37 M763.81 406.37 C768.44 406.69, 773.07 407.01, 776.98 407.27 M763.81 406.37 C768.35 406.68, 772.89 406.99, 776.98 407.27 M776.98 407.27 C781.85 407.59, 786.73 407.91, 790.14 408.13 M776.98 407.27 C780.32 407.49, 783.66 407.71, 790.14 408.13 M790.14 408.13 C793.12 408.31, 796.1 408.49, 803.31 408.93 M790.14 408.13 C795.17 408.44, 800.2 408.74, 803.31 408.93 M803.31 408.93 C806.83 409.14, 810.35 409.34, 816.48 409.7 M803.31 408.93 C806.04 409.09, 808.78 409.25, 816.48 409.7 M816.48 409.7 C820.83 409.94, 825.18 410.17, 829.65 410.42 M816.48 409.7 C821.24 409.96, 826.01 410.22, 829.65 410.42 M829.65 410.42 C832.4 410.56, 835.15 410.7, 842.82 411.1 M829.65 410.42 C833.07 410.6, 836.49 410.77, 842.82 411.1 M842.82 411.1 C847.05 411.31, 851.28 411.52, 855.99 411.75 M842.82 411.1 C847.18 411.32, 851.54 411.53, 855.99 411.75 M855.99 411.75 C861.01 411.98, 866.03 412.21, 869.16 412.36 M855.99 411.75 C859.32 411.9, 862.65 412.06, 869.16 412.36 M869.16 412.36 C872.65 412.51, 876.14 412.66, 882.33 412.94 M869.16 412.36 C874.14 412.58, 879.12 412.8, 882.33 412.94 M882.33 412.94 C886.03 413.09, 889.73 413.24, 895.5 413.48 M882.33 412.94 C887.2 413.14, 892.08 413.34, 895.5 413.48 M895.5 413.48 C898.62 413.6, 901.75 413.73, 908.67 414 M895.5 413.48 C898.54 413.6, 901.58 413.72, 908.67 414" stroke="#E03A2A" stroke-width="1.8" fill="none"></path></g></g><mask></mask><g stroke-linecap="round" transform="translate(508.0288407081055 608.4502841268268) rotate(0 6.465412543911981 6.4654125439119525)"><path d="M12.93 6.47 C12.93 6.84, 12.9 7.22, 12.83 7.59 C12.77 7.96, 12.67 8.33, 12.54 8.68 C12.41 9.03, 12.25 9.37, 12.06 9.7 C11.88 10.02, 11.66 10.33, 11.42 10.62 C11.18 10.91, 10.91 11.18, 10.62 11.42 C10.33 11.66, 10.02 11.88, 9.7 12.06 C9.37 12.25, 9.03 12.41, 8.68 12.54 C8.33 12.67, 7.96 12.77, 7.59 12.83 C7.22 12.9, 6.84 12.93, 6.47 12.93 C6.09 12.93, 5.71 12.9, 5.34 12.83 C4.97 12.77, 4.61 12.67, 4.25 12.54 C3.9 12.41, 3.56 12.25, 3.23 12.06 C2.91 11.88, 2.6 11.66, 2.31 11.42 C2.02 11.18, 1.75 10.91, 1.51 10.62 C1.27 10.33, 1.05 10.02, 0.87 9.7 C0.68 9.37, 0.52 9.03, 0.39 8.68 C0.26 8.33, 0.16 7.96, 0.1 7.59 C0.03 7.22, 0 6.84, 0 6.47 C0 6.09, 0.03 5.71, 0.1 5.34 C0.16 4.97, 0.26 4.61, 0.39 4.25 C0.52 3.9, 0.68 3.56, 0.87 3.23 C1.05 2.91, 1.27 2.6, 1.51 2.31 C1.75 2.02, 2.02 1.75, 2.31 1.51 C2.6 1.27, 2.91 1.05, 3.23 0.87 C3.56 0.68, 3.9 0.52, 4.25 0.39 C4.61 0.26, 4.97 0.16, 5.34 0.1 C5.71 0.03, 6.09 0, 6.47 0 C6.84 0, 7.22 0.03, 7.59 0.1 C7.96 0.16, 8.33 0.26, 8.68 0.39 C9.03 0.52, 9.37 0.68, 9.7 0.87 C10.02 1.05, 10.33 1.27, 10.62 1.51 C10.91 1.75, 11.18 2.02, 11.42 2.31 C11.66 2.6, 11.88 2.91, 12.06 3.23 C12.25 3.56, 12.41 3.9, 12.54 4.25 C12.67 4.61, 12.77 4.97, 12.83 5.34 C12.9 5.71, 12.91 6.28, 12.93 6.47 C12.95 6.65, 12.95 6.28, 12.93 6.47" stroke="none" stroke-width="0" fill="#F7F2E8"></path><path d="M12.93 6.47 C12.93 6.84, 12.9 7.22, 12.83 7.59 C12.77 7.96, 12.67 8.33, 12.54 8.68 C12.41 9.03, 12.25 9.37, 12.06 9.7 C11.88 10.02, 11.66 10.33, 11.42 10.62 C11.18 10.91, 10.91 11.18, 10.62 11.42 C10.33 11.66, 10.02 11.88, 9.7 12.06 C9.37 12.25, 9.03 12.41, 8.68 12.54 C8.33 12.67, 7.96 12.77, 7.59 12.83 C7.22 12.9, 6.84 12.93, 6.47 12.93 C6.09 12.93, 5.71 12.9, 5.34 12.83 C4.97 12.77, 4.61 12.67, 4.25 12.54 C3.9 12.41, 3.56 12.25, 3.23 12.06 C2.91 11.88, 2.6 11.66, 2.31 11.42 C2.02 11.18, 1.75 10.91, 1.51 10.62 C1.27 10.33, 1.05 10.02, 0.87 9.7 C0.68 9.37, 0.52 9.03, 0.39 8.68 C0.26 8.33, 0.16 7.96, 0.1 7.59 C0.03 7.22, 0 6.84, 0 6.47 C0 6.09, 0.03 5.71, 0.1 5.34 C0.16 4.97, 0.26 4.61, 0.39 4.25 C0.52 3.9, 0.68 3.56, 0.87 3.23 C1.05 2.91, 1.27 2.6, 1.51 2.31 C1.75 2.02, 2.02 1.75, 2.31 1.51 C2.6 1.27, 2.91 1.05, 3.23 0.87 C3.56 0.68, 3.9 0.52, 4.25 0.39 C4.61 0.26, 4.97 0.16, 5.34 0.1 C5.71 0.03, 6.09 0, 6.47 0 C6.84 0, 7.22 0.03, 7.59 0.1 C7.96 0.16, 8.33 0.26, 8.68 0.39 C9.03 0.52, 9.37 0.68, 9.7 0.87 C10.02 1.05, 10.33 1.27, 10.62 1.51 C10.91 1.75, 11.18 2.02, 11.42 2.31 C11.66 2.6, 11.88 2.91, 12.06 3.23 C12.25 3.56, 12.41 3.9, 12.54 4.25 C12.67 4.61, 12.77 4.97, 12.83 5.34 C12.9 5.71, 12.91 6.28, 12.93 6.47 C12.95 6.65, 12.95 6.28, 12.93 6.47" stroke="#f08c00" stroke-width="1.5" fill="none"></path></g><g stroke-linecap="round"><g stroke-opacity="0.45" fill-opacity="0.45" transform="translate(514.4899002240595 623.1989336898653) rotate(0 0.004353027957904487 103.52093092011552)"><path d="M0 0 C0 45.5, 0 91, 0.01 207.04" stroke="#000000" stroke-width="1.1" fill="none" stroke-dasharray="1.5 6.6"></path></g></g><mask></mask><g transform="translate(365.86522264702677 707.6887007541454) rotate(0 33.623046875 6.875)"><text x="0" y="9.84521484375" font-family="Helvetica, sans-serif, Segoe UI Emoji" font-size="11px" fill="#000000" text-anchor="start" style="white-space: pre;" direction="ltr" dominant-baseline="alphabetic">BREAKEVEN</text></g><g stroke-opacity="0.75" fill-opacity="0.75" transform="translate(436.32650567036416 707.6887007541454) rotate(0 33.275000000000006 6.875)"><text x="0" y="9.84521484375" font-family="Helvetica, sans-serif, Segoe UI Emoji" font-size="11px" fill="#000000" text-anchor="start" style="white-space: pre;" direction="ltr" dominant-baseline="alphabetic">≈ Feature 3</text></g><g stroke-linecap="round"><g stroke-opacity="0.7" fill-opacity="0.7" transform="translate(439.8736212252074 701.9409988850464) rotate(0 33.81889037984138 -39.45792576579868)"><path d="M0 0 C14.57 -17, 29.14 -33.99, 67.64 -78.92 M0 0 C21.67 -25.28, 43.34 -50.57, 67.64 -78.92" stroke="#9A9A9A" stroke-width="1" fill="none"></path></g></g><mask></mask><g transform="translate(416.4661162424188 291.9474871545653) rotate(0 102.30000000000001 7.5)"><text x="0" y="10.740234375" font-family="Helvetica, sans-serif, Segoe UI Emoji" font-size="12px" fill="#000000" text-anchor="start" style="white-space: pre;" direction="ltr" dominant-baseline="alphabetic">Feature 1 with MCP costs more —</text></g><g transform="translate(606.6636093676777 291.76257197108106) rotate(0 132 7.5)"><text x="0" y="10.740234375" font-family="Helvetica, sans-serif, Segoe UI Emoji" font-size="12px" fill="#000000" text-anchor="start" style="white-space: pre;" direction="ltr" dominant-baseline="alphabetic">server, auth, observability, governance.</text></g><g stroke-opacity="0.75" fill-opacity="0.75" transform="translate(416.4661162424188 307.6897829897249) rotate(0 68.00670883960026 6.7200305177470625)"><text x="0" y="9.623293702367471" font-family="Helvetica, sans-serif, Segoe UI Emoji" font-size="10.752048828395298px" fill="#9A9A9A" text-anchor="start" style="white-space: pre;" direction="ltr" dominant-baseline="alphabetic">The bend earns it back.</text></g><g stroke-linecap="round"><g stroke-opacity="0.65" fill-opacity="0.65" transform="translate(973.7952685207107 513.2407955300964) rotate(0 0 125.47925735478134)"><path d="M0 0 C0 97.85, 0 195.7, 0 250.96 M0 0 C0 89.62, 0 179.25, 0 250.96" stroke="#000000" stroke-width="1" fill="none"></path></g></g><mask></mask><g stroke-linecap="round"><g stroke-opacity="0.65" fill-opacity="0.65" transform="translate(964.7952685207107 513.2407955300964) rotate(0 9 0)"><path d="M0 0 C4.86 0, 9.72 0, 18 0 M0 0 C5.93 0, 11.87 0, 18 0" stroke="#000000" stroke-width="1" fill="none"></path></g></g><mask></mask><g stroke-linecap="round"><g stroke-opacity="0.65" fill-opacity="0.65" transform="translate(964.7952685207107 764.1993102396591) rotate(0 9 0)"><path d="M0 0 C4.45 0, 8.89 0, 18 0 M0 0 C4.67 0, 9.34 0, 18 0" stroke="#000000" stroke-width="1" fill="none"></path></g></g><mask></mask><g transform="translate(987.7952685207107 622.7200528848778) rotate(0 135.29999999999995 7.5)"><text x="0" y="10.740234375" font-family="Helvetica, sans-serif, Segoe UI Emoji" font-size="12px" fill="#000000" text-anchor="start" style="white-space: pre;" direction="ltr" dominant-baseline="alphabetic">This gap is the standardisation dividend.</text></g><g stroke-opacity="0.8" fill-opacity="0.8" transform="translate(987.7952685207107 642.7200528848778) rotate(0 95.70000000000005 7.5)"><text x="0" y="10.740234375" font-family="Helvetica, sans-serif, Segoe UI Emoji" font-size="12px" fill="#000000" text-anchor="start" style="white-space: pre;" direction="ltr" dominant-baseline="alphabetic">≈ 5–10× cheaper by feature 6.</text></g><g stroke-linecap="round" transform="translate(1323.7952685207106 250.24079553009636) rotate(0 70 14)"><path d="M0 0 L140 0 L140 28 L0 28" stroke="none" stroke-width="0" fill="#000000"></path><path d="M0 0 C28.49 0, 56.97 0, 140 0 M0 0 C34.65 0, 69.29 0, 140 0 M140 0 C140 10.84, 140 21.69, 140 28 M140 0 C140 11, 140 22, 140 28 M140 28 C89.64 28, 39.28 28, 0 28 M140 28 C90.22 28, 40.44 28, 0 28 M0 28 C0 20.38, 0 12.75, 0 0 M0 28 C0 19.09, 0 10.18, 0 0" stroke="#000000" stroke-width="1" fill="none"></path></g><g transform="translate(1336.6909489232976 258.24079553009636) rotate(0 39.410400390625 6.875)"><text x="0" y="9.84521484375" font-family="Helvetica, sans-serif, Segoe UI Emoji" font-size="11px" fill="#F7F2E8" text-anchor="start" style="white-space: pre;" direction="ltr" dominant-baseline="alphabetic">WITHOUT MCP</text></g><g stroke-linecap="round"><g transform="translate(1475.7952685207106 264.24079553009636) rotate(0 64 0)"><path d="M0 0 C26.83 0, 53.65 0, 128 0" stroke="#000000" stroke-width="2" fill="none" stroke-dasharray="8 9.5"></path></g></g><mask></mask><g stroke-linecap="round" transform="translate(1323.7952685207106 290.24079553009636) rotate(0 70 14)"><path d="M0 0 L140 0 L140 28 L0 28" stroke="none" stroke-width="0" fill="#000000"></path><path d="M0 0 C46.82 0, 93.65 0, 140 0 M0 0 C40.12 0, 80.24 0, 140 0 M140 0 C140 7, 140 14.01, 140 28 M140 0 C140 11.14, 140 22.27, 140 28 M140 28 C86.39 28, 32.78 28, 0 28 M140 28 C84.72 28, 29.43 28, 0 28 M0 28 C0 17.76, 0 7.52, 0 0 M0 28 C0 22.21, 0 16.42, 0 0" stroke="#000000" stroke-width="1" fill="none"></path></g><g transform="translate(1336.6909489232976 298.24079553009636) rotate(0 27.80078125 6.875)"><text x="0" y="9.84521484375" font-family="Helvetica, sans-serif, Segoe UI Emoji" font-size="11px" fill="#F7F2E8" text-anchor="start" style="white-space: pre;" direction="ltr" dominant-baseline="alphabetic">WITH MCP</text></g><g stroke-linecap="round"><g transform="translate(1475.7952685207106 304.24079553009636) rotate(0 64 0)"><path d="M0 0 C35.4 0, 70.8 0, 128 0 M0 0 C49.36 0, 98.71 0, 128 0" stroke="#E03A2A" stroke-width="1.8" fill="none"></path></g></g><mask></mask><g stroke-linecap="round" transform="translate(1323.7952685207106 360.24079553009636) rotate(0 180 13)"><path d="M0 0 L360 0 L360 26 L0 26" stroke="none" stroke-width="0" fill="#000000"></path><path d="M0 0 C120.75 0, 241.5 0, 360 0 M0 0 C79.95 0, 159.89 0, 360 0 M360 0 C360 8.23, 360 16.46, 360 26 M360 0 C360 10.01, 360 20.02, 360 26 M360 26 C245.87 26, 131.75 26, 0 26 M360 26 C258.7 26, 157.4 26, 0 26 M0 26 C0 16.02, 0 6.05, 0 0 M0 26 C0 20.18, 0 14.36, 0 0" stroke="#000000" stroke-width="1" fill="none"></path></g><g transform="translate(1335.7952685207106 367.24079553009636) rotate(0 92.192138671875 6.875)"><text x="0" y="9.84521484375" font-family="Helvetica, sans-serif, Segoe UI Emoji" font-size="11px" fill="#F7F2E8" text-anchor="start" style="white-space: pre;" direction="ltr" dominant-baseline="alphabetic">ON A SYSTEMS-INTEGRATED AXIS</text></g><g stroke-linecap="round"><g transform="translate(1353.7952685207106 420.24079553009636) rotate(0 0 95)"><path d="M0 0 C0 40.37, 0 80.74, 0 190 M0 0 C0 50.43, 0 100.85, 0 190" stroke="#000000" stroke-width="1" fill="none"></path></g></g><mask></mask><g stroke-linecap="round"><g transform="translate(1353.7952685207106 610.2407955300964) rotate(0 160 0)"><path d="M0 0 C127.07 0, 254.13 0, 320 0 M0 0 C81.37 0, 162.73 0, 320 0" stroke="#000000" stroke-width="1" fill="none"></path></g></g><mask></mask><g stroke-linecap="round"><g transform="translate(1373.7952685207106 585.2407955300964) rotate(0 105 -87.5)"><path d="M0 0 C1.13 -0.62, 2.26 -1.23, 5.38 -2.94 M5.38 -2.94 C7.27 -4, 9.15 -5.07, 10.77 -5.99 M10.77 -5.99 C12.62 -7.07, 14.47 -8.15, 16.15 -9.14 M16.15 -9.14 C17.37 -9.87, 18.59 -10.61, 21.54 -12.39 M21.54 -12.39 C23.53 -13.62, 25.51 -14.86, 26.92 -15.73 M26.92 -15.73 C28.95 -17.02, 30.97 -18.32, 32.31 -19.17 M32.31 -19.17 C34.19 -20.41, 36.07 -21.64, 37.69 -22.71 M37.69 -22.71 C39.16 -23.69, 40.62 -24.68, 43.08 -26.33 M43.08 -26.33 C44.45 -27.27, 45.82 -28.22, 48.46 -30.04 M48.46 -30.04 C50.49 -31.47, 52.53 -32.9, 53.85 -33.83 M53.85 -33.83 C55.18 -34.79, 56.52 -35.76, 59.23 -37.71 M59.23 -37.71 C60.89 -38.93, 62.54 -40.15, 64.62 -41.67 M64.62 -41.67 C66.07 -42.76, 67.52 -43.85, 70 -45.71 M70 -45.71 C71.59 -46.93, 73.19 -48.15, 75.38 -49.83 M75.38 -49.83 C77.11 -51.18, 78.84 -52.52, 80.77 -54.02 M80.77 -54.02 C82.71 -55.56, 84.65 -57.1, 86.15 -58.3 M86.15 -58.3 C87.49 -59.37, 88.83 -60.45, 91.54 -62.64 M91.54 -62.64 C93.52 -64.27, 95.51 -65.9, 96.92 -67.06 M96.92 -67.06 C98.16 -68.09, 99.39 -69.11, 102.31 -71.55 M102.31 -71.55 C103.4 -72.48, 104.49 -73.4, 107.69 -76.11 M107.69 -76.11 C109.6 -77.75, 111.5 -79.38, 113.08 -80.74 M113.08 -80.74 C114.3 -81.81, 115.53 -82.88, 118.46 -85.44 M118.46 -85.44 C120.14 -86.93, 121.82 -88.42, 123.85 -90.21 M123.85 -90.21 C125.21 -91.43, 126.57 -92.65, 129.23 -95.04 M129.23 -95.04 C131.27 -96.89, 133.3 -98.74, 134.62 -99.94 M134.62 -99.94 C135.7 -100.94, 136.79 -101.94, 140 -104.9 M140 -104.9 C141.57 -106.37, 143.13 -107.83, 145.38 -109.93 M145.38 -109.93 C146.86 -111.33, 148.33 -112.72, 150.77 -115.02 M150.77 -115.02 C152.08 -116.28, 153.4 -117.54, 156.15 -120.18 M156.15 -120.18 C157.3 -121.29, 158.45 -122.4, 161.54 -125.39 M161.54 -125.39 C163.51 -127.32, 165.47 -129.25, 166.92 -130.67 M166.92 -130.67 C168.39 -132.13, 169.86 -133.58, 172.31 -136.01 M172.31 -136.01 C173.95 -137.65, 175.59 -139.29, 177.69 -141.4 M177.69 -141.4 C179.2 -142.94, 180.72 -144.47, 183.08 -146.86 M183.08 -146.86 C184.77 -148.6, 186.47 -150.33, 188.46 -152.37 M188.46 -152.37 C189.56 -153.51, 190.67 -154.65, 193.85 -157.94 M193.85 -157.94 C195.14 -159.3, 196.44 -160.65, 199.23 -163.57 M199.23 -163.57 C200.41 -164.82, 201.58 -166.06, 204.62 -169.26 M204.62 -169.26 C206.76 -171.55, 208.91 -173.84, 210 -175" stroke="#000000" stroke-width="1.8" fill="none" stroke-dasharray="8 9.3"></path></g></g><mask></mask><g stroke-linecap="round"><g transform="translate(1373.7952685207106 585.2407955300964) rotate(0 105 -37.5)"><path d="M0 0 C1.25 -0.45, 2.5 -0.89, 5.38 -1.92 M0 0 C1.36 -0.48, 2.71 -0.97, 5.38 -1.92 M5.38 -1.92 C7 -2.5, 8.61 -3.07, 10.77 -3.85 M5.38 -1.92 C7 -2.5, 8.61 -3.08, 10.77 -3.85 M10.77 -3.85 C12.53 -4.47, 14.28 -5.1, 16.15 -5.77 M10.77 -3.85 C11.95 -4.27, 13.14 -4.69, 16.15 -5.77 M16.15 -5.77 C17.53 -6.26, 18.91 -6.75, 21.54 -7.69 M16.15 -5.77 C17.67 -6.31, 19.18 -6.85, 21.54 -7.69 M21.54 -7.69 C22.81 -8.15, 24.09 -8.6, 26.92 -9.62 M21.54 -7.69 C22.75 -8.13, 23.96 -8.56, 26.92 -9.62 M26.92 -9.62 C29.03 -10.37, 31.13 -11.12, 32.31 -11.54 M26.92 -9.62 C28.28 -10.1, 29.65 -10.59, 32.31 -11.54 M32.31 -11.54 C33.78 -12.06, 35.26 -12.59, 37.69 -13.46 M32.31 -11.54 C33.96 -12.13, 35.61 -12.72, 37.69 -13.46 M37.69 -13.46 C39.03 -13.94, 40.36 -14.41, 43.08 -15.38 M37.69 -13.46 C39.08 -13.96, 40.46 -14.45, 43.08 -15.38 M43.08 -15.38 C44.91 -16.04, 46.75 -16.7, 48.46 -17.31 M43.08 -15.38 C45.14 -16.12, 47.21 -16.86, 48.46 -17.31 M48.46 -17.31 C49.63 -17.72, 50.8 -18.14, 53.85 -19.23 M48.46 -17.31 C50.42 -18.01, 52.38 -18.71, 53.85 -19.23 M53.85 -19.23 C55.13 -19.69, 56.41 -20.15, 59.23 -21.15 M53.85 -19.23 C55.75 -19.91, 57.66 -20.59, 59.23 -21.15 M59.23 -21.15 C60.48 -21.6, 61.74 -22.05, 64.62 -23.08 M59.23 -21.15 C61.25 -21.87, 63.26 -22.59, 64.62 -23.08 M64.62 -23.08 C66.56 -23.77, 68.5 -24.46, 70 -25 M64.62 -23.08 C66.74 -23.84, 68.87 -24.6, 70 -25 M70 -25 C71.49 -25.53, 72.97 -26.06, 75.38 -26.92 M70 -25 C71.72 -25.61, 73.44 -26.23, 75.38 -26.92 M75.38 -26.92 C77.53 -27.69, 79.67 -28.45, 80.77 -28.85 M75.38 -26.92 C76.82 -27.43, 78.25 -27.95, 80.77 -28.85 M80.77 -28.85 C82.24 -29.37, 83.7 -29.89, 86.15 -30.77 M80.77 -28.85 C82.69 -29.53, 84.62 -30.22, 86.15 -30.77 M86.15 -30.77 C87.43 -31.23, 88.71 -31.68, 91.54 -32.69 M86.15 -30.77 C87.24 -31.16, 88.34 -31.55, 91.54 -32.69 M91.54 -32.69 C93.65 -33.45, 95.76 -34.2, 96.92 -34.62 M91.54 -32.69 C93.05 -33.23, 94.55 -33.77, 96.92 -34.62 M96.92 -34.62 C98.32 -35.11, 99.71 -35.61, 102.31 -36.54 M96.92 -34.62 C98.12 -35.04, 99.32 -35.47, 102.31 -36.54 M102.31 -36.54 C104.2 -37.21, 106.09 -37.89, 107.69 -38.46 M102.31 -36.54 C103.41 -36.93, 104.52 -37.33, 107.69 -38.46 M107.69 -38.46 C108.98 -38.92, 110.26 -39.38, 113.08 -40.38 M107.69 -38.46 C108.9 -38.89, 110.1 -39.32, 113.08 -40.38 M113.08 -40.38 C114.75 -40.98, 116.43 -41.58, 118.46 -42.31 M113.08 -40.38 C114.6 -40.93, 116.12 -41.47, 118.46 -42.31 M118.46 -42.31 C119.8 -42.78, 121.13 -43.26, 123.85 -44.23 M118.46 -42.31 C119.97 -42.85, 121.49 -43.39, 123.85 -44.23 M123.85 -44.23 C125.89 -44.96, 127.93 -45.69, 129.23 -46.15 M123.85 -44.23 C125.96 -44.98, 128.06 -45.74, 129.23 -46.15 M129.23 -46.15 C131.14 -46.84, 133.05 -47.52, 134.62 -48.08 M129.23 -46.15 C131.12 -46.83, 133.01 -47.5, 134.62 -48.08 M134.62 -48.08 C136.27 -48.67, 137.93 -49.26, 140 -50 M134.62 -48.08 C135.91 -48.54, 137.2 -49, 140 -50 M140 -50 C141.73 -50.62, 143.46 -51.23, 145.38 -51.92 M140 -50 C141.99 -50.71, 143.98 -51.42, 145.38 -51.92 M145.38 -51.92 C147.5 -52.68, 149.62 -53.43, 150.77 -53.85 M145.38 -51.92 C146.82 -52.43, 148.25 -52.94, 150.77 -53.85 M150.77 -53.85 C152.4 -54.43, 154.04 -55.01, 156.15 -55.77 M150.77 -53.85 C152.67 -54.52, 154.56 -55.2, 156.15 -55.77 M156.15 -55.77 C158.19 -56.5, 160.23 -57.23, 161.54 -57.69 M156.15 -55.77 C157.97 -56.42, 159.78 -57.07, 161.54 -57.69 M161.54 -57.69 C163.46 -58.38, 165.37 -59.06, 166.92 -59.62 M161.54 -57.69 C163.12 -58.26, 164.71 -58.82, 166.92 -59.62 M166.92 -59.62 C168.82 -60.29, 170.71 -60.97, 172.31 -61.54 M166.92 -59.62 C168.28 -60.1, 169.63 -60.58, 172.31 -61.54 M172.31 -61.54 C174.06 -62.17, 175.82 -62.79, 177.69 -63.46 M172.31 -61.54 C173.77 -62.06, 175.22 -62.58, 177.69 -63.46 M177.69 -63.46 C179.02 -63.94, 180.35 -64.41, 183.08 -65.38 M177.69 -63.46 C178.96 -63.92, 180.23 -64.37, 183.08 -65.38 M183.08 -65.38 C185 -66.07, 186.93 -66.76, 188.46 -67.31 M183.08 -65.38 C184.88 -66.03, 186.69 -66.68, 188.46 -67.31 M188.46 -67.31 C190.3 -67.97, 192.14 -68.62, 193.85 -69.23 M188.46 -67.31 C189.8 -67.78, 191.13 -68.26, 193.85 -69.23 M193.85 -69.23 C195.94 -69.98, 198.04 -70.73, 199.23 -71.15 M193.85 -69.23 C195.05 -69.66, 196.26 -70.09, 199.23 -71.15 M199.23 -71.15 C201.17 -71.85, 203.11 -72.54, 204.62 -73.08 M199.23 -71.15 C200.7 -71.68, 202.17 -72.21, 204.62 -73.08 M204.62 -73.08 C205.99 -73.57, 207.36 -74.06, 210 -75 M204.62 -73.08 C205.95 -73.56, 207.29 -74.03, 210 -75" stroke="#E03A2A" stroke-width="1.5" fill="none"></path></g></g><mask></mask><g stroke-linecap="round"><g transform="translate(1373.7952685207106 610.2407955300964) rotate(0 0 2.5)"><path d="M0 0 C0 1.43, 0 2.87, 0 5 M0 0 C0 1.94, 0 3.88, 0 5" stroke="#000000" stroke-width="0.8" fill="none"></path></g></g><mask></mask><g transform="translate(1370.7952685207106 619.2407955300964) rotate(0 2.4750000000000227 5.625)"><text x="0" y="8.05517578125" font-family="Helvetica, sans-serif, Segoe UI Emoji" font-size="9px" fill="#000000" text-anchor="start" style="white-space: pre;" direction="ltr" dominant-baseline="alphabetic">1</text></g><g stroke-linecap="round"><g transform="translate(1443.7952685207106 610.2407955300964) rotate(0 0 2.5)"><path d="M0 0 C0 1.07, 0 2.14, 0 5 M0 0 C0 1.75, 0 3.49, 0 5" stroke="#000000" stroke-width="0.8" fill="none"></path></g></g><mask></mask><g transform="translate(1440.7952685207106 619.2407955300964) rotate(0 2.4750000000000227 5.625)"><text x="0" y="8.05517578125" font-family="Helvetica, sans-serif, Segoe UI Emoji" font-size="9px" fill="#000000" text-anchor="start" style="white-space: pre;" direction="ltr" dominant-baseline="alphabetic">2</text></g><g stroke-linecap="round"><g transform="translate(1513.7952685207106 610.2407955300964) rotate(0 0 2.5)"><path d="M0 0 C0 1.55, 0 3.1, 0 5 M0 0 C0 1.25, 0 2.5, 0 5" stroke="#000000" stroke-width="0.8" fill="none"></path></g></g><mask></mask><g transform="translate(1510.7952685207106 619.2407955300964) rotate(0 2.4750000000000227 5.625)"><text x="0" y="8.05517578125" font-family="Helvetica, sans-serif, Segoe UI Emoji" font-size="9px" fill="#000000" text-anchor="start" style="white-space: pre;" direction="ltr" dominant-baseline="alphabetic">3</text></g><g stroke-linecap="round"><g transform="translate(1583.7952685207106 610.2407955300964) rotate(0 0 2.5)"><path d="M0 0 C0 1.87, 0 3.75, 0 5 M0 0 C0 1.46, 0 2.92, 0 5" stroke="#000000" stroke-width="0.8" fill="none"></path></g></g><mask></mask><g transform="translate(1580.7952685207106 619.2407955300964) rotate(0 2.4750000000000227 5.625)"><text x="0" y="8.05517578125" font-family="Helvetica, sans-serif, Segoe UI Emoji" font-size="9px" fill="#000000" text-anchor="start" style="white-space: pre;" direction="ltr" dominant-baseline="alphabetic">4</text></g><g stroke-opacity="0.8" fill-opacity="0.8" transform="translate(1352.6320759226037 637.1715578754472) rotate(0 57.75 6.25)"><text x="0" y="8.9501953125" font-family="Helvetica, sans-serif, Segoe UI Emoji" font-size="10px" fill="#000000" text-anchor="start" style="white-space: pre;" direction="ltr" dominant-baseline="alphabetic">Systems integrated  →</text></g><g transform="translate(1587.4902037084198 420.50428329333243) rotate(0 15.125 6.875)"><text x="0" y="9.84521484375" font-family="Helvetica, sans-serif, Segoe UI Emoji" font-size="11px" fill="#000000" text-anchor="start" style="white-space: pre;" direction="ltr" dominant-baseline="alphabetic">M × N</text></g><g transform="translate(1587.4902037084198 520.9360484435024) rotate(0 15.125 6.875)"><text x="0" y="9.84521484375" font-family="Helvetica, sans-serif, Segoe UI Emoji" font-size="11px" fill="#E03A2A" text-anchor="start" style="white-space: pre;" direction="ltr" dominant-baseline="alphabetic">M + N</text></g><g stroke-opacity="0.8" fill-opacity="0.8" transform="translate(1352.7376637235798 651.7253083785249) rotate(0 51.421400727416085 3.71881987293591)"><text x="0" y="5.325466271165253" font-family="Helvetica, sans-serif, Segoe UI Emoji" font-size="5.950111796697457px" fill="#9A9A9A" text-anchor="start" style="white-space: pre;" direction="ltr" dominant-baseline="alphabetic">Cost scales with systems, not features.</text></g><g stroke-linecap="round" transform="translate(1323.7952685207106 700.2407955300964) rotate(0 180 13)"><path d="M0 0 L360 0 L360 26 L0 26" stroke="none" stroke-width="0" fill="#000000"></path><path d="M0 0 C85.82 0, 171.65 0, 360 0 M0 0 C115.23 0, 230.46 0, 360 0 M360 0 C360 10.33, 360 20.65, 360 26 M360 0 C360 7.86, 360 15.72, 360 26 M360 26 C247.01 26, 134.01 26, 0 26 M360 26 C243.54 26, 127.07 26, 0 26 M0 26 C0 16.56, 0 7.12, 0 0 M0 26 C0 18.76, 0 11.51, 0 0" stroke="#000000" stroke-width="1" fill="none"></path></g><g transform="translate(1335.7952685207106 707.2407955300964) rotate(0 44.512939453125 6.875)"><text x="0" y="9.84521484375" font-family="Helvetica, sans-serif, Segoe UI Emoji" font-size="11px" fill="#F7F2E8" text-anchor="start" style="white-space: pre;" direction="ltr" dominant-baseline="alphabetic">WHAT CHANGES</text></g><g transform="translate(1357.3993229797384 744.6408087823002) rotate(0 6.600000000000023 7.5)"><text x="0" y="10.740234375" font-family="Helvetica, sans-serif, Segoe UI Emoji" font-size="12px" fill="#000000" text-anchor="start" style="white-space: pre;" direction="ltr" dominant-baseline="alphabetic">1.</text></g><g transform="translate(1381.3993229797384 744.6408087823002) rotate(0 99 7.5)"><text x="0" y="10.740234375" font-family="Helvetica, sans-serif, Segoe UI Emoji" font-size="12px" fill="#000000" text-anchor="start" style="white-space: pre;" direction="ltr" dominant-baseline="alphabetic">Integrations become reusable —</text></g><g stroke-opacity="0.8" fill-opacity="0.8" transform="translate(1381.3993229797384 762.6408087823002) rotate(0 99 7.5)"><text x="0" y="10.740234375" font-family="Helvetica, sans-serif, Segoe UI Emoji" font-size="12px" fill="#000000" text-anchor="start" style="white-space: pre;" direction="ltr" dominant-baseline="alphabetic">one MCP server, many features.</text></g><g transform="translate(1357.3993229797384 794.6408087823002) rotate(0 6.600000000000023 7.5)"><text x="0" y="10.740234375" font-family="Helvetica, sans-serif, Segoe UI Emoji" font-size="12px" fill="#000000" text-anchor="start" style="white-space: pre;" direction="ltr" dominant-baseline="alphabetic">2.</text></g><g transform="translate(1381.3993229797384 794.6408087823002) rotate(0 117.7119140625 7.5)"><text x="0" y="10.740234375" font-family="Helvetica, sans-serif, Segoe UI Emoji" font-size="12px" fill="#000000" text-anchor="start" style="white-space: pre;" direction="ltr" dominant-baseline="alphabetic">New systems are additive, not multiplicative.</text></g><g transform="translate(1357.3993229797384 828.6408087823002) rotate(0 6.600000000000023 7.5)"><text x="0" y="10.740234375" font-family="Helvetica, sans-serif, Segoe UI Emoji" font-size="12px" fill="#000000" text-anchor="start" style="white-space: pre;" direction="ltr" dominant-baseline="alphabetic">3.</text></g><g transform="translate(1381.3993229797384 828.6408087823002) rotate(0 89.10000000000002 7.5)"><text x="0" y="10.740234375" font-family="Helvetica, sans-serif, Segoe UI Emoji" font-size="12px" fill="#000000" text-anchor="start" style="white-space: pre;" direction="ltr" dominant-baseline="alphabetic">Vendor switching cost falls</text></g><g stroke-opacity="0.8" fill-opacity="0.8" transform="translate(1381.3993229797384 846.6408087823002) rotate(0 92.39999999999998 7.5)"><text x="0" y="10.740234375" font-family="Helvetica, sans-serif, Segoe UI Emoji" font-size="12px" fill="#000000" text-anchor="start" style="white-space: pre;" direction="ltr" dominant-baseline="alphabetic">as adapters become standard.</text></g><g stroke-linecap="round"><g transform="translate(123.79526852071069 945.2407955300964) rotate(0 780 0)"><path d="M0 0 C521.7 0, 1043.4 0, 1560 0 M0 0 C357.15 0, 714.3 0, 1560 0" stroke="#000000" stroke-width="0.6" fill="none"></path></g></g><mask></mask><g stroke-linecap="round" transform="translate(123.79526852071069 965.2407955300964) rotate(0 90 13)"><path d="M0 0 L180 0 L180 26 L0 26" stroke="none" stroke-width="0" fill="#000000"></path><path d="M0 0 C36.05 0, 72.1 0, 180 0 M0 0 C56.69 0, 113.39 0, 180 0 M180 0 C180 5.54, 180 11.08, 180 26 M180 0 C180 7.96, 180 15.93, 180 26 M180 26 C128.54 26, 77.09 26, 0 26 M180 26 C121.92 26, 63.83 26, 0 26 M0 26 C0 19.26, 0 12.53, 0 0 M0 26 C0 18.75, 0 11.49, 0 0" stroke="#000000" stroke-width="1" fill="none"></path></g><g transform="translate(135.7952685207107 972.2407955300964) rotate(0 47.875244140625 6.875)"><text x="0" y="9.84521484375" font-family="Helvetica, sans-serif, Segoe UI Emoji" font-size="11px" fill="#F7F2E8" text-anchor="start" style="white-space: pre;" direction="ltr" dominant-baseline="alphabetic">STRATEGIC NOTE</text></g><g transform="translate(123.79526852071069 1008.2407955300964) rotate(0 303.6 10)"><text x="0" y="14.3203125" font-family="Helvetica, sans-serif, Segoe UI Emoji" font-size="16px" fill="#000000" text-anchor="start" style="white-space: pre;" direction="ltr" dominant-baseline="alphabetic">MCP doesn't just make features cheaper — it expands what's buildable.</text></g><g stroke-opacity="0.75" fill-opacity="0.75" transform="translate(123.79526852071069 1034.2407955300964) rotate(0 445.50000000000006 7.5)"><text x="0" y="10.740234375" font-family="Helvetica, sans-serif, Segoe UI Emoji" font-size="12px" fill="#000000" text-anchor="start" style="white-space: pre;" direction="ltr" dominant-baseline="alphabetic">Some features are economically infeasible without standardised integration. Under MCP they pencil — that is the bigger executive story.</text></g><g stroke-linecap="round"><g transform="translate(123.79526852071069 1090.2407955300964) rotate(0 780 0)"><path d="M0 0 C384.89 0, 769.77 0, 1560 0 M0 0 C464.61 0, 929.22 0, 1560 0" stroke="#000000" stroke-width="0.6" fill="none"></path></g></g><mask></mask><g stroke-opacity="0.7" fill-opacity="0.7" transform="translate(123.79526852071069 1120.2407955300964) rotate(0 151.25000000000003 6.875)"><text x="0" y="9.84521484375" font-family="Helvetica, sans-serif, Segoe UI Emoji" font-size="11px" fill="#000000" text-anchor="start" style="white-space: pre;" direction="ltr" dominant-baseline="alphabetic">Scale: illustrative — units intentionally omitted.</text></g><g stroke-opacity="0.7" fill-opacity="0.7" transform="translate(1623.7952685207106 1120.2407955300964) rotate(0 24.200000000000045 6.875)"><text x="0" y="9.84521484375" font-family="Helvetica, sans-serif, Segoe UI Emoji" font-size="11px" fill="#000000" text-anchor="start" style="white-space: pre;" direction="ltr" dominant-baseline="alphabetic">Exec . 2</text></g><g stroke-linecap="round" transform="translate(510.2232723295569 610.644715748278) rotate(0 4.270980922460609 4.270980922460581)"><path d="M8.54 4.27 C8.54 4.52, 8.52 4.77, 8.48 5.01 C8.43 5.26, 8.37 5.5, 8.28 5.73 C8.2 5.96, 8.09 6.19, 7.97 6.41 C7.85 6.62, 7.7 6.83, 7.54 7.02 C7.38 7.21, 7.21 7.38, 7.02 7.54 C6.83 7.7, 6.62 7.85, 6.41 7.97 C6.19 8.09, 5.96 8.2, 5.73 8.28 C5.5 8.37, 5.26 8.43, 5.01 8.48 C4.77 8.52, 4.52 8.54, 4.27 8.54 C4.02 8.54, 3.77 8.52, 3.53 8.48 C3.29 8.43, 3.04 8.37, 2.81 8.28 C2.58 8.2, 2.35 8.09, 2.14 7.97 C1.92 7.85, 1.72 7.7, 1.53 7.54 C1.34 7.38, 1.16 7.21, 1 7.02 C0.84 6.83, 0.7 6.62, 0.57 6.41 C0.45 6.19, 0.34 5.96, 0.26 5.73 C0.17 5.5, 0.11 5.26, 0.06 5.01 C0.02 4.77, 0 4.52, 0 4.27 C0 4.02, 0.02 3.77, 0.06 3.53 C0.11 3.29, 0.17 3.04, 0.26 2.81 C0.34 2.58, 0.45 2.35, 0.57 2.14 C0.7 1.92, 0.84 1.72, 1 1.53 C1.16 1.34, 1.34 1.16, 1.53 1 C1.72 0.84, 1.92 0.7, 2.14 0.57 C2.35 0.45, 2.58 0.34, 2.81 0.26 C3.04 0.17, 3.29 0.11, 3.53 0.06 C3.77 0.02, 4.02 0, 4.27 0 C4.52 0, 4.77 0.02, 5.01 0.06 C5.26 0.11, 5.5 0.17, 5.73 0.26 C5.96 0.34, 6.19 0.45, 6.41 0.57 C6.62 0.7, 6.83 0.84, 7.02 1 C7.21 1.16, 7.38 1.34, 7.54 1.53 C7.7 1.72, 7.85 1.92, 7.97 2.14 C8.09 2.35, 8.2 2.58, 8.28 2.81 C8.37 3.04, 8.43 3.29, 8.48 3.53 C8.52 3.77, 8.53 4.15, 8.54 4.27 C8.55 4.39, 8.55 4.15, 8.54 4.27" stroke="none" stroke-width="0" fill="#ffd8a8"></path><path d="M8.54 4.27 C8.54 4.52, 8.52 4.77, 8.48 5.01 C8.43 5.26, 8.37 5.5, 8.28 5.73 C8.2 5.96, 8.09 6.19, 7.97 6.41 C7.85 6.62, 7.7 6.83, 7.54 7.02 C7.38 7.21, 7.21 7.38, 7.02 7.54 C6.83 7.7, 6.62 7.85, 6.41 7.97 C6.19 8.09, 5.96 8.2, 5.73 8.28 C5.5 8.37, 5.26 8.43, 5.01 8.48 C4.77 8.52, 4.52 8.54, 4.27 8.54 C4.02 8.54, 3.77 8.52, 3.53 8.48 C3.29 8.43, 3.04 8.37, 2.81 8.28 C2.58 8.2, 2.35 8.09, 2.14 7.97 C1.92 7.85, 1.72 7.7, 1.53 7.54 C1.34 7.38, 1.16 7.21, 1 7.02 C0.84 6.83, 0.7 6.62, 0.57 6.41 C0.45 6.19, 0.34 5.96, 0.26 5.73 C0.17 5.5, 0.11 5.26, 0.06 5.01 C0.02 4.77, 0 4.52, 0 4.27 C0 4.02, 0.02 3.77, 0.06 3.53 C0.11 3.29, 0.17 3.04, 0.26 2.81 C0.34 2.58, 0.45 2.35, 0.57 2.14 C0.7 1.92, 0.84 1.72, 1 1.53 C1.16 1.34, 1.34 1.16, 1.53 1 C1.72 0.84, 1.92 0.7, 2.14 0.57 C2.35 0.45, 2.58 0.34, 2.81 0.26 C3.04 0.17, 3.29 0.11, 3.53 0.06 C3.77 0.02, 4.02 0, 4.27 0 C4.52 0, 4.77 0.02, 5.01 0.06 C5.26 0.11, 5.5 0.17, 5.73 0.26 C5.96 0.34, 6.19 0.45, 6.41 0.57 C6.62 0.7, 6.83 0.84, 7.02 1 C7.21 1.16, 7.38 1.34, 7.54 1.53 C7.7 1.72, 7.85 1.92, 7.97 2.14 C8.09 2.35, 8.2 2.58, 8.28 2.81 C8.37 3.04, 8.43 3.29, 8.48 3.53 C8.52 3.77, 8.53 4.15, 8.54 4.27 C8.55 4.39, 8.55 4.15, 8.54 4.27" stroke="#f08c00" stroke-width="1" fill="none"></path></g><g stroke-linecap="round"><g transform="translate(411.8158827316909 305.0094293023319) rotate(0 -42.993361370606294 36.02373226770425)"><path d="M0 0 C-14.33 12.01, -71.66 60.04, -85.99 72.05 M0 0 C-14.33 12.01, -71.66 60.04, -85.99 72.05" stroke="#9A9A9A" stroke-width="1" fill="none"></path></g></g><mask></mask></svg>